<?xml version="1.0" encoding="UTF-8"?>
<!DOCTYPE svg PUBLIC "-//W3C//DTD SVG 1.1//EN" "http://www.w3.org/Graphics/SVG/1.1/DTD/svg11.dtd">
<!-- Creator: CorelDRAW (Versão OEM) -->
<svg xmlns="http://www.w3.org/2000/svg" xml:space="preserve" width="168mm" height="113mm" version="1.1" style="shape-rendering:geometricPrecision; text-rendering:geometricPrecision; image-rendering:optimizeQuality; fill-rule:evenodd; clip-rule:evenodd"
viewBox="0 0 16800 11300"
 xmlns:xlink="http://www.w3.org/1999/xlink"
 xmlns:xodm="http://www.corel.com/coreldraw/odm/2003">
 <defs>
  <style type="text/css">
   <![CDATA[
    .fil1 {fill:#C73D1A}
    .fil0 {fill:#FED90A}
   ]]>
  </style>
 </defs>
 <g id="Camada_x0020_1">
  <metadata id="CorelCorpID_0Corel-Layer"/>
  <g id="_1924785203584">
   <path class="fil0" d="M13344.98 9510.71c-62.45,318.55 -96.07,564.84 -384.28,771.73 -67.25,49.26 -72.05,95.24 -254.58,157.63 -763.76,266 -1445.85,-400.64 -1330.57,-1234.76 43.24,-338.25 129.7,-545.14 321.84,-738.89 192.14,-193.76 461.13,-298.84 826.2,-249.58 528.38,68.96 931.87,699.48 821.39,1293.87zm979.91 -1054.15c182.53,-22.98 374.67,-298.84 600.43,-206.88 196.94,85.38 576.42,870.24 33.63,1103.4 -552.4,243.02 -393.89,-390.79 -480.35,-482.74 -48.04,-52.54 -110.48,-22.99 -139.3,16.42 -91.27,131.36 -76.86,981.9 4.8,1178.94 38.43,91.95 115.29,193.75 19.22,302.12 -172.93,200.33 -686.9,111.66 -845.42,32.84 -48.03,-26.27 -72.05,-68.96 -105.67,-85.38 -24.02,-157.63 57.64,-216.74 100.87,-364.52 38.43,-124.79 43.23,-745.45 19.21,-880.1 -28.82,-183.9 -96.06,-160.91 -182.53,-282.42 -158.51,-233.16 148.91,-446.61 326.64,-518.86 321.83,-128.07 509.17,-55.83 648.47,187.18zm-3122.26 144.5c-19.21,137.92 -19.21,1093.55 9.61,1228.2 33.62,164.19 168.12,377.65 91.26,499.16 -28.82,42.69 -48.03,55.82 -86.46,75.53 -28.82,13.13 -28.82,9.85 -57.64,22.99 -259.39,108.37 -734.93,85.38 -816.59,-128.08 -43.23,-111.65 110.48,-344.81 124.89,-512.3 14.41,-210.17 4.8,-413.77 9.61,-627.23 4.8,-210.17 43.23,-413.78 -67.25,-554.99 -91.27,-16.42 -196.95,0 -249.78,-65.68 -38.43,-59.11 -57.65,-206.89 -14.41,-285.7 48.03,-82.1 124.89,-49.26 211.35,-124.79 62.44,-49.26 91.26,-105.09 153.71,-177.33 115.28,-128.08 264.19,-200.32 480.35,-180.62 307.42,22.99 139.3,252.86 240.17,423.63l48.04 6.57c91.26,0 96.06,-13.14 206.54,26.27 57.65,443.33 -120.08,348.1 -283.4,374.37zm1724.45 -2147.71c605.23,-124.79 802.18,1004.89 168.12,1086.99 -321.83,39.41 -533.19,-197.03 -562.01,-466.32 -19.21,-134.64 -14.41,-229.88 43.23,-341.53 0,-3.28 9.61,-19.7 9.61,-22.99 76.86,-154.34 134.5,-213.45 341.05,-256.15zm-461.14 765.16c24.02,111.66 67.25,141.21 96.07,229.88 -33.62,88.67 -96.07,141.21 -201.74,160.92 -139.3,26.27 -144.11,-32.84 -225.77,-85.39 -72.05,49.26 -81.66,108.37 -177.72,128.08 -461.14,85.38 -619.65,-1004.89 -172.93,-1083.71 38.43,-6.57 91.27,-6.57 129.69,3.29 67.25,13.13 28.82,6.56 62.45,22.98l33.62 16.42c4.81,-3.28 14.41,6.57 19.22,9.86 -14.41,-197.04 -72.05,-167.49 -105.68,-262.72 -62.44,-180.62 297.82,-292.27 365.06,-279.14 67.25,9.86 52.84,26.28 57.65,91.95 33.62,315.26 43.23,738.89 120.08,1047.58zm3074.23 -4367.65c19.21,45.98 14.41,32.84 48.03,78.81 576.42,778.3 461.14,2019.63 -168.12,2541.78l-230.57 160.92c-81.66,39.4 -38.42,22.98 -86.46,26.27l-105.68 62.39c-33.62,13.14 -76.85,19.71 -105.67,26.27 -81.66,19.71 -172.93,32.84 -249.78,42.7 -413.1,45.97 -1042.36,-174.05 -1229.69,-499.16 -72.05,-26.28 -129.7,-200.33 -192.14,-249.58 -76.86,52.54 -48.04,19.7 -19.21,131.35 -144.11,-59.11 -57.65,-16.42 -57.65,-65.68 9.61,-147.77 57.65,105.09 24.02,-82.09 -33.62,39.4 -57.64,32.84 -86.46,65.67 -19.22,22.99 -14.41,45.98 -43.23,62.4l-14.41 62.39c0,75.54 14.41,157.63 -43.23,216.75 -33.63,36.12 -120.09,91.95 -168.13,124.79 -297.81,190.46 -994.32,436.76 -1109.6,-45.98 -4.8,-19.7 -9.61,-39.41 -19.21,-62.39 -14.41,-39.41 0,-22.99 -19.22,-42.7 -124.89,78.82 -259.38,328.4 -590.82,367.81 -513.98,62.39 -595.63,-144.5 -749.35,-197.04 -81.66,-49.26 -28.82,-13.14 -86.46,-32.84l-28.82 -6.57c0,-3.28 -9.61,-3.28 -9.61,-3.28 -4.8,0 -9.6,-3.29 -14.41,-3.29l-24.01 -3.28c-38.43,-3.28 -96.07,-3.28 -91.27,42.69l14.41 26.27c52.84,22.99 52.84,3.29 62.45,6.57 -4.81,82.1 19.21,111.66 -115.29,124.79l52.84 22.99c9.61,3.28 14.41,3.28 19.21,3.28 9.61,0 52.84,-16.42 57.65,-19.7 -48.04,85.38 -14.41,22.99 -81.66,39.41 -4.81,0 -9.61,0 -14.41,3.28 -48.04,16.42 -52.84,49.26 -57.65,42.69 -4.8,-3.28 -9.6,13.14 -14.41,19.71 28.83,-98.52 100.88,-118.23 -115.28,-177.34 24.02,180.62 28.82,134.64 -14.41,141.21 -67.25,9.85 28.82,68.97 -48.03,-3.28 -19.22,-22.99 -48.04,-91.95 -38.43,-128.08l19.21 3.29c4.81,0 9.61,0 14.41,0 0,0 9.61,0 9.61,0 110.48,-19.71 76.85,-13.14 57.64,-82.1 -14.41,-42.69 -24.02,-39.41 -48.03,-59.11 -4.81,-3.29 -9.61,-6.57 -14.41,-6.57l-14.41 -13.14c-4.81,-3.28 -9.61,-9.85 -9.61,-9.85l86.46 -19.7c0,-42.69 -24.02,-45.98 -38.43,-55.83 0,-3.28 -9.6,-6.57 -9.6,-9.85l-76.86 -68.96c-81.66,55.82 -81.66,16.42 -134.5,55.82l14.41 -88.66c9.61,-13.14 14.41,-13.14 24.02,-26.27l43.23 -62.4 -91.26 6.57c-43.23,55.83 -72.06,105.08 -115.29,164.2 -43.23,59.11 -76.85,85.38 -120.08,141.21 -605.24,541.85 -792.58,459.75 -1071.18,610.81 -177.73,98.52 -163.32,311.98 -14.41,334.96 192.14,29.56 600.44,-315.26 710.92,-407.21 177.72,-147.77 422.7,-449.9 677.29,-137.92 336.24,410.49 321.83,1352.99 -72.06,1668.25 -264.19,206.88 -643.66,65.67 -682.09,-239.73 -57.64,-417.07 365.06,-377.66 321.83,-761.88 -52.84,22.99 -730.13,985.19 -1489.07,945.78 -321.84,-13.14 -571.62,-298.84 -667.69,-551.71 -24.01,-59.11 -19.21,-111.65 -52.84,-160.91l-52.83 -65.68c0,0 -9.61,-45.97 -9.61,-49.26 -43.23,22.99 -57.64,88.67 -62.45,128.08 91.27,0 -43.23,3.28 91.27,9.85l-48.03 68.96c-4.81,-3.28 -24.02,-45.97 -24.02,-45.97 -4.81,-6.57 -19.22,-19.71 -24.02,-26.28 -14.41,-16.42 14.41,0 -38.43,-19.7l-187.33 26.27c-4.81,0 -19.22,9.85 -24.02,13.14 -19.21,16.42 -28.82,19.7 -38.43,45.97l-43.23 78.82c-24.02,-124.79 -76.85,-85.38 52.84,-91.95 -4.8,-6.57 -14.41,-9.85 -14.41,-13.14l-48.04 -19.7 76.86 -124.79c4.8,-13.14 9.61,-13.14 9.61,-19.71l-67.25 36.13c-57.64,36.12 -96.07,39.41 -153.71,-9.85 -81.66,-75.54 76.85,-29.56 -105.68,-59.12 19.21,55.83 62.45,98.52 105.68,137.93l28.82 36.12 -76.86 39.41c-9.61,-59.11 -14.41,-62.39 -38.43,-101.8 -14.41,16.42 -14.41,3.28 -28.82,36.12 -24.01,52.55 -14.41,-16.42 -4.8,32.84 9.61,49.26 105.68,114.94 139.3,128.08l-9.61 111.65c-62.44,-19.7 -4.8,0 -48.03,-39.41 -9.61,-9.85 0,-13.13 -24.02,-26.27 -33.62,-19.7 -48.03,9.85 -62.44,9.85l-24.02 -131.35c-100.87,-22.99 -43.23,-22.99 -100.87,-39.41 -144.11,-39.41 -105.68,36.12 -110.48,124.79l-9.61 32.84c-33.63,-32.84 9.61,-13.14 -48.04,-22.99 -96.07,-19.7 -24.01,0 -28.82,6.57 -57.64,-19.71 -19.21,13.13 -33.62,-52.55 -52.84,72.25 -86.46,32.84 -139.3,91.96l-33.63 59.11c-9.6,-59.11 -4.8,-82.1 -38.42,-118.23 -14.41,-19.7 -24.02,-26.27 -28.82,-29.55 -67.25,-52.54 -43.24,3.28 -76.86,-72.25 0,-3.28 0,-9.85 0,-13.13l-14.41 -49.26c-105.68,3.28 -153.71,-29.56 -192.14,-9.86 0,36.13 4.8,108.37 33.62,151.07 19.22,-19.71 0,-68.97 24.02,-88.67 38.43,-45.98 52.84,-9.85 115.29,-3.28l-52.84 65.67c-57.64,52.55 -24.02,-3.28 -57.64,68.97 33.62,19.7 28.82,9.85 43.23,13.13l129.69 55.83c62.45,32.84 9.61,-13.14 52.84,39.41 -57.64,32.84 -9.61,32.84 -96.07,26.27 24.02,-65.68 14.41,-32.84 -24.02,-55.83l-24.02 22.99c-96.06,114.94 57.65,151.06 -187.33,200.32 -52.84,9.85 -9.61,-16.42 -33.63,9.85 48.04,0 62.45,-3.28 105.68,9.85 76.86,19.71 139.3,62.4 201.75,-29.55l28.82 -42.69c-33.63,206.89 14.41,-49.26 86.46,118.22l28.82 -36.12c0,-6.57 4.8,-13.14 4.8,-16.42l4.81 -32.84c48.03,16.42 52.84,49.26 91.26,72.24l24.02 68.97c-4.8,6.57 -14.41,22.99 -19.21,26.27 -24.02,39.41 -14.41,3.28 -43.23,65.68 43.23,6.57 19.21,-55.83 43.23,62.39 100.87,144.5 182.53,174.05 235.37,403.93 19.21,78.81 38.43,180.62 38.43,272.57 4.8,101.8 -14.41,243.01 -4.81,315.26 0,49.26 -9.6,45.97 -9.6,118.22 48.03,32.84 -14.41,22.99 67.24,0 144.11,-295.56 312.23,-430.2 691.7,-502.45 168.13,-29.55 413.1,-26.27 571.62,16.42 105.67,26.28 374.67,137.93 379.47,229.88l38.43 -36.12c0,0 14.41,-3.29 19.21,-3.29 0,0 -28.82,-36.12 81.66,13.14l76.86 -13.14c139.3,26.27 -43.23,32.84 81.66,26.27 9.6,0 14.41,0 19.21,-3.28 115.28,-29.55 33.63,36.12 33.63,-36.12 -4.81,-36.13 -67.25,-42.69 -105.68,-65.68l-9.61 -78.82c38.43,3.29 -28.82,-13.13 38.43,36.13l100.87 59.11c4.81,3.28 28.82,19.7 33.63,22.99 43.23,-98.52 19.21,-85.39 57.64,-62.4 33.62,19.7 19.21,22.99 81.66,42.69 -4.81,-72.25 14.41,-52.54 -19.22,-101.8 33.63,0 33.63,-9.85 67.25,42.69l9.61 39.41c24.02,-26.27 62.45,-91.95 100.87,-65.68 62.45,39.41 -9.6,-59.11 38.43,45.97 -33.62,9.86 -43.23,-3.28 -76.85,22.99l-38.43 55.83c24.01,-9.85 72.05,-26.27 100.87,-39.41 62.45,9.85 211.35,-137.92 528.38,-151.06 297.82,-13.14 658.08,-42.69 874.23,239.73 129.7,170.76 182.54,587.83 -38.42,696.2 -206.55,101.8 -610.04,-75.53 -658.08,-233.16 19.21,-26.28 38.43,-62.4 57.64,-78.82 38.43,-32.84 -9.6,-19.7 62.45,-29.55 -14.41,-42.7 19.21,-275.86 -259.39,-49.26 -355.46,292.27 528.38,489.3 706.11,627.23 177.73,141.21 331.44,410.49 192.14,686.35 -144.1,288.98 -456.33,334.96 -586.02,400.64 -52.84,82.1 -168.13,52.54 -273.8,52.54 33.62,42.69 -9.61,22.99 57.64,42.69l28.82 0c96.07,3.29 -72.05,-29.55 76.86,0 -96.07,6.57 0,6.57 -67.25,39.41 0,0 -4.81,3.28 -9.61,3.28l-105.68 32.84c33.63,26.28 76.86,16.42 124.89,19.71 -4.8,6.57 -14.41,39.4 -9.6,42.69l19.21 55.83 57.64 -19.71c19.22,-6.57 43.23,-19.7 43.23,-19.7l-43.23 -164.2c9.61,3.29 14.41,3.29 19.22,13.14l43.23 32.84c19.21,22.98 4.8,0 24.02,39.4l0 -78.81c33.62,32.84 9.6,3.28 38.42,49.26 28.82,52.54 19.22,82.1 4.81,141.21l-9.61 45.97c110.48,-42.69 -14.41,45.98 72.05,-39.4l24.02 -39.41c14.41,59.11 9.61,45.97 62.44,45.97 0,0 9.61,0 9.61,0 4.81,0 9.61,0 14.41,0l28.82 -6.56c33.63,-3.29 38.43,-9.86 43.23,19.7l9.61 -26.27c19.21,-45.98 -24.02,-42.69 91.27,-29.56 -28.82,13.14 -38.43,26.27 -48.04,39.41l-14.41 72.25c-24.02,101.8 -9.61,-68.97 -38.43,101.8l110.48 55.83c0,3.28 -4.8,13.13 -4.8,16.42 0,3.28 0,13.13 -4.8,16.42 0,3.28 0,9.85 0,13.13 0,3.29 0,9.85 0,16.42 4.8,0 14.41,-6.57 14.41,0 24.01,52.54 14.41,0 48.03,6.57l24.02 6.57c62.44,0 38.43,9.85 67.25,-52.55 -28.82,9.86 24.02,45.98 -76.86,-65.67 91.27,-13.14 28.82,-62.4 115.29,-72.25 4.8,-114.94 -19.22,9.85 52.83,-19.71 -19.21,-62.39 -67.24,-36.12 -72.05,-98.51 9.61,0 48.04,0 72.05,22.98 57.65,59.11 -9.6,-29.55 19.22,36.13 0,6.57 0,13.13 4.8,16.42 38.43,98.52 105.68,68.96 163.32,82.1 -4.8,-3.29 -9.61,-3.29 -9.61,0 0,3.28 -9.6,3.28 -9.6,6.56 0,0 0,-32.84 -14.41,22.99 -9.61,62.4 38.42,111.66 81.65,91.95l86.47 -62.39 0 114.94c38.42,-3.29 110.48,0 120.08,3.28 -4.8,0 -9.6,0 -9.6,6.57 0,3.28 -4.81,6.56 -9.61,6.56 -33.62,26.28 -19.21,-3.28 -48.03,42.7 48.03,45.97 57.64,29.55 86.46,108.37 427.51,118.22 879.03,-108.37 1003.92,-128.08 120.09,-16.42 614.85,239.73 1027.95,144.5 105.67,-22.99 220.96,-52.55 331.44,-78.82 153.71,-36.12 182.53,-91.95 321.83,-45.97 168.12,52.54 494.76,134.64 672.49,141.21 182.53,3.28 547.59,-72.25 691.7,-134.65 72.05,-29.55 182.53,-118.22 249.78,-164.19 259.38,-187.19 350.65,-548.42 350.65,-886.67 264.19,-55.83 629.26,-407.21 730.13,-646.94l86.46 -321.83c19.22,-39.4 0,-13.13 28.82,-36.12 0,-193.75 -4.8,-298.84 -43.23,-456.47 -62.44,-266 -120.09,-512.29 -283.4,-735.6 -158.52,-210.18 -307.43,-374.37 -581.22,-440.05 -153.72,-36.13 -278.61,-85.39 -427.51,-49.26 -509.17,131.36 -336.25,-39.41 -883.84,-39.41l0 -646.94 -4.81 -246.29c494.76,72.24 562.01,197.03 1186.46,32.84 461.14,-118.23 586.03,-177.34 907.86,-430.2 182.53,-144.5 456.33,-499.16 576.42,-758.6 158.51,-344.81 254.58,-1004.88 283.4,-1050.86 0,-492.59 -4.8,-443.33 -96.07,-811.14 -100.87,-433.48 -187.33,-712.61 -480.35,-1070.56 -297.81,-361.24 -643.66,-617.39 -1099.99,-725.76 -91.27,-22.98 -177.73,-42.69 -254.59,-59.11 -91.26,-19.7 -153.71,-45.97 -249.78,-45.97 0,6.57 0,22.98 0,26.27 0,3.28 0,9.85 0,13.13 -9.6,26.28 -14.41,29.56 -19.21,32.84 -4.8,6.57 -67.25,39.41 -81.66,45.98 4.8,6.57 14.41,9.85 19.21,13.14 0,3.28 9.61,6.56 14.41,9.85l81.66 36.12c129.7,19.7 24.02,-6.57 120.09,-98.52 38.43,39.41 43.23,85.38 9.61,114.94 -4.81,3.28 -9.61,6.57 -14.41,9.85l-33.63 13.14c105.68,82.1 76.86,39.41 38.43,59.11 28.82,-13.14 -4.8,-36.12 24.02,3.28 -76.86,3.29 -100.88,0 -120.09,-42.69l-52.84 91.95c-4.8,3.29 -9.6,16.42 -14.41,13.14 0,-3.29 -4.8,9.85 -9.6,13.13 -52.84,-65.68 0,-3.28 -19.22,-62.39 -19.21,-52.54 -33.62,-85.38 -81.66,-75.53 -76.85,36.12 -9.6,-26.27 -43.23,45.97 -4.8,6.57 -9.61,39.41 -9.61,45.98 0,19.7 4.81,26.27 9.61,45.97 4.8,32.84 4.8,49.26 -28.82,65.68l-81.66 -6.57c38.43,72.25 4.8,13.14 9.61,55.83 4.8,68.97 -33.63,3.29 9.6,39.41 48.04,0 28.83,-13.14 72.06,-39.41l24.01 -13.13c0,3.28 0,6.56 0,9.85l38.43 124.79c-86.46,-16.42 -134.5,-26.27 -177.73,59.11l72.06 13.14c4.8,0 9.6,-3.29 14.41,-6.57l52.83 -32.84c4.81,-9.85 14.41,-9.85 19.22,-13.14 -52.84,36.13 -96.07,39.41 -129.7,91.95 -62.44,95.24 38.43,22.99 -76.85,88.67 182.53,-9.85 432.31,-6.57 619.65,29.55 -43.23,-65.67 72.05,59.12 -28.82,-22.98 -33.63,-29.56 -57.65,49.26 -28.82,-29.56 -129.7,-13.13 -38.43,3.29 -14.42,0l52.84 0 -48.03 -65.68c-9.61,-32.84 0,6.57 0,-39.4l4.8 -75.54c4.81,-9.85 0,-13.13 4.81,-16.42 57.64,128.08 19.21,105.09 129.69,121.51l33.62 3.28c4.81,0 38.43,16.42 43.23,-3.28 0,-3.28 9.61,-3.28 9.61,-3.28 -62.44,-78.82 -19.21,-59.11 -100.87,-65.68 -4.8,0 -33.63,3.28 -38.43,6.57l4.8 -91.95c-4.8,-105.09 -38.42,62.39 -4.8,-105.09l100.87 187.18c96.07,3.29 -4.8,13.14 33.63,-29.55 62.44,-68.96 -72.05,-3.29 62.44,-59.11l14.41 82.1c-4.8,101.8 -38.42,-42.7 33.63,114.93 -144.11,-55.82 -38.43,-9.85 -81.66,39.41 62.44,-6.57 -43.23,-45.97 91.27,19.71l86.46 -52.55c24.01,3.29 -24.02,0 52.84,13.14 -4.81,-9.85 -9.61,-16.42 -9.61,-22.99l-67.25 -160.91c-9.61,-45.98 9.61,-114.94 38.43,-151.07 0,19.71 -4.81,39.41 0,59.12 19.21,62.39 9.6,22.98 38.43,59.11 4.8,-3.29 14.41,-9.85 14.41,-13.14l62.44 -65.68c43.23,121.51 9.61,29.56 4.8,55.83 0,6.57 -24.01,59.11 -24.01,62.39 24.01,-9.85 38.43,-42.69 67.25,-45.97 67.24,-3.28 33.62,22.99 52.83,65.68 -91.26,6.57 -62.44,-16.42 -110.48,32.84l81.66 85.38 -76.85 62.4c-38.43,-55.83 28.82,-36.13 43.23,-85.39 4.8,-13.13 14.41,-9.85 19.21,-16.42 -4.8,0 -14.41,0 -24.01,0 -4.81,0 -14.41,0 -19.22,-3.28l-62.44 -13.14 24.01 49.26c14.41,75.53 -9.6,-3.28 -33.62,141.21l163.32 -32.84c0,0 9.6,0 9.6,0l100.88 -22.98 -19.22 95.23c0,6.57 -4.8,22.99 -4.8,19.7 0,-3.28 -4.8,13.14 -9.61,19.71 62.45,-6.57 81.66,-29.56 129.7,-22.99 4.8,0 19.21,6.57 19.21,3.28 4.8,-6.56 14.41,3.29 24.02,3.29l0 -78.82c4.8,-3.28 14.41,-3.28 19.21,-3.28l62.45 3.28c72.05,16.42 57.64,108.37 52.84,134.64 -4.81,0 -14.41,0 -14.41,0l-62.45 124.79c4.8,3.29 24.02,9.86 28.82,13.14 4.8,3.28 9.61,3.28 14.41,6.57l19.22 22.99c19.21,29.55 14.41,13.13 14.41,68.96 43.23,-36.12 67.24,-72.25 43.23,-124.79l9.6 -72.25c9.61,13.14 33.63,147.78 105.68,98.52 9.61,-3.28 43.23,-42.69 57.64,-59.11 -24.02,82.1 -43.23,68.96 -19.21,114.94 67.25,-19.71 19.21,0 52.84,-16.42l-14.41 -19.71 91.26 59.12 -67.25 39.4c62.45,-13.13 -33.62,-6.56 43.23,6.57l28.83 6.57c9.6,3.28 33.62,13.13 81.65,6.57 -4.8,6.56 -9.6,9.85 -14.41,16.42 -4.8,3.28 -14.41,9.85 -19.21,13.13l-52.84 59.11c110.48,-6.56 14.41,-6.56 62.45,3.29 100.87,26.27 -52.84,-55.83 24.01,26.27 -81.65,85.38 -33.62,-42.69 -57.64,118.22 67.25,-19.7 57.64,-39.41 124.89,-29.55 120.09,16.42 62.45,32.84 91.27,68.96 -9.61,0 -38.43,9.85 -43.23,9.85 -4.81,0 -9.61,0 -14.41,-3.28 -4.81,0 -9.61,0 -14.41,0l-67.25 -29.56c-81.66,-16.42 33.62,16.42 -96.07,16.42 -67.25,0 -33.63,49.26 -38.43,-32.84 -158.51,0 -9.61,19.7 -62.44,-78.81l-76.86 59.11c0,-3.29 4.8,-9.85 4.8,-9.85l14.41 -75.54c4.81,-6.56 4.81,-13.13 9.61,-16.42l48.04 -75.53 -105.68 16.42c-4.8,0 -9.61,0 -14.41,3.29l-24.02 13.13c-14.41,6.57 -28.82,32.84 -28.82,29.56 -4.8,-6.57 -9.61,9.85 -14.41,16.42 19.21,-75.53 4.8,-36.12 4.8,-88.67 0,0 -9.6,-52.54 -9.6,-68.96l-38.43 26.27c-62.45,32.84 14.41,29.56 -96.07,29.56 67.25,-59.11 38.43,-65.68 33.62,-95.24 -72.05,0 -81.65,26.27 -134.49,3.29l-139.3 -75.54c19.21,95.24 4.8,36.13 -19.22,151.07 100.88,-39.41 19.22,26.27 62.45,-55.83 38.43,-85.38 0,-39.41 -4.81,-52.54l57.65 98.51c4.8,3.29 14.41,16.42 19.21,22.99l-86.46 22.99zm-4371.16 -1395.68c148.9,-137.93 302.61,-689.63 744.53,-623.95l81.66 16.42c182.54,29.56 283.41,154.35 355.46,338.25 341.05,863.68 -557.2,1044.29 -451.53,614.1 38.43,-160.92 124.89,-292.28 19.22,-453.19 -105.68,9.85 -158.52,200.32 -187.34,279.14 -288.21,748.74 -1229.69,334.96 -1186.46,-403.93 28.82,-407.21 494.76,-384.22 566.81,-288.99 24.02,32.84 19.22,-39.4 14.41,72.25 0,36.12 -96.07,311.97 43.24,449.9zm-4140.6 909.66c43.23,6.56 4.8,0 28.82,13.13 0,0 4.81,3.29 9.61,6.57 4.8,0 9.61,3.28 9.61,6.57l86.46 36.12c62.44,13.14 0,-9.85 177.73,-16.42l-14.41 -32.84c-9.61,-13.13 -14.41,-26.27 -14.41,-29.55 33.62,82.09 -4.81,26.27 67.24,72.24l-14.41 -19.7c-19.21,3.28 4.81,36.12 -91.26,68.96 0,0 -9.61,3.29 -9.61,3.29 -4.8,0 -9.61,3.28 -14.41,6.56 -62.44,26.28 -38.43,32.84 -43.23,39.41l-81.66 59.11c9.61,3.29 19.21,-3.28 19.21,6.57 52.84,111.65 -9.6,-3.28 48.04,6.57 81.66,9.85 91.26,29.55 124.89,-45.98 -4.8,59.11 -4.8,85.39 -4.8,111.66 -52.84,6.56 -19.22,-22.99 -62.45,6.56 -9.61,6.57 9.61,-9.85 -24.02,26.28 -72.05,78.81 43.23,6.56 -19.21,26.27 -4.8,-131.36 -148.91,-91.95 -216.16,-118.22 0,9.85 4.81,9.85 9.61,22.98l67.25 95.24 -129.7 -26.27c4.81,-3.29 67.25,-45.98 33.63,-91.95 -33.63,-42.7 0,-6.57 -43.23,-36.13 -38.43,68.97 -43.23,6.57 -28.82,95.24 9.6,65.68 57.64,111.65 110.48,137.92 4.8,3.29 24.01,13.14 28.82,13.14 57.64,22.99 86.46,29.55 124.89,45.97 4.8,-6.56 4.8,-19.7 4.8,-16.42 4.8,3.29 4.8,-13.13 4.8,-16.42l-4.8 -65.67c28.82,9.85 -24.02,42.69 100.87,39.4 0,36.13 0,55.83 0,85.39l0 75.53c-4.8,0 -9.6,-6.57 -9.6,-3.29 -19.22,45.98 -9.61,-26.27 -76.86,6.57 -4.8,0 -33.62,19.7 -38.43,22.99l-57.64 49.26 52.84 22.99c43.23,19.7 19.21,-32.84 28.82,16.41 86.46,-36.12 24.02,19.71 62.45,-39.4 43.23,-72.25 -4.81,-32.84 -4.81,-32.84l19.22 52.54c4.8,-3.28 14.41,-19.7 19.21,-13.13 4.8,6.56 14.41,-9.86 19.21,-13.14 81.66,-36.12 0,-22.99 67.25,-13.14 86.47,16.42 -43.23,45.98 105.68,6.57 86.46,-36.12 158.51,-144.49 417.9,-243.01 220.96,-88.67 297.82,-78.82 489.96,-98.52l62.44 -16.42c38.43,-49.26 33.63,-137.92 48.04,-200.32 9.6,-62.4 33.62,-121.51 52.83,-183.9 91.27,-243.01 273.8,-410.5 499.57,-486.03 148.9,-52.54 249.78,-65.68 437.11,-39.4 43.23,49.26 9.61,39.4 52.84,39.4 57.64,0 38.43,-13.13 100.87,22.99 129.7,68.96 230.57,200.32 264.19,325.11 24.02,78.82 19.22,193.76 -9.6,262.72 -139.3,371.09 -629.26,213.46 -792.58,374.37 158.52,118.22 293.02,124.79 499.57,394.07 326.63,430.2 398.68,863.68 283.4,1421.95 -62.44,275.86 -134.5,413.78 -254.58,643.66l91.26 -6.57 -43.23 62.4c-9.61,13.13 -14.41,13.13 -24.02,26.27l-14.41 88.66c52.84,-39.4 52.84,0 134.5,-55.82l76.86 68.96c0,3.28 9.6,6.57 9.6,9.85 14.41,9.85 38.43,13.14 38.43,55.83l-86.46 19.7c0,0 4.8,6.57 9.61,9.85l14.41 13.14c4.8,0 9.6,3.28 14.41,6.57 24.01,19.7 33.62,16.42 48.03,59.11 19.21,68.96 52.84,62.39 -57.64,82.1 0,0 -9.61,0 -9.61,0 -4.8,0 -9.6,0 -14.41,0l-19.21 -3.29c-9.61,36.13 19.21,105.09 38.43,128.08 76.85,72.25 -19.22,13.13 48.03,3.28 43.23,-6.57 38.43,39.41 14.41,-141.21 216.16,59.11 144.11,78.82 115.28,177.34 4.81,-6.57 9.61,-22.99 14.41,-19.71 4.81,6.57 9.61,-26.27 57.65,-42.69 4.8,-3.28 9.6,-3.28 14.41,-3.28 67.25,-16.42 33.62,45.97 81.66,-39.41 -4.81,3.28 -48.04,19.7 -57.65,19.7 -4.8,0 -9.6,0 -19.21,-3.28l-52.84 -22.99c134.5,-13.13 110.48,-42.69 115.29,-124.79 -9.61,-3.28 -9.61,16.42 -62.45,-6.57l-14.41 -26.27c-4.8,-45.97 52.84,-45.97 91.27,-42.69l24.01 3.28c4.81,0 9.61,3.29 14.41,3.29 0,0 9.61,0 9.61,3.28l28.82 6.57c57.64,19.7 4.8,-16.42 86.46,32.84 -48.03,-128.07 -225.76,-236.45 -278.6,-637.09 -33.62,-262.71 -14.41,-571.4 115.29,-758.59 249.78,-361.23 547.59,-75.53 1306.54,-518.86 230.57,-134.65 312.23,-354.67 206.55,-604.25 -139.3,-315.26 -489.95,-101.8 -408.3,134.64 43.24,134.64 67.25,213.46 -28.82,334.96 -67.24,91.95 -144.1,151.07 -254.58,193.76 -480.35,174.05 -1181.65,-42.69 -840.61,-696.2 427.51,-824.27 2329.69,-922.79 2608.29,193.75 28.82,105.09 4.8,98.52 19.21,180.62 57.64,249.58 -57.64,863.68 100.88,1490.91 14.41,55.83 38.42,121.51 62.44,170.77l62.45 114.94c28.82,39.4 9.6,13.13 28.82,39.4l14.41 -62.39c28.82,-16.42 24.01,-39.41 43.23,-62.4 28.82,-32.83 52.84,-26.27 86.46,-65.67 33.63,187.18 -14.41,-65.68 -24.02,82.09 0,49.26 -86.46,6.57 57.65,65.68 -28.83,-111.65 -57.65,-78.81 19.21,-131.35 -76.86,-256.15 -96.07,-154.35 -177.73,-564.84 -192.14,-949.07 350.65,-2137.86 1508.29,-2078.75 129.7,6.57 422.71,72.25 552.4,137.93 254.58,124.79 326.64,252.87 437.12,315.26l86.46 -22.99c-4.8,-6.57 -14.41,-19.7 -19.21,-22.99l-57.65 -98.51c4.81,13.13 43.24,-32.84 4.81,52.54 -43.23,82.1 38.43,16.42 -62.45,55.83 24.02,-114.94 38.43,-55.83 19.22,-151.07l139.3 75.54c52.84,22.98 62.44,-3.29 134.49,-3.29 4.81,29.56 33.63,36.13 -33.62,95.24 110.48,0 33.62,3.28 96.07,-29.56l38.43 -26.27c0,16.42 9.6,68.96 9.6,68.96 0,52.55 14.41,13.14 -4.8,88.67 4.8,-6.57 9.61,-22.99 14.41,-16.42 0,3.28 14.41,-22.99 28.82,-29.56l24.02 -13.13c4.8,-3.29 9.61,-3.29 14.41,-3.29l105.68 -16.42 -48.04 75.53c-4.8,3.29 -4.8,9.86 -9.61,16.42l-14.41 75.54c0,0 -4.8,6.56 -4.8,9.85l76.86 -59.11c52.83,98.51 -96.07,78.81 62.44,78.81 4.8,82.1 -28.82,32.84 38.43,32.84 129.69,0 14.41,-32.84 96.07,-16.42l67.25 29.56c4.8,0 9.6,0 14.41,0 4.8,3.28 9.6,3.28 14.41,3.28 4.8,0 33.62,-9.85 43.23,-9.85 -28.82,-36.12 28.82,-52.54 -91.27,-68.96 -67.25,-9.86 -57.64,9.85 -124.89,29.55 24.02,-160.91 -24.01,-32.84 57.64,-118.22 -76.85,-82.1 76.86,0 -24.01,-26.27 -48.04,-9.85 48.03,-9.85 -62.45,-3.29l52.84 -59.11c4.8,-3.28 14.41,-9.85 19.21,-13.13 4.81,-6.57 9.61,-9.86 14.41,-16.42 -48.03,6.56 -72.05,-3.29 -81.65,-6.57l-28.83 -6.57c-76.85,-13.13 19.22,-19.7 -43.23,-6.57l67.25 -39.4 -91.26 -59.12 14.41 19.71c-33.63,16.42 14.41,-3.29 -52.84,16.42 -24.02,-45.98 -4.81,-32.84 19.21,-114.94 -14.41,16.42 -48.03,55.83 -57.64,59.11 -72.05,49.26 -96.07,-85.38 -105.68,-98.52l-9.6 72.25c24.01,52.54 0,88.67 -43.23,124.79 0,-55.83 4.8,-39.41 -14.41,-68.96l-19.22 -22.99c-4.8,-3.29 -9.61,-3.29 -14.41,-6.57 -4.8,-3.28 -24.02,-9.85 -28.82,-13.14l62.45 -124.79c0,0 9.6,0 14.41,0 4.8,-26.27 19.21,-118.22 -52.84,-134.64l-62.45 -3.28c-4.8,0 -14.41,0 -19.21,3.28l0 78.82c-9.61,0 -19.22,-9.85 -24.02,-3.29 0,3.29 -14.41,-3.28 -19.21,-3.28 -48.04,-6.57 -67.25,16.42 -129.7,22.99 4.81,-6.57 9.61,-22.99 9.61,-19.71 0,3.29 4.8,-13.13 4.8,-19.7l19.22 -95.23 -100.88 22.98c0,0 -9.6,0 -9.6,0l-163.32 32.84c24.02,-144.49 48.03,-65.68 33.62,-141.21l-24.01 -49.26 62.44 13.14c4.81,3.28 14.41,3.28 19.22,3.28 9.6,0 19.21,0 24.01,0 -4.8,6.57 -14.41,3.29 -19.21,16.42 -14.41,49.26 -81.66,29.56 -43.23,85.39l76.85 -62.4 -81.66 -85.38c48.04,-49.26 19.22,-26.27 110.48,-32.84 -19.21,-42.69 14.41,-68.96 -52.83,-65.68 -28.82,3.28 -43.24,36.12 -67.25,45.97 0,-3.28 24.01,-55.82 24.01,-62.39 4.81,-26.27 38.43,65.68 -4.8,-55.83l-62.44 65.68c0,3.29 -9.61,9.85 -14.41,13.14 -28.83,-36.13 -19.22,3.28 -38.43,-59.11 -4.81,-19.71 0,-39.41 0,-59.12 -28.82,36.13 -48.04,105.09 -38.43,151.07l67.25 160.91c0,6.57 4.8,13.14 9.61,22.99 -76.86,-13.14 -28.83,-9.85 -52.84,-13.14l-86.46 52.55c-134.5,-65.68 -28.83,-26.28 -91.27,-19.71 43.23,-49.26 -62.45,-95.23 81.66,-39.41 -72.05,-157.63 -38.43,-13.13 -33.63,-114.93l-14.41 -82.1c-134.49,55.82 0,-9.85 -62.44,59.11 -38.43,42.69 62.44,32.84 -33.63,29.55l-100.87 -187.18c-33.62,167.48 0,0 4.8,105.09l-4.8 91.95c4.8,-3.29 33.63,-6.57 38.43,-6.57 81.66,6.57 38.43,-13.14 100.87,65.68 0,0 -9.61,0 -9.61,3.28 -4.8,19.7 -38.42,3.28 -43.23,3.28l-33.62 -3.28c-110.48,-16.42 -72.05,6.57 -129.69,-121.51 -4.81,3.29 0,6.57 -4.81,16.42l-4.8 75.54c0,45.97 -9.61,6.56 0,39.4l48.03 65.68 -52.84 0c-24.01,3.29 -115.28,-13.13 14.42,0 -28.83,78.82 -4.81,0 28.82,29.56 100.87,82.1 -14.41,-42.69 28.82,22.98 -187.34,-36.12 -437.12,-39.4 -619.65,-29.55 115.28,-65.68 14.41,6.57 76.85,-88.67 33.63,-52.54 76.86,-55.82 129.7,-91.95 -4.81,3.29 -14.41,3.29 -19.22,13.14l-52.83 32.84c-4.81,3.28 -9.61,6.57 -14.41,6.57l-72.06 -13.14c43.23,-85.38 91.27,-75.53 177.73,-59.11l-38.43 -124.79c0,-3.29 0,-6.57 0,-9.85l-24.01 13.13c-43.23,26.27 -24.02,39.41 -72.06,39.41 -43.23,-36.12 -4.8,29.56 -9.6,-39.41 -4.81,-42.69 28.82,16.42 -9.61,-55.83l81.66 6.57c33.62,-16.42 33.62,-32.84 28.82,-65.68 -4.8,-19.7 -9.61,-26.27 -9.61,-45.97 0,-6.57 4.81,-39.41 9.61,-45.98 33.63,-72.24 -33.62,-9.85 43.23,-45.97 48.04,-9.85 62.45,22.99 81.66,75.53 19.22,59.11 -33.62,-3.29 19.22,62.39 4.8,-3.28 9.6,-16.42 9.6,-13.13 4.81,3.28 9.61,-9.85 14.41,-13.14l52.84 -91.95c19.21,42.69 43.23,45.98 120.09,42.69 -28.82,-39.4 4.8,-16.42 -24.02,-3.28 38.43,-19.7 67.25,22.99 -38.43,-59.11l33.63 -13.14c4.8,-3.28 9.6,-6.57 14.41,-9.85 33.62,-29.56 28.82,-75.53 -9.61,-114.94 -96.07,91.95 9.61,118.22 -120.09,98.52l-81.66 -36.12c-4.8,-3.29 -14.41,-6.57 -14.41,-9.85 -4.8,-3.29 -14.41,-6.57 -19.21,-13.14 14.41,-6.57 76.86,-39.41 81.66,-45.98 4.8,-3.28 9.61,-6.56 19.21,-32.84 0,-3.28 0,-9.85 0,-13.13 0,-3.29 0,-19.7 0,-26.27 -259.38,0 -187.33,-16.42 -422.7,32.84 -139.3,26.27 -220.96,42.69 -355.46,75.53 -413.1,101.8 -509.17,236.44 -614.84,266 48.03,-220.03 43.23,-495.88 -14.41,-712.62 -105.68,-397.36 -144.11,-558.27 -393.89,-843.98 -62.45,-72.24 -144.1,-128.07 -230.57,-183.9 -120.08,-78.81 -120.08,-88.66 -278.6,-131.35l-341.04 -72.25c-196.95,-6.57 -326.64,26.27 -523.58,85.38 -172.93,52.54 -168.13,26.27 -331.44,-13.13 -216.16,-55.83 -682.1,55.82 -840.61,174.04 -163.32,121.51 -302.62,239.73 -398.69,426.92 -33.62,59.11 -81.66,246.29 -86.46,328.39 -446.73,-105.08 -408.3,-131.35 -874.23,-13.13 -148.91,39.41 -264.2,45.97 -398.69,134.64 -355.46,233.16 -513.97,371.09 -701.31,771.73 -52.84,118.22 -19.21,36.12 -264.19,124.79 -72.05,22.99 -124.89,52.54 -187.34,88.67l-254.58 160.91c-72.05,49.26 -38.43,9.85 -67.25,88.67zm845.41 6104.86c293.01,206.89 139.3,755.31 230.57,1336.57 24.02,151.06 129.69,275.85 124.89,390.79 -67.25,128.07 -307.42,233.16 -480.35,275.85 -408.29,95.24 -398.69,-167.48 -432.31,-246.3 -129.69,95.24 -134.5,167.49 -336.24,236.45 -773.36,266 -1066.38,-1086.99 -461.14,-1201.93 196.94,-39.4 288.21,-39.4 475.55,-118.22 744.53,-305.41 100.87,-843.98 38.42,-469.6 -14.41,98.51 38.43,75.53 33.63,187.18 -19.22,256.15 -480.35,331.68 -691.7,223.31 -153.71,-78.82 -158.52,-177.33 -144.11,-357.95 -81.65,22.99 -19.21,32.84 -67.24,0 0,-72.25 9.6,-68.96 9.6,-118.22 -4.8,3.28 -9.6,9.85 -14.41,13.13l-86.46 170.77c-38.43,55.82 -76.86,101.8 -110.48,141.21 -360.26,384.22 -730.13,331.68 -1176.85,361.23 -19.22,551.71 288.21,1024.59 -81.66,1152.67 -172.93,62.39 -470.74,49.26 -624.45,-29.56 -302.62,-151.06 -134.5,-374.37 -124.89,-482.74 -28.82,-101.8 -24.02,-68.96 -81.66,-111.65 -57.64,-42.69 28.82,36.12 -28.82,-42.69 -4.81,-3.29 -4.81,-9.86 -9.61,-13.14l-48.03 -39.41c-4.81,22.99 -14.41,52.55 0,95.24l-134.5 -32.84c-9.61,68.96 0,22.99 14.41,45.97 0,0 4.8,6.57 4.8,9.86 14.41,22.98 43.23,6.56 -4.8,26.27 0,0 -4.8,0 -4.8,0 -4.81,3.28 -9.61,3.28 -9.61,6.57 -57.64,49.25 14.41,-49.26 -19.22,29.55l0 36.12c4.81,0 14.41,0 19.22,0l28.82 0c4.8,-3.28 9.61,-6.56 14.41,-6.56 33.62,-19.71 14.41,-13.14 24.02,-45.98l28.82 29.56c0,3.28 4.8,6.56 9.6,9.85 9.61,6.57 48.04,22.99 57.65,26.27 96.07,39.41 -28.82,-9.85 52.83,13.14 -9.6,49.26 -4.8,19.7 -19.21,32.84 -43.23,52.54 -129.69,-6.57 -177.73,-32.84 -57.64,-26.28 -76.85,6.56 -81.66,-19.71 -62.44,-39.41 -38.42,-42.69 -38.42,-124.79 -86.47,-13.13 -62.45,-13.13 -134.5,13.14 0,0 -9.61,9.85 -9.61,6.57 -4.8,-3.29 -9.61,3.28 -9.61,6.56l0 -55.82 168.13 39.4c43.23,16.42 -43.24,6.57 57.64,16.42 19.21,-62.39 9.6,-16.42 9.6,-68.96 4.81,-88.67 19.22,0 -14.41,-59.11 0,0 0,-3.28 0,-3.28l-4.8 6.56c0,-68.96 52.84,3.29 91.27,19.71l24.01 3.28c100.88,9.85 76.86,-16.42 81.66,-19.7 28.82,-19.71 0,0 33.63,-32.84l-158.52 -114.94c0,-9.85 -9.6,-9.85 -14.41,-13.14l-19.21 82.1 -57.64 -95.23c-38.43,-45.98 -96.07,-39.41 -158.52,-45.98l67.25 82.1c0,-3.28 9.61,3.29 14.41,9.85l-100.87 -13.13c4.8,6.57 9.61,13.13 19.21,16.42 4.81,6.57 9.61,13.13 14.41,16.42l57.64 16.42 -38.42 65.68c-9.61,75.53 72.05,32.84 72.05,-95.24l24.02 22.99c4.8,3.28 9.6,9.85 9.6,13.13 4.81,0 19.22,16.42 24.02,19.71 -57.64,32.84 -81.66,82.1 -120.09,124.79 -14.41,-29.56 -9.6,-22.99 -33.62,-39.41 -28.82,-22.99 -67.25,-32.84 -134.5,-26.27l24.02 78.81c0,3.29 0,6.57 0,9.86l38.43 72.24c-24.02,-22.98 -48.04,-62.39 -96.07,-91.95 -62.45,167.48 38.43,19.71 52.84,157.63 9.6,88.67 -19.22,68.97 -52.84,59.11l0 85.39c-9.61,65.68 4.8,29.55 33.62,101.8 -52.84,45.97 57.64,-22.99 -52.84,0 38.43,75.53 24.02,9.85 28.82,78.81 4.81,118.23 4.81,-16.42 -14.41,68.97 -14.41,88.66 -9.6,55.82 9.61,128.07 9.61,52.54 -14.41,98.52 -4.8,252.86 24.01,141.21 326.63,361.24 446.72,420.35 379.48,187.19 1104.8,213.46 1460.26,-42.69 192.14,-137.93 254.58,-177.33 379.47,-403.93l52.84 -75.53c201.75,193.76 201.75,466.32 931.87,640.37 432.32,101.81 465.94,-52.54 696.51,-32.84 345.85,29.56 235.37,174.05 999.12,-75.53 158.51,-52.54 513.97,160.92 1023.14,147.78 211.35,-3.28 461.13,-72.25 662.88,-128.07 293.01,-85.39 38.43,-6.57 634.06,91.95 -28.82,-78.82 -38.43,-62.4 -86.46,-108.37 28.82,-45.98 14.41,-16.42 48.03,-42.7 4.8,0 9.61,-3.28 9.61,-6.56 0,-6.57 4.8,-6.57 9.6,-6.57 -9.6,-3.28 -81.66,-6.57 -120.08,-3.28l0 -114.94 -86.47 62.39c-43.23,19.71 -91.26,-29.55 -81.65,-91.95 14.41,-55.83 14.41,-22.99 14.41,-22.99 0,-3.28 9.6,-3.28 9.6,-6.56 0,-3.29 4.81,-3.29 9.61,0 -57.64,-13.14 -124.89,16.42 -163.32,-82.1 -4.8,-3.29 -4.8,-9.85 -4.8,-16.42 -28.82,-65.68 38.43,22.98 -19.22,-36.13 -24.01,-22.98 -62.44,-22.98 -72.05,-22.98 4.81,62.39 52.84,36.12 72.05,98.51 -72.05,29.56 -48.03,-95.23 -52.83,19.71 -86.47,9.85 -24.02,59.11 -115.29,72.25 100.88,111.65 48.04,75.53 76.86,65.67 -28.82,62.4 -4.81,52.55 -67.25,52.55l-24.02 -6.57c-33.62,-6.57 -24.02,45.97 -48.03,-6.57 0,-6.57 -9.61,0 -14.41,0 0,-6.57 0,-13.13 0,-16.42 0,-3.28 0,-9.85 0,-13.13 4.8,-3.29 4.8,-13.14 4.8,-16.42 0,-3.29 4.8,-13.14 4.8,-16.42l-110.48 -55.83c28.82,-170.77 14.41,0 38.43,-101.8l14.41 -72.25c9.61,-13.14 19.22,-26.27 48.04,-39.41 -115.29,-13.13 -72.06,-16.42 -91.27,29.56l-9.61 26.27c-4.8,-29.56 -9.6,-22.99 -43.23,-19.7l-28.82 6.56c-4.8,0 -9.6,0 -14.41,0 0,0 -9.61,0 -9.61,0 -52.83,0 -48.03,13.14 -62.44,-45.97l-24.02 39.41c-86.46,85.38 38.43,-3.29 -72.05,39.4l9.61 -45.97c14.41,-59.11 24.01,-88.67 -4.81,-141.21 -28.82,-45.98 -4.8,-16.42 -38.42,-49.26l0 78.81c-19.22,-39.4 -4.81,-16.42 -24.02,-39.4l-43.23 -32.84c-4.81,-9.85 -9.61,-9.85 -19.22,-13.14l43.23 164.2c0,0 -24.01,13.13 -43.23,19.7l-57.64 19.71 -19.21 -55.83c-4.81,-3.29 4.8,-36.12 9.6,-42.69 -48.03,-3.29 -91.26,6.57 -124.89,-19.71l105.68 -32.84c4.8,0 9.61,-3.28 9.61,-3.28 67.25,-32.84 -28.82,-32.84 67.25,-39.41 -148.91,-29.55 19.21,3.29 -76.86,0l-28.82 0c-67.25,-19.7 -24.02,0 -57.64,-42.69 105.67,0 220.96,29.56 273.8,-52.54 -518.78,42.69 -1205.68,-19.71 -1200.87,-554.99 0,-288.99 196.94,-417.06 494.76,-351.38l124.89 45.97c336.24,141.21 240.17,252.87 211.35,400.65 115.28,-19.71 278.6,-213.46 244.98,-341.54 -72.06,-269.28 -1042.36,-3.28 -1023.14,-755.3 9.6,-354.67 220.96,-440.05 268.99,-551.71 -28.82,13.14 -76.86,29.56 -100.87,39.41l38.43 -55.83c33.62,-26.27 43.23,-13.13 76.85,-22.99 -48.03,-105.08 24.02,-6.56 -38.43,-45.97 -38.42,-26.27 -76.85,39.41 -100.87,65.68l-9.61 -39.41c-33.62,-52.54 -33.62,-42.69 -67.25,-42.69 33.63,49.26 14.41,29.55 19.22,101.8 -62.45,-19.7 -48.04,-22.99 -81.66,-42.69 -38.43,-22.99 -14.41,-36.12 -57.64,62.4 -4.81,-3.29 -28.82,-19.71 -33.63,-22.99l-100.87 -59.11c-67.25,-49.26 0,-32.84 -38.43,-36.13l9.61 78.82c38.43,22.99 100.87,29.55 105.68,65.68 0,72.24 81.65,6.57 -33.63,36.12 -4.8,3.28 -9.61,3.28 -19.21,3.28 -124.89,6.57 57.64,0 -81.66,-26.27l-76.86 13.14c-110.48,-49.26 -81.66,-13.14 -81.66,-13.14 -4.8,0 -19.21,3.29 -19.21,3.29l-38.43 36.12zm-7877.7 -4144.35c115.29,200.33 62.45,1428.52 1119.21,2065.61 182.54,108.37 369.87,141.21 595.63,190.47 235.38,52.54 465.94,-19.71 677.29,-78.82 312.23,-88.66 456.33,200.32 1032.75,62.4l317.03 -101.8c-86.46,-6.57 -9.61,-26.28 -124.89,22.98 0,-95.23 9.61,22.99 -120.09,13.14 -28.82,0 -86.46,26.27 -81.66,-78.82 0,-3.28 4.81,-9.85 4.81,-13.13 0,-3.28 0,-9.85 4.8,-13.14l-4.8 -160.91c182.53,22.99 62.44,-39.41 134.5,-29.56l-96.07 29.56c0,-3.28 -48.04,-13.14 4.8,-95.23 -38.43,82.09 -4.8,98.51 -86.46,114.93 33.62,16.42 110.48,193.76 -96.07,213.46l-19.22 -45.98c0,-6.56 0,-13.13 -4.8,-16.41 -19.21,-101.81 19.21,-147.78 9.61,-210.18l-14.41 -269.28c72.05,16.42 43.23,9.85 96.07,-6.57 0,0 67.24,52.54 -38.43,-3.28l-14.41 -78.82c24.02,-85.38 124.89,-13.13 163.32,3.29 -52.84,157.63 -62.45,62.39 -67.25,59.11 52.84,-3.29 91.26,-16.42 124.89,-39.41 -24.02,19.7 -57.64,-16.42 -57.64,-16.42 -43.24,-39.41 38.42,-45.98 -19.22,-22.99l67.25 -85.38c-163.32,22.99 -513.97,131.36 -634.06,-3.28 -76.85,-3.29 -144.1,-65.68 -187.33,-118.23 -67.25,-75.53 -67.25,-128.07 -110.48,-216.74 -57.64,22.99 -269,325.11 -557.21,380.94 -307.42,62.4 -552.4,-101.8 -691.7,-239.73 -835.8,-820.99 -638.86,-3142.74 600.44,-3146.02 393.88,0 581.22,285.7 648.47,325.11 67.25,-748.74 -379.48,-820.99 -254.59,-1119.83 105.68,-256.15 730.13,-522.15 912.66,-486.02 4.81,-3.29 14.41,-13.14 14.41,-6.57l67.25 -22.99c38.43,-6.57 62.45,-6.57 105.68,-6.57 -43.23,-32.84 -139.3,-26.27 -139.3,-26.27l-24.02 -315.26c0,-3.28 0,-9.85 0,-13.13l28.82 -62.4c0,0 4.8,3.28 4.8,3.28l9.61 -6.56c-48.03,-39.41 -9.61,-6.57 -19.21,-75.53 9.6,0 19.21,0 19.21,6.56 4.8,9.86 28.82,13.14 33.63,13.14 76.85,16.42 -43.24,36.12 48.03,-19.7l62.45 -52.55c4.8,-3.28 9.6,-9.85 14.41,-9.85 52.83,-49.26 28.82,9.85 67.24,-75.53 0,0 -14.41,0 -43.23,-13.14l-4.8 -6.56c-72.05,-16.42 -9.61,-22.99 -4.8,13.13 4.8,6.57 9.6,29.56 9.6,36.13l14.41 45.97c-148.9,-6.57 -72.05,26.27 -115.28,-55.83l9.61 45.98c-9.61,32.84 -115.29,78.81 -148.91,88.67l19.21 -124.79c24.02,-88.67 48.04,19.7 0,-108.37 28.82,-19.71 57.65,-16.42 76.86,-59.12l-19.21 -39.4c-120.09,0 -610.05,124.79 -734.94,167.48 -120.08,42.69 -201.74,85.38 -312.22,137.92l-278.6 190.47c-230.57,187.19 -408.3,384.23 -461.14,679.78 -67.25,344.82 -62.44,154.35 -379.47,328.4 -100.87,55.82 -182.53,111.65 -273.8,177.33 -52.84,39.41 -86.46,68.96 -129.69,105.09 -105.68,78.81 -249.78,279.13 -307.43,377.65 -148.9,243.01 -211.35,321.83 -288.2,637.09l-134.5 574.69c-4.8,88.67 -19.22,124.79 -19.22,216.74 0,154.34 0,311.97 0,469.6zm3319.21 -4062.24l19.21 39.4c-19.21,42.7 -48.04,39.41 -76.86,59.12 48.04,128.07 24.02,19.7 0,108.37l-19.21 124.79c33.62,-9.86 139.3,-55.83 148.91,-88.67l-9.61 -45.98c43.23,82.1 -33.62,49.26 115.28,55.83l-14.41 -45.97c0,-6.57 -4.8,-29.56 -9.6,-36.13 -4.81,-36.12 -67.25,-29.55 4.8,-13.13l4.8 6.56c28.82,13.14 43.23,13.14 43.23,13.14 -38.42,85.38 -14.41,26.27 -67.24,75.53 -4.81,0 -9.61,6.57 -14.41,9.85l-62.45 52.55c-91.27,55.82 28.82,36.12 -48.03,19.7 -4.81,0 -28.83,-3.28 -33.63,-13.14 0,-6.56 -9.61,-6.56 -19.21,-6.56 9.6,68.96 -28.82,36.12 19.21,75.53l-9.61 6.56c0,0 -4.8,-3.28 -4.8,-3.28l-28.82 62.4c0,3.28 0,9.85 0,13.13l24.02 315.26c0,0 96.07,-6.57 139.3,26.27 360.26,-22.99 278.6,118.22 264.19,387.51l-48.04 998.32c-4.8,561.56 -19.21,2029.48 72.06,2420.27 67.25,302.13 211.35,400.64 172.92,538.57 -43.23,160.91 -268.99,246.3 -360.26,302.12l-14.41 13.14 -67.25 85.38c57.64,-22.99 -24.02,-16.42 19.22,22.99 0,0 33.62,36.12 57.64,16.42 -33.63,22.99 -72.05,36.12 -124.89,39.41 4.8,3.28 14.41,98.52 67.25,-59.11 -38.43,-16.42 -139.3,-88.67 -163.32,-3.29l14.41 78.82c105.67,55.82 38.43,3.28 38.43,3.28 -52.84,16.42 -24.02,22.99 -96.07,6.57l14.41 269.28c9.6,62.4 -28.82,108.37 -9.61,210.18 4.8,3.28 4.8,9.85 4.8,16.41l19.22 45.98c206.55,-19.7 129.69,-197.04 96.07,-213.46 81.66,-16.42 48.03,-32.84 86.46,-114.93 -52.84,82.09 -4.8,91.95 -4.8,95.23l96.07 -29.56c-72.06,-9.85 48.03,52.55 -134.5,29.56l4.8 160.91c-4.8,3.29 -4.8,9.86 -4.8,13.14 0,3.28 -4.81,9.85 -4.81,13.13 -4.8,105.09 52.84,78.82 81.66,78.82 129.7,9.85 120.09,-108.37 120.09,-13.14 115.28,-49.26 38.43,-29.55 124.89,-22.98 120.09,32.84 336.24,-121.51 422.71,-180.62 158.51,39.41 264.19,164.2 509.16,193.75 -24.01,-105.08 -24.01,-105.08 19.22,-203.6 163.32,29.55 19.21,9.85 120.09,52.54 33.62,16.42 48.03,3.28 62.44,-16.42 -33.62,-52.54 -4.8,-16.42 -81.66,-19.7 4.81,-3.29 9.61,-13.14 14.41,-16.42l52.84 -78.82c-38.43,26.27 -48.03,-9.85 -76.86,-36.12 -19.21,68.96 14.42,49.26 -91.26,52.54l100.87 65.68c4.81,-3.28 14.41,6.57 14.41,13.14l-158.51 -42.69c-4.81,0 -38.43,-6.57 -48.04,-6.57 33.63,72.24 52.84,26.27 28.82,114.94 -24.01,85.38 -38.42,55.82 -52.83,65.67 -72.06,-55.82 -57.65,-16.41 -4.81,-98.51 0,6.56 0,19.7 -24.02,22.98 -100.87,22.99 86.47,39.41 -19.21,0 -4.8,0 -48.03,-52.54 -48.03,-55.82 0,9.85 9.6,42.69 9.6,49.26 0,39.4 4.81,6.56 -14.41,32.84 -52.84,-19.71 -48.03,-32.84 -67.25,-78.82 52.84,-29.55 28.82,-9.85 67.25,-22.99l52.84 -16.42 -57.64 -42.69c-4.8,3.29 -9.61,6.57 -14.41,9.85l-24.02 22.99c0,6.57 -4.8,9.85 -9.61,13.14l-24.01 29.55c-163.32,-141.21 -24.02,62.4 -163.32,-59.11 139.3,22.99 19.21,0 76.85,-6.57 28.83,-3.28 -4.8,-16.42 43.24,-6.56l-38.43 -55.83c-28.82,-55.83 -19.22,-160.91 62.44,-105.09 0,0 4.81,-32.84 0,-52.54l-38.42 -118.22 129.69 -19.71c-43.23,-26.27 -76.86,-13.13 -129.69,16.42 14.41,-36.12 9.6,-98.52 28.82,-128.07 33.62,-42.69 120.08,-9.85 187.33,-9.85 -38.43,65.68 48.04,49.26 -81.66,75.53 91.27,22.99 76.86,6.57 91.27,82.1 -4.8,3.28 -14.41,3.28 -14.41,3.28l-67.25 19.7c-24.02,0 -19.21,-19.7 -24.02,-36.12l-38.43 52.54 76.86 39.41c-67.25,-6.57 -67.25,22.99 -67.25,22.99 0,-6.57 -4.8,6.57 -4.8,9.85 19.21,22.99 57.64,6.57 96.07,32.84 -91.27,72.25 -4.81,29.56 -105.68,36.12l81.66 78.82 19.21 -82.1 134.5 19.7c-24.02,141.21 4.8,13.14 -38.43,128.08l96.07 -45.98c0,-6.57 9.61,-3.28 14.41,-3.28 -72.05,-45.98 -81.66,-62.4 -72.05,-144.5 -28.82,-9.85 -52.84,-19.7 -72.05,-26.27 -28.82,-13.13 0,16.42 -48.04,-26.27 57.65,-75.53 52.84,-108.37 153.72,-105.08l-28.83 -59.12c-19.21,-39.4 -67.24,-82.09 -9.6,-134.64 57.64,-49.26 14.41,-42.69 105.67,-19.7 -264.19,-137.93 -235.37,-105.09 -437.11,-305.41 -283.41,-272.57 -427.51,-732.32 -446.73,-1142.81 -81.65,-1766.77 1609.17,-2259.36 2454.58,-1415.39 196.94,200.32 331.44,430.2 417.9,738.89 134.5,479.46 52.84,676.5 28.82,1067.29 76.86,-22.99 43.23,0 91.27,-6.57 0,0 4.8,0 9.61,0 0,0 4.8,-3.29 9.6,-3.29l28.82 -3.28c72.06,-3.28 4.81,26.27 67.25,-3.28 62.45,-26.28 19.22,19.7 19.22,-22.99 24.01,-26.27 -33.63,-13.14 67.25,-32.84 -72.06,-282.42 -67.25,-604.25 19.21,-876.82 129.69,-420.34 302.62,-505.72 374.67,-633.8 -148.91,39.41 -19.21,9.85 -105.68,-6.57 -67.25,-9.85 14.41,-22.98 -67.25,13.14 -4.8,3.28 -14.41,19.7 -19.21,13.14 -4.8,-6.57 -14.41,9.85 -19.21,13.13l-19.22 -52.54c0,0 48.04,-39.41 4.81,32.84 -38.43,59.11 24.01,3.28 -62.45,39.4 -9.61,-49.25 14.41,3.29 -28.82,-16.41l-52.84 -22.99 57.64 -49.26c4.81,-3.29 33.63,-22.99 38.43,-22.99 67.25,-32.84 57.64,39.41 76.86,-6.57 0,-3.28 4.8,3.29 9.6,3.29l0 -75.53c0,-29.56 0,-49.26 0,-85.39 -124.89,3.29 -72.05,-29.55 -100.87,-39.4l4.8 65.67c0,3.29 0,19.71 -4.8,16.42 0,-3.28 0,9.86 -4.8,16.42 -38.43,-16.42 -67.25,-22.98 -124.89,-45.97 -4.81,0 -24.02,-9.85 -28.82,-13.14 -52.84,-26.27 -100.88,-72.24 -110.48,-137.92 -14.41,-88.67 -9.61,-26.27 28.82,-95.24 43.23,29.56 9.6,-6.57 43.23,36.13 33.62,45.97 -28.82,88.66 -33.63,91.95l129.7 26.27 -67.25 -95.24c-4.8,-13.13 -9.61,-13.13 -9.61,-22.98 67.25,26.27 211.36,-13.14 216.16,118.22 62.44,-19.71 -52.84,52.54 19.21,-26.27 33.63,-36.13 14.41,-19.71 24.02,-26.28 43.23,-29.55 9.61,0 62.45,-6.56 0,-26.27 0,-52.55 4.8,-111.66 -33.63,75.53 -43.23,55.83 -124.89,45.98 -57.64,-9.85 4.8,105.08 -48.04,-6.57 0,-9.85 -9.6,-3.28 -19.21,-6.57l81.66 -59.11c4.8,-6.57 -19.21,-13.13 43.23,-39.41 4.8,-3.28 9.61,-6.56 14.41,-6.56 0,0 9.61,-3.29 9.61,-3.29 96.07,-32.84 72.05,-65.68 91.26,-68.96l14.41 19.7c-72.05,-45.97 -33.62,9.85 -67.24,-72.24 0,3.28 4.8,16.42 14.41,29.55l14.41 32.84c-177.73,6.57 -115.29,29.56 -177.73,16.42l-86.46 -36.12c0,-3.29 -4.81,-6.57 -9.61,-6.57 -4.8,-3.28 -9.61,-6.57 -9.61,-6.57 -24.02,-13.13 14.41,-6.57 -28.82,-13.13 -139.3,-187.19 -278.6,-292.28 -465.94,-420.35 -115.28,-82.1 -293.01,-180.62 -427.51,-220.03 -62.44,-16.41 -129.69,-32.83 -172.92,-42.69 -782.97,-187.18 -773.36,-108.37 -1465.06,52.55 0,-400.65 115.28,-282.42 -52.84,-889.95 -19.21,-68.97 -24.02,-68.97 -62.44,-118.23 -28.82,-39.4 -43.23,-59.11 -72.06,-101.8 -14.41,-22.99 -19.21,-26.27 -33.62,-45.97l-139.3 -114.94c-91.27,-62.4 -105.68,-95.24 -230.57,-124.79 -153.71,-36.13 -417.9,-128.08 -590.82,-75.53zm2867.67 6177.11c48.03,22.99 33.62,-32.84 28.82,72.25 -19.21,302.12 -19.21,45.97 4.8,334.96l-48.03 -45.98c-81.66,-16.42 -134.5,-55.82 -201.75,-88.66 -81.66,-13.14 -326.63,-52.55 -384.27,-118.23l562 -131.35c67.25,-32.84 19.22,-9.86 52.84,-36.13l-110.48 -9.85 -48.03 -98.52c0,-6.57 -9.61,-3.28 -9.61,-9.85l72.05 -154.35c-67.25,-26.27 -38.43,13.14 -43.23,-98.51l-33.63 85.38c-163.31,-55.83 -33.62,-42.69 -177.72,-19.7l24.01 -45.98c-28.82,22.99 -48.03,19.7 0,19.7 14.41,78.82 19.22,22.99 96.07,78.82 -124.89,131.36 -100.87,3.28 -182.53,95.23 -57.64,62.4 -33.62,91.95 -48.03,52.55 0,-3.29 0,6.56 -4.81,6.56 -81.66,-9.85 -67.25,-22.98 -153.71,-59.11 28.82,39.41 24.02,42.69 -4.8,75.53 0,3.29 -4.81,6.57 -9.61,6.57 -100.87,111.66 -19.21,-3.28 -43.23,78.82l-24.02 95.23c-86.46,-22.99 -43.23,26.27 -72.05,-68.96l-14.41 36.12c-48.03,75.53 24.02,6.57 -52.84,52.55l-57.64 -78.82c-76.86,-72.25 62.45,65.68 -33.62,-29.56 -91.27,-88.66 14.41,52.55 -24.02,-29.55 9.61,-6.57 24.02,-36.12 86.46,-13.14 19.21,6.57 28.82,39.41 33.63,45.98 -9.61,-95.24 -72.06,-72.25 -148.91,-141.21l-14.41 62.39c-96.07,-6.56 -24.02,-6.56 -86.47,6.57 -9.6,3.29 -28.82,19.71 -33.62,13.14 0,-6.57 -9.61,6.57 -14.41,6.57 -28.82,-36.13 -14.41,0 -33.62,-55.83l4.8 -29.56c0,-6.57 4.8,-6.57 9.61,-9.85l0 114.94c-4.81,-3.28 -33.63,-16.42 -38.43,-22.99 -67.25,-32.84 -81.66,-29.55 -91.27,-59.11 4.81,32.84 4.81,29.56 48.04,59.11 81.66,49.26 67.25,13.14 91.26,62.4 -9.6,13.13 -28.82,52.54 -86.46,49.26 -86.46,-9.86 0,19.7 -67.25,-55.83 -19.21,13.13 0,3.28 -24.02,26.27 -62.44,68.96 -38.42,-39.41 -172.92,-3.28 28.82,32.84 -38.43,36.12 33.62,36.12l-537.99 6.57c-43.23,22.99 -28.82,16.42 -96.06,29.55 -216.16,45.98 -321.84,95.24 -489.96,183.9l-24.02 3.29c-43.23,72.25 -67.25,39.41 -240.17,269.28 -120.09,164.2 -110.48,157.63 -153.71,374.37 -67.25,305.41 -57.64,121.51 -57.64,476.18 0,180.61 52.83,298.84 62.44,469.6 9.61,266 43.23,1037.73 0,1280.74l-76.85 315.26c-14.41,59.11 -9.61,32.84 -24.02,111.66 -24.02,111.65 -43.23,108.37 -19.21,220.02 91.26,121.51 33.62,364.52 196.94,486.02 -9.61,-154.34 14.41,-200.32 4.8,-252.86 -19.21,-72.25 -24.02,-39.41 -9.61,-128.07 19.22,-85.39 19.22,49.26 14.41,-68.97 -4.8,-68.96 9.61,-3.28 -28.82,-78.81 110.48,-22.99 0,45.97 52.84,0 -28.82,-72.25 -43.23,-36.12 -33.62,-101.8l0 -85.39c33.62,9.86 62.44,29.56 52.84,-59.11 -14.41,-137.92 -115.29,9.85 -52.84,-157.63 48.03,29.56 72.05,68.97 96.07,91.95l-38.43 -72.24c0,-3.29 0,-6.57 0,-9.86l-24.02 -78.81c67.25,-6.57 105.68,3.28 134.5,26.27 24.02,16.42 19.21,9.85 33.62,39.41 38.43,-42.69 62.45,-91.95 120.09,-124.79 -4.8,-3.29 -19.21,-19.71 -24.02,-19.71 0,-3.28 -4.8,-9.85 -9.6,-13.13l-24.02 -22.99c0,128.08 -81.66,170.77 -72.05,95.24l38.42 -65.68 -57.64 -16.42c-4.8,-3.29 -9.6,-9.85 -14.41,-16.42 -9.6,-3.29 -14.41,-9.85 -19.21,-16.42l100.87 13.13c-4.8,-6.56 -14.41,-13.13 -14.41,-9.85l-67.25 -82.1c62.45,6.57 120.09,0 158.52,45.98l57.64 95.23 19.21 -82.1c4.81,3.29 14.41,3.29 14.41,13.14l158.52 114.94c-33.63,32.84 -4.81,13.13 -33.63,32.84 -4.8,3.28 19.22,29.55 -81.66,19.7l-24.01 -3.28c-38.43,-16.42 -91.27,-88.67 -91.27,-19.71l4.8 -6.56c0,0 0,3.28 0,3.28 33.63,59.11 19.22,-29.56 14.41,59.11 0,52.54 9.61,6.57 -9.6,68.96 -100.88,-9.85 -14.41,0 -57.64,-16.42l-168.13 -39.4 0 55.82c0,-3.28 4.81,-9.85 9.61,-6.56 0,3.28 9.61,-6.57 9.61,-6.57 72.05,-26.27 48.03,-26.27 134.5,-13.14 0,82.1 -24.02,85.38 38.42,124.79 4.81,26.27 24.02,-6.57 81.66,19.71 48.04,26.27 134.5,85.38 177.73,32.84 14.41,-13.14 9.61,16.42 19.21,-32.84 -81.65,-22.99 43.24,26.27 -52.83,-13.14 -9.61,-3.28 -48.04,-19.7 -57.65,-26.27 -4.8,-3.29 -9.6,-6.57 -9.6,-9.85l-28.82 -29.56c-9.61,32.84 9.6,26.27 -24.02,45.98 -4.8,0 -9.61,3.28 -14.41,6.56l-28.82 0c-4.81,0 -14.41,0 -19.22,0l0 -36.12c33.63,-78.81 -38.42,19.7 19.22,-29.55 0,-3.29 4.8,-3.29 9.61,-6.57 0,0 4.8,0 4.8,0 48.03,-19.71 19.21,-3.29 4.8,-26.27 0,-3.29 -4.8,-9.86 -4.8,-9.86 -14.41,-22.98 -24.02,22.99 -14.41,-45.97l134.5 32.84c-14.41,-42.69 -4.81,-72.25 0,-95.24l48.03 39.41c4.8,3.28 4.8,9.85 9.61,13.14 57.64,78.81 -28.82,0 28.82,42.69 57.64,42.69 52.84,9.85 81.66,111.65 144.1,-256.15 91.26,-778.29 91.26,-1129.68 0,-203.6 9.61,-423.63 -14.41,-610.81 -86.46,-706.05 -278.6,-958.92 874.24,-866.96 480.34,39.4 629.25,72.24 999.12,288.98 -24.02,-118.22 0,-55.82 -43.23,-62.39 28.82,-62.4 19.21,-26.27 43.23,-65.68 4.8,-3.28 14.41,-19.7 19.21,-26.27l-24.02 -68.97c-38.42,-22.98 -43.23,-55.82 -91.26,-72.24l-4.81 32.84c0,3.28 -4.8,9.85 -4.8,16.42l-28.82 36.12c-72.05,-167.48 -120.09,88.67 -86.46,-118.22l-28.82 42.69c-62.45,91.95 -124.89,49.26 -201.75,29.55 -43.23,-13.13 -57.64,-9.85 -105.68,-9.85 24.02,-26.27 -19.21,0 33.63,-9.85 244.98,-49.26 91.27,-85.38 187.33,-200.32l24.02 -22.99c38.43,22.99 48.04,-9.85 24.02,55.83 86.46,6.57 38.43,6.57 96.07,-26.27 -43.23,-52.55 9.61,-6.57 -52.84,-39.41l-129.69 -55.83c-14.41,-3.28 -9.61,6.57 -43.23,-13.13 33.62,-72.25 0,-16.42 57.64,-68.97l52.84 -65.67c-62.45,-6.57 -76.86,-42.7 -115.29,3.28 -24.02,19.7 -4.8,68.96 -24.02,88.67 -28.82,-42.7 -33.62,-114.94 -33.62,-151.07 38.43,-19.7 86.46,13.14 192.14,9.86l14.41 49.26c0,3.28 0,9.85 0,13.13 33.62,75.53 9.61,19.71 76.86,72.25 4.8,3.28 14.41,9.85 28.82,29.55 33.62,36.13 28.82,59.12 38.42,118.23l33.63 -59.11c52.84,-59.12 86.46,-19.71 139.3,-91.96 14.41,65.68 -24.02,32.84 33.62,52.55 4.81,-6.57 -67.25,-26.27 28.82,-6.57 57.65,9.85 14.41,-9.85 48.04,22.99l9.61 -32.84c4.8,-88.67 -33.63,-164.2 110.48,-124.79 57.64,16.42 0,16.42 100.87,39.41l24.02 131.35c14.41,0 28.82,-29.55 62.44,-9.85 24.02,13.14 14.41,16.42 24.02,26.27 43.23,39.41 -14.41,19.71 48.03,39.41l9.61 -111.65c-33.62,-13.14 -129.69,-78.82 -139.3,-128.08 -9.61,-49.26 -19.21,19.71 4.8,-32.84 14.41,-32.84 14.41,-19.7 28.82,-36.12 24.02,39.41 28.82,42.69 38.43,101.8l76.86 -39.41 -28.82 -36.12c-43.23,-39.41 -86.47,-82.1 -105.68,-137.93 182.53,29.56 24.02,-16.42 105.68,59.12 57.64,49.26 96.07,45.97 153.71,9.85l67.25 -36.13c0,6.57 -4.81,6.57 -9.61,19.71l-76.86 124.79 48.04 19.7c0,3.29 9.61,6.57 14.41,13.14 -129.69,6.57 -76.86,-32.84 -52.84,91.95l43.23 -78.82c9.61,-26.27 19.22,-29.55 38.43,-45.97 4.8,-3.29 19.21,-13.14 24.02,-13.14l187.33 -26.27c52.84,19.7 24.02,3.28 38.43,19.7 4.8,6.57 19.21,19.71 24.02,26.28 0,0 19.21,42.69 24.02,45.97l48.03 -68.96c-134.5,-6.57 0,-9.85 -91.27,-9.85 4.81,-39.41 19.22,-105.09 62.45,-128.08 0,3.29 9.61,49.26 9.61,49.26l52.83 65.68 -19.21 -272.57c-4.8,3.29 -9.61,9.85 -9.61,16.42l-33.62 111.66c0,-3.29 0,16.42 0,26.27 -72.05,-42.69 -14.41,-29.56 -57.64,13.13l-52.84 68.97c0,-3.29 -4.8,9.85 -9.61,16.42 -72.05,-36.13 -48.03,36.12 -57.64,-75.53l-33.62 32.84c-48.04,16.42 -52.84,3.28 -67.25,-39.41 -14.41,-55.83 14.41,-68.96 52.84,-68.96 86.46,0 -52.84,42.69 120.08,19.7l4.81 -59.11c38.42,-16.42 19.21,16.42 48.03,-26.27l-43.23 -36.13c-4.8,-3.28 -9.61,-6.57 -9.61,-9.85l-81.66 -68.96c-52.83,-42.69 -43.23,-91.95 -48.03,-177.34 192.14,9.86 100.87,29.56 100.87,29.56 4.81,-32.84 4.81,-26.27 0,-42.69l9.61 -32.84c4.8,0 14.41,-3.28 14.41,-3.28 4.8,0 9.61,0 14.41,-3.29 62.44,-16.42 -9.61,19.7 24.02,-22.99l57.64 -62.39c-19.22,-9.85 -67.25,-19.71 -67.25,-19.71l-57.64 -59.11c81.66,-29.55 192.14,55.83 81.66,-59.11 28.82,-26.27 -62.45,-62.39 76.85,-29.55l-48.03 -22.99c-28.82,-13.14 -38.43,-22.99 -72.05,0 0,0 -9.61,6.57 -9.61,9.85l-28.82 22.99c-43.23,-62.4 -24.02,-62.4 -96.07,-78.82 -33.63,39.41 -14.41,-39.4 4.8,19.71 14.41,52.54 28.82,6.57 0,36.12 -9.6,9.85 -24.02,19.7 -24.02,16.42 0,-3.28 -9.6,3.28 -14.41,6.57 4.81,0 14.41,0 19.22,0 4.8,0 14.41,-3.29 19.21,0 62.45,13.13 52.84,19.7 91.27,78.81 -96.07,0 -144.11,-45.97 -216.16,13.14l-28.82 45.97c24.02,9.86 52.84,16.42 86.46,29.56 4.81,-3.28 0,-6.57 0,-9.85 4.81,-55.83 48.04,-45.98 57.65,-68.96 4.8,-13.14 14.41,-9.86 24.01,-9.86 -4.8,6.57 -9.6,13.14 -14.41,19.71l-19.21 59.11c-4.81,55.83 -24.02,16.42 33.62,59.11l-139.3 65.68c-62.44,39.41 -43.23,59.11 -124.89,16.42l-81.66 -32.84c0,0 -4.8,-3.29 -9.6,-3.29 0,-3.28 -14.41,-9.85 -19.22,-16.41 -48.03,65.67 14.41,-59.12 -9.61,36.12 -14.41,55.83 33.63,-16.42 -4.8,22.99 38.43,-29.56 -19.21,-19.71 48.04,-13.14 62.44,9.85 81.66,55.83 105.67,118.22 -28.82,0 -100.87,3.29 -124.89,-3.28 -81.66,-29.56 4.81,13.13 -33.62,-29.56l-4.81 -26.27c-28.82,49.26 0,22.99 -38.42,52.54 -48.04,42.7 9.6,16.42 -76.86,45.98 19.21,-183.9 139.3,-137.93 62.45,-164.2 14.41,-62.39 -19.22,-78.81 -57.65,-111.65 -4.8,0 -9.6,-3.29 -14.41,-9.85 0,-3.29 -4.8,-3.29 -9.6,-6.57l-19.22 62.39c0,3.29 -4.8,9.86 -4.8,13.14l-43.23 55.83c-48.04,42.69 -38.43,-19.71 -43.23,36.12 38.43,19.7 19.21,3.28 38.43,3.28 4.8,0 9.6,-3.28 14.41,-3.28l57.64 6.57c0,0 4.8,6.57 4.8,6.57l14.41 45.97c-115.28,-26.27 -9.61,-9.85 -57.64,39.41zm586.02 -1839.01c-38.42,65.68 -67.25,210.17 -96.07,288.98 -38.42,88.67 -76.85,177.34 -134.49,262.72 -105.68,164.2 -225.77,302.12 -393.89,413.78 -163.32,111.65 -350.65,197.03 -590.83,213.45 -163.31,13.14 -403.49,13.14 -566.81,-29.55 -100.87,-26.27 -57.64,-6.57 -81.65,-62.4 -67.25,29.56 -86.47,16.42 -153.72,-29.55 -91.26,-22.99 -48.03,-29.56 -105.67,19.7 -57.64,52.55 -9.61,95.24 9.6,134.64l28.83 59.12c-100.88,-3.29 -96.07,29.55 -153.72,105.08 48.04,42.69 19.22,13.14 48.04,26.27 19.21,6.57 43.23,16.42 72.05,26.27 -9.61,82.1 0,98.52 72.05,144.5 -4.8,0 -14.41,-3.29 -14.41,3.28l-96.07 45.98c43.23,-114.94 14.41,13.13 38.43,-128.08l-134.5 -19.7 -19.21 82.1 -81.66 -78.82c100.87,-6.56 14.41,36.13 105.68,-36.12 -38.43,-26.27 -76.86,-9.85 -96.07,-32.84 0,-3.28 4.8,-16.42 4.8,-9.85 0,0 0,-29.56 67.25,-22.99l-76.86 -39.41 38.43 -52.54c4.81,16.42 0,36.12 24.02,36.12l67.25 -19.7c0,0 9.61,0 14.41,-3.28 -14.41,-75.53 0,-59.11 -91.27,-82.1 129.7,-26.27 43.23,-9.85 81.66,-75.53 -67.25,0 -153.71,-32.84 -187.33,9.85 -19.22,29.55 -14.41,91.95 -28.82,128.07 52.83,-29.55 86.46,-42.69 129.69,-16.42l-129.69 19.71 38.42 118.22c4.81,19.7 0,52.54 0,52.54 -81.66,-55.82 -91.26,49.26 -62.44,105.09l38.43 55.83c-48.04,-9.86 -14.41,3.28 -43.24,6.56 -57.64,6.57 62.45,29.56 -76.85,6.57 139.3,121.51 0,-82.1 163.32,59.11l24.01 -29.55c4.81,-3.29 9.61,-6.57 9.61,-13.14l24.02 -22.99c4.8,-3.28 9.61,-6.56 14.41,-9.85l57.64 42.69 -52.84 16.42c-38.43,13.14 -14.41,-6.56 -67.25,22.99 19.22,45.98 14.41,59.11 67.25,78.82 19.22,-26.28 14.41,6.56 14.41,-32.84 0,-6.57 -9.6,-39.41 -9.6,-49.26 0,3.28 43.23,55.82 48.03,55.82 105.68,39.41 -81.66,22.99 19.21,0 24.02,-3.28 24.02,-16.42 24.02,-22.98 -52.84,82.1 -67.25,42.69 4.81,98.51 14.41,-9.85 28.82,19.71 52.83,-65.67 24.02,-88.67 4.81,-42.7 -28.82,-114.94 9.61,0 43.23,6.57 48.04,6.57l158.51 42.69c0,-6.57 -9.6,-16.42 -14.41,-13.14l-100.87 -65.68c105.68,-3.28 72.05,16.42 91.26,-52.54 28.83,26.27 38.43,62.39 76.86,36.12l-52.84 78.82c-4.8,3.28 -9.6,13.13 -14.41,16.42 76.86,3.28 48.04,-32.84 81.66,19.7 -14.41,19.7 -28.82,32.84 -62.44,16.42 -100.88,-42.69 43.23,-22.99 -120.09,-52.54 -43.23,98.52 -43.23,98.52 -19.22,203.6l33.63 -13.13c134.5,-36.13 110.48,72.24 172.92,3.28 24.02,-22.99 4.81,-13.14 24.02,-26.27 67.25,75.53 -19.21,45.97 67.25,55.83 57.64,3.28 76.86,-36.13 86.46,-49.26 -24.01,-49.26 -9.6,-13.14 -91.26,-62.4 -43.23,-29.55 -43.23,-26.27 -48.04,-59.11 9.61,29.56 24.02,26.27 91.27,59.11 4.8,6.57 33.62,19.71 38.43,22.99l0 -114.94c-4.81,3.28 -9.61,3.28 -9.61,9.85l-4.8 29.56c19.21,55.83 4.8,19.7 33.62,55.83 4.8,0 14.41,-13.14 14.41,-6.57 4.8,6.57 24.02,-9.85 33.62,-13.14 62.45,-13.13 -9.6,-13.13 86.47,-6.57l14.41 -62.39c76.85,68.96 139.3,45.97 148.91,141.21 -4.81,-6.57 -14.42,-39.41 -33.63,-45.98 -62.44,-22.98 -76.85,6.57 -86.46,13.14 38.43,82.1 -67.25,-59.11 24.02,29.55 96.07,95.24 -43.24,-42.69 33.62,29.56l57.64 78.82c76.86,-45.98 4.81,22.98 52.84,-52.55l14.41 -36.12c28.82,95.23 -14.41,45.97 72.05,68.96l24.02 -95.23c24.02,-82.1 -57.64,32.84 43.23,-78.82 4.8,0 9.61,-3.28 9.61,-6.57 28.82,-32.84 33.62,-36.12 4.8,-75.53 86.46,36.13 72.05,49.26 153.71,59.11 4.81,0 4.81,-9.85 4.81,-6.56 14.41,39.4 -9.61,9.85 48.03,-52.55 81.66,-91.95 57.64,36.13 182.53,-95.23 -76.85,-55.83 -81.66,0 -96.07,-78.82 -48.03,0 -28.82,3.29 0,-19.7l-24.01 45.98c144.1,-22.99 14.41,-36.13 177.72,19.7l33.63 -85.38c4.8,111.65 -24.02,72.24 43.23,98.51l-72.05 154.35c0,6.57 9.61,3.28 9.61,9.85l48.03 98.52 110.48 9.85 -14.41 13.14c48.03,-49.26 -57.64,-65.68 57.64,-39.41l-14.41 -45.97c0,0 -4.8,-6.57 -4.8,-6.57l-57.64 -6.57c-4.81,0 -9.61,3.28 -14.41,3.28 -19.22,0 0,16.42 -38.43,-3.28 4.8,-55.83 -4.81,6.57 43.23,-36.12l43.23 -55.83c0,-3.28 4.8,-9.85 4.8,-13.14l19.22 -62.39c4.8,3.28 9.6,3.28 9.6,6.57 4.81,6.56 9.61,9.85 14.41,9.85 38.43,32.84 72.06,49.26 57.65,111.65 76.85,26.27 -43.24,-19.7 -62.45,164.2 86.46,-29.56 28.82,-3.28 76.86,-45.98 38.42,-29.55 9.6,-3.28 38.42,-52.54l4.81 26.27c38.43,42.69 -48.04,0 33.62,29.56 24.02,6.57 96.07,3.28 124.89,3.28 -24.01,-62.39 -43.23,-108.37 -105.67,-118.22 -67.25,-6.57 -9.61,-16.42 -48.04,13.14 38.43,-39.41 -9.61,32.84 4.8,-22.99 24.02,-95.24 -38.42,29.55 9.61,-36.12 4.81,6.56 19.22,13.13 19.22,16.41 4.8,0 9.6,3.29 9.6,3.29l81.66 32.84c81.66,42.69 62.45,22.99 124.89,-16.42l139.3 -65.68c-57.64,-42.69 -38.43,-3.28 -33.62,-59.11l19.21 -59.11c4.81,-6.57 9.61,-13.14 14.41,-19.71 -9.6,0 -19.21,-3.28 -24.01,9.86 -9.61,22.98 -52.84,13.13 -57.65,68.96 0,3.28 4.81,6.57 0,9.85 -33.62,-13.14 -62.44,-19.7 -86.46,-29.56l28.82 -45.97c72.05,-59.11 120.09,-13.14 216.16,-13.14 -38.43,-59.11 -28.82,-65.68 -91.27,-78.81 -4.8,-3.29 -14.41,0 -19.21,0 -4.81,0 -14.41,0 -19.22,0 4.81,-3.29 14.41,-9.85 14.41,-6.57 0,3.28 14.42,-6.57 24.02,-16.42 28.82,-29.55 14.41,16.42 0,-36.12 -19.21,-59.11 -38.43,19.7 -4.8,-19.71 72.05,16.42 52.84,16.42 96.07,78.82l28.82 -22.99c0,-3.28 9.61,-9.85 9.61,-9.85 33.62,-22.99 43.23,-13.14 72.05,0l48.03 22.99c-139.3,-32.84 -48.03,3.28 -76.85,29.55 110.48,114.94 0,29.56 -81.66,59.11l57.64 59.11c0,0 48.03,9.86 67.25,19.71l-57.64 62.39c-33.63,42.69 38.42,6.57 -24.02,22.99 -4.8,3.29 -9.61,3.29 -14.41,3.29 0,0 -9.61,3.28 -14.41,3.28l-9.61 32.84c4.81,16.42 4.81,9.85 0,42.69 0,0 91.27,-19.7 -100.87,-29.56 4.8,85.39 -4.8,134.65 48.03,177.34l81.66 68.96c0,3.28 4.81,6.57 9.61,9.85l43.23 36.13c-28.82,42.69 -9.61,9.85 -48.03,26.27l-4.81 59.11c-172.92,22.99 -33.62,-19.7 -120.08,-19.7 -38.43,0 -67.25,13.13 -52.84,68.96 14.41,42.69 19.21,55.83 67.25,39.41l33.62 -32.84c9.61,111.65 -14.41,39.4 57.64,75.53 4.81,-6.57 9.61,-19.71 9.61,-16.42l52.84 -68.97c43.23,-42.69 -14.41,-55.82 57.64,-13.13 0,-9.85 0,-29.56 0,-26.27l33.62 -111.66c0,-6.57 4.81,-13.13 9.61,-16.42 4.8,-114.94 38.43,-223.31 86.46,-321.82 43.23,-78.82 144.11,-193.76 201.75,-249.58 129.69,-114.94 413.1,-288.99 571.61,-331.68 38.43,-36.13 230.57,-105.09 288.21,-137.93 -52.84,-19.7 -153.71,-32.84 -216.16,-52.54 -220.96,-65.68 -341.04,-154.35 -499.56,-292.27 -196.94,-170.77 -297.81,-377.66 -384.27,-653.51 -100.88,19.7 -43.24,6.57 -67.25,32.84 0,42.69 43.23,-3.29 -19.22,22.99 -62.44,29.55 4.81,0 -67.25,3.28l-28.82 3.28c-4.8,0 -9.6,3.29 -9.6,3.29 -4.81,0 -9.61,0 -9.61,0 -48.04,6.57 -14.41,-16.42 -91.27,6.57zm-1311.35 509.01c96.07,-128.08 153.72,-252.87 168.13,-469.61 14.41,-223.31 38.42,-417.06 14.41,-633.8 -28.82,-210.17 -96.07,-1057.43 -398.69,-893.23 -297.82,160.91 -249.78,1231.48 -115.28,1661.68 52.83,167.48 110.47,357.95 331.43,334.96zm9020.93 0c158.51,13.13 196.94,-68.96 235.37,-187.19 43.23,-124.79 52.84,-216.74 67.25,-367.8 28.82,-288.99 -4.81,-568.12 -24.02,-857.11 -33.62,-32.84 -67.25,-535.28 -259.39,-594.4 -220.96,-72.24 -288.21,354.67 -317.03,545.14 -43.23,341.53 -9.6,1021.31 187.34,1349.7 57.64,88.67 62.44,62.4 110.48,111.66zm-12407.37 -820.99c19.21,154.35 43.23,288.99 110.48,423.63 81.65,164.2 220.96,220.03 336.24,75.53 153.71,-193.75 115.28,-683.06 100.87,-972.05 -24.02,-591.11 -297.81,-673.21 -437.11,-486.02 -148.91,197.03 -144.11,676.49 -110.48,958.91zm6350.19 545.14c96.07,-3.29 129.69,9.85 187.33,-45.98 52.84,-42.69 67.25,-105.09 96.07,-121.5 14.41,-157.63 57.64,-282.42 62.45,-456.47 14.41,-1320.15 -749.34,-1060.72 -610.04,-32.84 81.66,623.95 225.76,554.98 264.19,656.79zm-3631.43 2952.27c-24.02,187.18 -52.84,597.68 -24.02,781.58 86.47,568.12 792.58,62.39 557.21,-495.88 -100.88,-229.87 -244.98,-302.12 -533.19,-285.7zm7344.51 1290.59c0,6.57 14.41,177.33 14.41,216.74 0,72.25 4.81,141.21 9.61,213.46 14.41,144.49 33.63,236.44 81.66,367.8 28.82,75.53 134.5,249.58 235.37,114.94 148.91,-203.61 91.27,-916.22 0,-1175.65 -43.23,-121.51 -134.5,-206.89 -230.57,-78.82 -33.62,45.98 -52.83,101.8 -67.24,174.05 -4.81,32.84 -9.61,75.53 -19.22,105.09l-24.02 62.39zm-619.64 -4879.95c-172.93,75.53 -754.15,627.23 -230.57,784.86 513.97,154.35 485.15,-903.08 230.57,-784.86zm-4270.29 5201.78c-134.5,55.83 -177.73,114.94 -269,236.44 -91.26,128.08 -115.28,236.45 57.64,305.41 293.02,114.94 379.48,-374.37 211.36,-541.85zm5831.41 -2082.03c81.66,-114.93 28.83,-397.35 -19.21,-535.28 -24.02,-65.68 -38.43,-98.52 -120.09,-98.52 -105.67,137.93 -33.62,371.09 14.41,515.58 24.02,78.82 33.63,108.37 124.89,118.22zm-1119.2 -489.31c-96.07,108.38 -24.02,551.71 110.48,502.45 91.26,-32.84 43.23,-213.46 33.62,-298.84 -14.41,-101.8 -14.41,-210.17 -144.1,-203.61z"/>
   <path class="fil1" d="M13075.98 7317.03c-91.26,-9.85 -100.87,-39.4 -124.89,-118.22 -48.03,-144.49 -120.08,-377.65 -14.41,-515.58 81.66,0 96.07,32.84 120.09,98.52 48.04,137.93 100.87,420.35 19.21,535.28zm-148.9 -863.68c-206.55,42.7 -264.19,101.81 -341.05,256.15 0,3.29 -9.61,19.71 -9.61,22.99 -57.64,111.65 -62.44,206.89 -43.23,341.53 28.82,269.29 240.18,505.73 562.01,466.32 634.06,-82.1 437.11,-1211.78 -168.12,-1086.99zm-1412.22 -2256.07c254.58,-118.22 283.4,939.21 -230.57,784.86 -523.58,-157.63 57.64,-709.33 230.57,-784.86zm-1191.27 1379.26c153.72,52.54 235.37,259.43 749.35,197.04 331.44,-39.41 465.93,-288.99 590.82,-367.81 19.22,19.71 4.81,3.29 19.22,42.7 9.6,22.98 14.41,42.69 19.21,62.39 115.28,482.74 811.79,236.44 1109.6,45.98 48.04,-32.84 134.5,-88.67 168.13,-124.79 57.64,-59.12 43.23,-141.21 43.23,-216.75 -19.22,-26.27 0,0 -28.82,-39.4l-62.45 -114.94c-24.02,-49.26 -48.03,-114.94 -62.44,-170.77 -158.52,-627.23 -43.24,-1241.33 -100.88,-1490.91 -14.41,-82.1 9.61,-75.53 -19.21,-180.62 -278.6,-1116.54 -2180.78,-1018.02 -2608.29,-193.75 -341.04,653.51 360.26,870.25 840.61,696.2 110.48,-42.69 187.34,-101.81 254.58,-193.76 96.07,-121.5 72.06,-200.32 28.82,-334.96 -81.65,-236.44 269,-449.9 408.3,-134.64 105.68,249.58 24.02,469.6 -206.55,604.25 -758.95,443.33 -1056.76,157.63 -1306.54,518.86 -129.7,187.19 -148.91,495.88 -115.29,758.59 52.84,400.64 230.57,509.02 278.6,637.09zm1633.19 1251.18c129.69,-6.56 129.69,101.81 144.1,203.61 9.61,85.38 57.64,266 -33.62,298.84 -134.5,49.26 -206.55,-394.07 -110.48,-502.45zm72.05 -206.88c-4.81,-3.29 -14.41,-13.14 -19.22,-9.86l-33.62 -16.42c-33.63,-16.42 4.8,-9.85 -62.45,-22.98 -38.42,-9.86 -91.26,-9.86 -129.69,-3.29 -446.72,78.82 -288.21,1169.09 172.93,1083.71 96.06,-19.71 105.67,-78.82 177.72,-128.08 81.66,52.55 86.47,111.66 225.77,85.39 105.67,-19.71 168.12,-72.25 201.74,-160.92 -28.82,-88.67 -72.05,-118.22 -96.07,-229.88 -76.85,-308.69 -86.46,-732.32 -120.08,-1047.58 -4.81,-65.67 9.6,-82.09 -57.65,-91.95 -67.24,-13.13 -427.5,98.52 -365.06,279.14 33.63,95.23 91.27,65.68 105.68,262.72zm-7238.84 1165.8c288.21,-16.42 432.31,55.83 533.19,285.7 235.37,558.27 -470.74,1064 -557.21,495.88 -28.82,-183.9 0,-594.4 24.02,-781.58zm-835.8 2147.7c-9.61,108.37 -177.73,331.68 124.89,482.74 153.71,78.82 451.52,91.95 624.45,29.56 369.87,-128.08 62.44,-600.96 81.66,-1152.67 446.72,-29.55 816.59,22.99 1176.85,-361.23 33.62,-39.41 72.05,-85.39 110.48,-141.21l86.46 -170.77c4.81,-3.28 9.61,-9.85 14.41,-13.13 -9.6,-72.25 9.61,-213.46 4.81,-315.26 0,-91.95 -19.22,-193.76 -38.43,-272.57 -52.84,-229.88 -134.5,-259.43 -235.37,-403.93 -369.87,-216.74 -518.78,-249.58 -999.12,-288.98 -1152.84,-91.96 -960.7,160.91 -874.24,866.96 24.02,187.18 14.41,407.21 14.41,610.81 0,351.39 52.84,873.53 -91.26,1129.68zm3290.38 -535.28c168.12,167.48 81.66,656.79 -211.36,541.85 -172.92,-68.96 -148.9,-177.33 -57.64,-305.41 91.27,-121.5 134.5,-180.61 269,-236.44zm-1013.54 -673.21c-14.41,180.62 -9.6,279.13 144.11,357.95 211.35,108.37 672.48,32.84 691.7,-223.31 4.8,-111.65 -48.04,-88.67 -33.63,-187.18 62.45,-374.38 706.11,164.19 -38.42,469.6 -187.34,78.82 -278.61,78.82 -475.55,118.22 -605.24,114.94 -312.22,1467.93 461.14,1201.93 201.74,-68.96 206.55,-141.21 336.24,-236.45 33.62,78.82 24.02,341.54 432.31,246.3 172.93,-42.69 413.1,-147.78 480.35,-275.85 4.8,-114.94 -100.87,-239.73 -124.89,-390.79 -91.27,-581.26 62.44,-1129.68 -230.57,-1336.57 -4.8,-91.95 -273.8,-203.6 -379.47,-229.88 -158.52,-42.69 -403.49,-45.97 -571.62,-16.42 -379.47,72.25 -547.59,206.89 -691.7,502.45zm2372.92 -354.67c-48.03,111.66 -259.39,197.04 -268.99,551.71 -19.22,752.02 951.08,486.02 1023.14,755.3 33.62,128.08 -129.7,321.83 -244.98,341.54 28.82,-147.78 124.89,-259.44 -211.35,-400.65l-124.89 -45.97c-297.82,-65.68 -494.76,62.39 -494.76,351.38 -4.81,535.28 682.09,597.68 1200.87,554.99 129.69,-65.68 441.92,-111.66 586.02,-400.64 139.3,-275.86 -14.41,-545.14 -192.14,-686.35 -177.73,-137.93 -1061.57,-334.96 -706.11,-627.23 278.6,-226.6 244.98,6.56 259.39,49.26 -72.05,9.85 -24.02,-3.29 -62.45,29.55 -19.21,16.42 -38.43,52.54 -57.64,78.82 48.04,157.63 451.53,334.96 658.08,233.16 220.96,-108.37 168.12,-525.44 38.42,-696.2 -216.15,-282.42 -576.41,-252.87 -874.23,-239.73 -317.03,13.14 -465.93,160.91 -528.38,151.06zm2598.68 229.88c163.32,-26.27 341.05,68.96 283.4,-374.37 -110.48,-39.41 -115.28,-26.27 -206.54,-26.27l-48.04 -6.57c-100.87,-170.77 67.25,-400.64 -240.17,-423.63 -216.16,-19.7 -365.07,52.54 -480.35,180.62 -62.45,72.24 -91.27,128.07 -153.71,177.33 -86.46,75.53 -163.32,42.69 -211.35,124.79 -43.24,78.81 -24.02,226.59 14.41,285.7 52.83,65.68 158.51,49.26 249.78,65.68 110.48,141.21 72.05,344.82 67.25,554.99 -4.81,213.46 4.8,417.06 -9.61,627.23 -14.41,167.49 -168.12,400.65 -124.89,512.3 81.66,213.46 557.2,236.45 816.59,128.08 28.82,-13.14 28.82,-9.86 57.64,-22.99 38.43,-19.71 57.64,-32.84 86.46,-75.53 76.86,-121.51 -57.64,-334.97 -91.26,-499.16 -28.82,-134.65 -28.82,-1090.28 -9.61,-1228.2zm-2497.81 -3934.17c-28.82,16.41 -43.23,78.81 -96.07,121.5 -57.64,55.83 -91.26,42.69 -187.33,45.98 -57.64,13.13 19.21,-3.29 -28.82,-3.29l-67.25 6.57 19.21 52.54c14.41,45.98 -38.43,-62.39 4.81,16.42l24.01 29.56c4.81,3.28 14.41,13.13 14.41,9.85 0,-3.28 9.61,6.57 14.41,9.85l-177.72 157.63 134.49 42.69c4.81,0 38.43,13.14 43.23,16.42l0 -98.52c62.45,22.99 -19.21,0 48.04,19.71 4.8,0 19.21,3.28 24.02,6.57l24.01 0c115.29,9.85 86.47,78.81 158.52,-26.28l-96.07 137.93c33.62,0 33.62,6.57 57.64,19.7l-28.82 52.55c-4.8,6.57 -9.61,13.13 -9.61,16.42l-76.85 85.38 38.43 -213.46c-91.27,75.53 -72.06,32.84 -177.73,78.82 38.42,42.69 19.21,105.08 115.28,95.23 -72.05,98.52 28.82,22.99 -43.23,32.84 -9.61,0 -19.22,-3.28 -24.02,-13.13 -9.61,-9.86 -19.21,-13.14 -28.82,-19.71l28.82 75.53c9.61,68.97 62.45,-22.98 -28.82,42.7l-48.03 -78.82c-4.81,-9.85 -9.61,-13.14 -9.61,-19.7 -48.04,88.66 -38.43,32.84 -19.22,98.52 -9.6,-3.29 -14.41,-9.86 -24.01,-13.14 -52.84,-19.7 -96.07,-45.98 -100.88,13.14 0,29.55 -48.03,19.7 43.24,26.27 28.82,3.28 9.6,-22.99 38.42,13.13 38.43,-55.82 62.45,-42.69 100.88,-78.81 -24.02,101.8 -19.22,-29.56 19.21,42.69l19.21 55.83 -115.28 36.12c-4.8,-6.57 -14.41,0 -24.02,3.28l76.86 16.42c62.44,16.42 -24.02,-36.12 62.44,22.99 14.41,-52.54 -14.41,-59.11 -38.42,-98.52 52.83,52.55 -9.61,26.27 57.64,36.13 105.67,13.13 -19.22,65.68 38.43,-36.13 -4.81,6.57 -19.22,65.68 -4.81,-22.99 9.61,-59.11 9.61,-49.25 24.02,-75.53 4.8,6.57 9.61,13.14 14.41,16.42 100.87,124.79 187.34,114.94 144.1,121.51 -4.8,65.68 -9.6,59.11 -19.21,118.22l76.86 59.11c-72.06,45.98 -81.66,16.42 -115.29,78.82l81.66 -36.13c4.81,0 9.61,-3.28 14.41,-3.28l120.09 19.7 -196.94 137.93c-4.81,-6.57 0,-13.14 -4.81,-19.7l-33.62 -111.66 -81.66 52.55 100.87 78.81c-57.64,6.57 -110.48,13.14 -115.28,13.14 -4.8,3.28 -9.61,6.56 -9.61,6.56l-57.64 -22.98c0,-3.29 4.8,-6.57 9.61,-9.86 0,-3.28 4.8,-6.56 4.8,-9.85 48.04,-72.24 -52.84,-78.81 -67.25,-121.5 -4.8,-9.86 -14.41,-6.57 -19.21,-13.14 91.26,22.99 120.09,-13.14 134.5,-118.22 -168.13,36.12 -4.81,-13.14 -96.07,62.39l-134.5 59.11c-105.68,19.71 -48.04,-19.7 -62.45,-82.09 -120.08,26.27 -9.6,16.42 -72.05,-6.57 -14.41,-6.57 -38.43,-22.99 -67.25,-32.84l-14.41 55.83c0,6.56 14.41,36.12 14.41,42.69l-91.26 6.56c-48.04,16.42 -33.63,22.99 -62.45,52.55 -4.8,-3.29 -9.6,-9.85 -9.6,-9.85l-28.83 -85.39c81.66,-19.7 -14.41,45.98 38.43,-39.4 -158.51,42.69 -441.92,216.74 -571.61,331.68 -57.64,55.82 -158.52,170.76 -201.75,249.58 -48.03,98.51 -81.66,206.88 -86.46,321.82l19.21 272.57c33.63,49.26 28.83,101.8 52.84,160.91 96.07,252.87 345.85,538.57 667.69,551.71 758.94,39.41 1436.23,-922.79 1489.07,-945.78 43.23,384.22 -379.47,344.81 -321.83,761.88 38.43,305.4 417.9,446.61 682.09,239.73 393.89,-315.26 408.3,-1257.76 72.06,-1668.25 -254.59,-311.98 -499.57,-9.85 -677.29,137.92 -110.48,91.95 -518.78,436.77 -710.92,407.21 -148.91,-22.98 -163.32,-236.44 14.41,-334.96 278.6,-151.06 465.94,-68.96 1071.18,-610.81 -4.81,-3.29 -9.61,-6.57 -9.61,-6.57l-14.41 -16.42c-57.64,-105.09 9.61,36.12 -14.41,-72.25l-105.68 -39.41c33.63,-9.85 -19.21,-36.12 -28.82,-42.69l-33.62 -16.42c28.82,-29.55 28.82,39.41 24.01,-29.55 -4.8,-49.26 24.02,-9.85 -14.41,-36.13 -48.03,-39.4 52.84,-13.13 -43.23,-9.85l-177.73 0 100.88 -36.12c24.01,0 86.46,42.69 177.73,45.97 24.01,0 57.64,6.57 110.48,6.57 -4.81,-3.28 -9.61,-9.85 -19.22,-13.13l-62.44 -68.97c-33.63,-49.26 -4.81,-39.4 -52.84,-91.95 -33.63,59.11 33.62,85.39 -120.09,118.22 57.64,-91.95 52.84,-72.24 115.28,-124.79l100.88 -91.95c4.8,-3.28 4.8,-13.13 4.8,-13.13l-9.61 -39.41c0,-3.28 -4.8,-6.57 -9.6,-6.57 0,-3.28 -14.41,-6.57 -19.22,-9.85 -48.03,-26.27 -43.23,-121.51 -43.23,-9.85 -96.07,-36.12 -33.62,-16.42 -76.85,-19.7 -9.61,0 -38.43,16.42 -43.23,19.7 62.44,6.57 0,36.12 0,39.41 -33.63,-72.25 67.24,49.26 -24.02,-26.28 -105.68,-85.38 -4.81,19.71 -91.27,-52.54 -4.8,3.29 0,13.14 0,16.42l0 29.56c0,3.28 4.81,9.85 4.81,13.13l9.6 26.27c0,-3.28 4.81,6.57 4.81,13.14 -72.06,3.28 -43.24,-13.14 -81.66,19.7l0 39.41c9.6,3.29 52.83,13.14 120.08,19.7l19.22 98.52c0,-9.85 4.8,-16.42 4.8,-22.98l-62.44 -55.83c14.41,137.92 0,19.7 -9.61,49.26l-48.04 68.96c-43.23,-22.99 -9.6,-6.57 -62.44,-19.7l81.66 -98.52 -158.52 0c9.61,-85.38 9.61,-49.26 62.45,-82.1l-52.84 -45.98c-52.84,39.41 -96.07,-26.27 -120.09,-72.24l-9.6 -45.98 100.87 9.85c52.84,-65.67 9.61,42.7 19.21,-45.97 4.81,-32.84 14.41,-29.56 -28.82,-45.98l-28.82 -26.27c4.8,-3.28 9.61,-3.28 19.22,-6.57l62.44 3.29c48.04,26.27 -76.86,-13.14 28.82,22.99 72.05,26.27 -24.02,36.12 43.23,0l-38.43 -32.84c-33.62,-26.28 0,13.13 -38.42,-26.28l-33.63 -62.39c-4.8,-9.85 -4.8,-9.85 -4.8,-16.42 -38.43,36.12 -24.02,36.12 -91.27,45.98zm-6633.59 -377.66c-33.63,-282.42 -38.43,-761.88 110.48,-958.91 139.3,-187.19 413.09,-105.09 437.11,486.02 14.41,288.99 52.84,778.3 -100.87,972.05 -115.28,144.5 -254.59,88.67 -336.24,-75.53 -67.25,-134.64 -91.27,-269.28 -110.48,-423.63zm797.37 1441.66c48.04,-6.57 273.8,9.85 369.87,9.85l38.43 -75.53c0,-3.29 -9.61,-68.97 -9.61,-101.81l105.68 9.86c-144.11,29.55 -33.63,6.56 -67.25,-29.56 96.07,-55.83 28.82,6.57 67.25,-78.81 -14.41,0 -57.64,13.13 -62.45,16.41 -52.84,3.29 -9.61,9.86 -52.84,-9.85 14.41,-78.81 -14.41,-29.55 -4.8,-144.49 38.43,-26.27 -9.61,-13.14 48.03,-16.42 4.81,0 38.43,16.42 43.24,19.7l-38.43 -59.11c-24.02,-19.7 -19.22,3.29 -67.25,-19.7 4.8,-6.57 14.41,-6.57 19.21,-9.85 4.81,-3.29 9.61,-6.57 19.22,-9.86l52.84 -39.4c-14.41,6.57 -38.43,19.7 -52.84,16.42 -76.86,-22.99 0,39.4 -24.02,-52.55 -43.23,49.26 24.02,-101.8 9.61,-229.87 -9.61,-62.4 -4.81,-91.95 43.23,-141.21l38.43 -36.13c-110.48,6.57 -72.06,13.14 -81.66,-114.93 -4.81,-6.57 -4.81,-13.14 -4.81,-16.42 0,-26.28 -9.6,-13.14 0,-52.55 19.22,-55.82 48.04,-65.68 96.07,-82.1l-62.44 -3.28c-4.81,0 -9.61,0 -9.61,0l-43.23 3.28c4.8,-82.09 24.02,-65.68 24.02,-137.92 4.8,-131.36 -4.81,-210.18 43.23,-351.38 -72.05,-65.68 86.46,6.56 -24.02,6.56 -4.8,0 -9.61,0 -14.41,0l19.21 -36.12c4.81,-3.28 9.61,-6.57 14.41,-6.57l43.24 -22.99c-129.7,-32.84 -81.66,-183.9 -81.66,-229.87 0,0 -4.81,-6.57 -4.81,-9.85l9.61 -91.96c-4.8,-72.24 -38.43,-167.48 -9.61,-259.43l9.61 -29.55c0,-3.29 9.61,-16.42 9.61,-19.71 9.6,-55.82 -19.22,-42.69 -38.43,-105.08 76.86,-9.85 144.1,-62.4 225.76,-39.41l-91.26 59.11c38.42,29.56 9.6,3.28 33.62,45.98 24.02,36.12 4.8,26.27 28.82,42.69 28.82,22.99 4.81,3.28 57.64,-9.85 -14.41,-36.13 -38.42,-174.05 43.24,-180.62 0,0 9.6,3.28 9.6,3.28 0,-3.28 4.81,0 4.81,0 -52.84,-59.11 -19.22,16.42 -38.43,-98.52 148.91,-9.85 76.85,16.42 96.07,-59.11 4.8,-42.69 -14.41,-91.95 -19.22,-98.52l-19.21 82.1c-14.41,78.82 57.64,26.27 -28.82,78.82 0,3.28 33.62,55.82 -52.84,-6.57 -86.46,-59.11 -14.41,-29.56 -14.41,-36.12 0,-3.29 0,-3.29 0,-6.57 -9.61,78.81 -100.87,65.68 -100.87,65.68 0,-6.57 -9.61,0 -19.22,0l67.25 -98.52c-38.43,-39.41 -14.41,29.55 -38.43,-65.68 -28.82,55.83 -19.21,55.83 -105.67,82.1 -9.61,-13.14 -33.63,-52.54 9.6,-72.25 4.81,0 9.61,-3.28 14.41,-3.28l81.66 -72.25c91.27,39.41 -28.82,-16.42 28.82,16.42l28.83 16.42c0,-6.57 9.6,6.57 14.41,6.57l9.6 -29.56c0,-6.57 0,-13.13 4.81,-16.42l19.21 -62.39c72.05,32.84 43.23,39.41 100.87,22.99 -100.87,-62.4 -76.85,-9.86 -134.49,-36.13l-33.63 -29.55 -96.07 68.96c0,0 -4.8,3.28 -4.8,3.28l-19.22 65.68c-38.42,82.1 28.83,0 -24.01,26.27 -4.81,-9.85 -67.25,19.71 -19.22,-114.93 14.41,-49.26 4.81,-9.86 48.04,-59.12 38.43,-49.25 14.41,-49.25 72.05,-42.69l-62.44 0c4.8,-6.56 9.6,-13.13 14.41,-19.7 4.8,-6.57 4.8,-13.14 9.6,-19.7l52.84 -19.71 -110.48 -114.94c-4.8,0 33.63,45.98 -14.41,-9.85 -48.03,-59.11 -19.21,-68.96 -28.82,-167.48 120.09,-36.12 62.44,-16.42 86.46,-39.41 -14.41,-39.4 -9.6,-16.42 -24.02,-42.69l57.65 -36.12c-9.61,-6.57 -24.02,-16.42 -38.43,-22.99 0,0 -24.02,-3.28 -28.82,-13.14 0,-6.56 -9.61,-3.28 -14.41,-3.28 4.8,-29.55 -62.45,-68.96 48.03,-52.54l-43.23 -98.52c-67.25,-147.78 -9.61,-62.4 -33.62,-285.7 -9.61,-111.66 57.64,-101.81 62.44,-114.94 0,-6.57 9.61,-3.29 14.41,-6.57l-52.84 -105.09c-9.6,-32.84 -9.6,-65.68 -14.41,-101.8 28.82,-16.42 -48.03,-62.39 57.65,-19.7l-24.02 -26.28c-19.22,-13.13 0,22.99 -38.43,-32.83 9.61,-26.28 19.21,-200.33 62.45,-154.35l-86.47 -19.7c-182.53,-36.13 -806.98,229.87 -912.66,486.02 -124.89,298.84 321.84,371.09 254.59,1119.83 -67.25,-39.41 -254.59,-325.11 -648.47,-325.11 -1239.3,3.28 -1436.24,2325.03 -600.44,3146.02 139.3,137.93 384.28,302.13 691.7,239.73 288.21,-55.83 499.57,-357.95 557.21,-380.94 43.23,88.67 43.23,141.21 110.48,216.74 43.23,52.55 110.48,114.94 187.33,118.23zm360.26 -4620.52l86.47 19.7c-43.24,-45.98 -52.84,128.07 -62.45,154.35 38.43,55.82 19.21,19.7 38.43,32.83l24.02 26.28c-105.68,-42.69 -28.83,3.28 -57.65,19.7 4.81,36.12 4.81,68.96 14.41,101.8l52.84 105.09c-4.8,3.28 -14.41,0 -14.41,6.57 -4.8,13.13 -72.05,3.28 -62.44,114.94 24.01,223.3 -33.63,137.92 33.62,285.7l43.23 98.52c-110.48,-16.42 -43.23,22.99 -48.03,52.54 4.8,0 14.41,-3.28 14.41,3.28 4.8,9.86 28.82,13.14 28.82,13.14 14.41,6.57 28.82,16.42 38.43,22.99l-57.65 36.12c14.42,26.27 9.61,3.29 24.02,42.69 -24.02,22.99 33.63,3.29 -86.46,39.41 9.61,98.52 -19.21,108.37 28.82,167.48 48.04,55.83 9.61,9.85 14.41,9.85l110.48 114.94 -52.84 19.71c-4.8,6.56 -4.8,13.13 -9.6,19.7 -4.81,6.57 -9.61,13.14 -14.41,19.7l62.44 0c-57.64,-6.56 -33.62,-6.56 -72.05,42.69 -43.23,49.26 -33.63,9.86 -48.04,59.12 -48.03,134.64 14.41,105.08 19.22,114.93 52.84,-26.27 -14.41,55.83 24.01,-26.27l19.22 -65.68c0,0 4.8,-3.28 4.8,-3.28l96.07 -68.96 33.63 29.55c57.64,26.27 33.62,-26.27 134.49,36.13 -57.64,16.42 -28.82,9.85 -100.87,-22.99l-19.21 62.39c-4.81,3.29 -4.81,9.85 -4.81,16.42l-9.6 29.56c-4.81,0 -14.41,-13.14 -14.41,-6.57l-28.83 -16.42c-57.64,-32.84 62.45,22.99 -28.82,-16.42l-81.66 72.25c-4.8,0 -9.6,3.28 -14.41,3.28 -43.23,19.71 -19.21,59.11 -9.6,72.25 86.46,-26.27 76.85,-26.27 105.67,-82.1 24.02,95.23 0,26.27 38.43,65.68l-67.25 98.52c9.61,0 19.22,-6.57 19.22,0 0,0 91.26,13.13 100.87,-65.68 0,3.28 0,3.28 0,6.57 0,6.56 -72.05,-22.99 14.41,36.12 86.46,62.39 52.84,9.85 52.84,6.57 86.46,-52.55 14.41,0 28.82,-78.82l19.21 -82.1c4.81,6.57 24.02,55.83 19.22,98.52 -19.22,75.53 52.84,49.26 -96.07,59.11 19.21,114.94 -14.41,39.41 38.43,98.52 0,0 -4.81,-3.28 -4.81,0 0,0 -9.6,-3.28 -9.6,-3.28 -81.66,6.57 -57.65,144.49 -43.24,180.62 -52.83,13.13 -28.82,32.84 -57.64,9.85 -24.02,-16.42 -4.8,-6.57 -28.82,-42.69 -24.02,-42.7 4.8,-16.42 -33.62,-45.98l91.26 -59.11c-81.66,-22.99 -148.9,29.56 -225.76,39.41 19.21,62.39 48.03,49.26 38.43,105.08 0,3.29 -9.61,16.42 -9.61,19.71l-9.61 29.55c-28.82,91.95 4.81,187.19 9.61,259.43l-9.61 91.96c0,3.28 4.81,9.85 4.81,9.85 0,45.97 -48.04,197.03 81.66,229.87l-43.24 22.99c-4.8,0 -9.6,3.29 -14.41,6.57l-19.21 36.12c4.8,0 9.61,0 14.41,0 110.48,0 -48.03,-72.24 24.02,-6.56 -48.04,141.2 -38.43,220.02 -43.23,351.38 0,72.24 -19.22,55.83 -24.02,137.92l43.23 -3.28c0,0 4.8,0 9.61,0l62.44 3.28c-48.03,16.42 -76.85,26.28 -96.07,82.1 -9.6,39.41 0,26.27 0,52.55 0,3.28 0,9.85 4.81,16.42 9.6,128.07 -28.82,121.5 81.66,114.93l-38.43 36.13c-48.04,49.26 -52.84,78.81 -43.23,141.21 14.41,128.07 -52.84,279.13 -9.61,229.87 24.02,91.95 -52.84,29.56 24.02,52.55 14.41,3.28 38.43,-9.85 52.84,-16.42l-52.84 39.4c-9.61,3.29 -14.41,6.57 -19.22,9.86 -4.8,3.28 -14.41,3.28 -19.21,9.85 48.03,22.99 43.23,0 67.25,19.7l38.43 59.11c-4.81,-3.28 -38.43,-19.7 -43.24,-19.7 -57.64,3.28 -9.6,-9.85 -48.03,16.42 -9.61,114.94 19.21,65.68 4.8,144.49 43.23,19.71 0,13.14 52.84,9.85 4.81,-3.28 48.04,-16.41 62.45,-16.41 -38.43,85.38 28.82,22.98 -67.25,78.81 33.62,36.12 -76.86,59.11 67.25,29.56l-105.68 -9.86c0,32.84 9.61,98.52 9.61,101.81l-38.43 75.53c-96.07,0 -321.83,-16.42 -369.87,-9.85 120.09,134.64 470.74,26.27 634.06,3.28l14.41 -13.14c91.27,-55.82 317.03,-141.21 360.26,-302.12 38.43,-137.93 -105.67,-236.44 -172.92,-538.57 -91.27,-390.79 -76.86,-1858.71 -72.06,-2420.27l48.04 -998.32c14.41,-269.29 96.07,-410.5 -264.19,-387.51 -43.23,0 -67.25,0 -105.68,6.57l-67.25 22.99c0,-6.57 -9.6,3.28 -14.41,6.57zm2228.81 3999.85c-220.96,22.99 -278.6,-167.48 -331.43,-334.96 -134.5,-430.2 -182.54,-1500.77 115.28,-1661.68 302.62,-164.2 369.87,683.06 398.69,893.23 24.01,216.74 0,410.49 -14.41,633.8 -14.41,216.74 -72.06,341.53 -168.13,469.61zm-706.11 548.42c67.25,45.97 86.47,59.11 153.72,29.55 24.01,55.83 -19.22,36.13 81.65,62.4 163.32,42.69 403.5,42.69 566.81,29.55 240.18,-16.42 427.51,-101.8 590.83,-213.45 168.12,-111.66 288.21,-249.58 393.89,-413.78 57.64,-85.38 96.07,-174.05 134.49,-262.72 28.82,-78.81 57.65,-223.3 96.07,-288.98 24.02,-390.79 105.68,-587.83 -28.82,-1067.29 -86.46,-308.69 -220.96,-538.57 -417.9,-738.89 -845.41,-843.97 -2536.23,-351.38 -2454.58,1415.39 19.22,410.49 163.32,870.24 446.73,1142.81 201.74,200.32 172.92,167.48 437.11,305.41zm2704.36 -2640.3c-72.05,128.08 -244.98,213.46 -374.67,633.8 -86.46,272.57 -91.27,594.4 -19.21,876.82 86.46,275.85 187.33,482.74 384.27,653.51 158.52,137.92 278.6,226.59 499.56,292.27 62.45,19.7 163.32,32.84 216.16,52.54 -57.64,32.84 -249.78,101.8 -288.21,137.93 -52.84,85.38 43.23,19.7 -38.43,39.4l28.83 85.39c0,0 4.8,6.56 9.6,9.85 28.82,-29.56 14.41,-36.13 62.45,-52.55l91.26 -6.56c0,-6.57 -14.41,-36.13 -14.41,-42.69l14.41 -55.83c28.82,9.85 52.84,26.27 67.25,32.84 62.45,22.99 -48.03,32.84 72.05,6.57 14.41,62.39 -43.23,101.8 62.45,82.09l134.5 -59.11c91.26,-75.53 -72.06,-26.27 96.07,-62.39 -14.41,105.08 -43.24,141.21 -134.5,118.22 4.8,6.57 14.41,3.28 19.21,13.14 14.41,42.69 115.29,49.26 67.25,121.5 0,3.29 -4.8,6.57 -4.8,9.85 -4.81,3.29 -9.61,6.57 -9.61,9.86l57.64 22.98c0,0 4.81,-3.28 9.61,-6.56 4.8,0 57.64,-6.57 115.28,-13.14l-100.87 -78.81 81.66 -52.55 33.62 111.66c4.81,6.56 0,13.13 4.81,19.7l196.94 -137.93 -120.09 -19.7c-4.8,0 -9.6,3.28 -14.41,3.28l-81.66 36.13c33.63,-62.4 43.23,-32.84 115.29,-78.82l-76.86 -59.11c9.61,-59.11 14.41,-52.54 19.21,-118.22 43.24,-6.57 -43.23,3.28 -144.1,-121.51 -4.8,-3.28 -9.61,-9.85 -14.41,-16.42 -14.41,26.28 -14.41,16.42 -24.02,75.53 -14.41,88.67 0,29.56 4.81,22.99 -57.65,101.81 67.24,49.26 -38.43,36.13 -67.25,-9.86 -4.81,16.42 -57.64,-36.13 24.01,39.41 52.83,45.98 38.42,98.52 -86.46,-59.11 0,-6.57 -62.44,-22.99l-76.86 -16.42c9.61,-3.28 19.22,-9.85 24.02,-3.28l115.28 -36.12 -19.21 -55.83c-38.43,-72.25 -43.23,59.11 -19.21,-42.69 -38.43,36.12 -62.45,22.99 -100.88,78.81 -28.82,-36.12 -9.6,-9.85 -38.42,-13.13 -91.27,-6.57 -43.24,3.28 -43.24,-26.27 4.81,-59.12 48.04,-32.84 100.88,-13.14 9.6,3.28 14.41,9.85 24.01,13.14 -19.21,-65.68 -28.82,-9.86 19.22,-98.52 0,6.56 4.8,9.85 9.61,19.7l48.03 78.82c91.27,-65.68 38.43,26.27 28.82,-42.7l-28.82 -75.53c9.61,6.57 19.21,9.85 28.82,19.71 4.8,9.85 14.41,13.13 24.02,13.13 72.05,-9.85 -28.82,65.68 43.23,-32.84 -96.07,9.85 -76.86,-52.54 -115.28,-95.23 105.67,-45.98 86.46,-3.29 177.73,-78.82l-38.43 213.46 76.85 -85.38c0,-3.29 4.81,-9.85 9.61,-16.42l28.82 -52.55c-24.02,-13.13 -24.02,-19.7 -57.64,-19.7l96.07 -137.93c-72.05,105.09 -43.23,36.13 -158.52,26.28l-24.01 0c-4.81,-3.29 -19.22,-6.57 -24.02,-6.57 -67.25,-19.71 14.41,3.28 -48.04,-19.71l0 98.52c-4.8,-3.28 -38.42,-16.42 -43.23,-16.42l-134.49 -42.69 177.72 -157.63c-4.8,-3.28 -14.41,-13.13 -14.41,-9.85 0,3.28 -9.6,-6.57 -14.41,-9.85l-24.01 -29.56c-43.24,-78.81 9.6,29.56 -4.81,-16.42l-19.21 -52.54 67.25 -6.57c48.03,0 -28.82,16.42 28.82,3.29 -38.43,-101.81 -182.53,-32.84 -264.19,-656.79 -139.3,-1027.88 624.45,-1287.31 610.04,32.84 -4.81,174.05 -48.04,298.84 -62.45,456.47 67.25,-9.86 52.84,-9.86 91.27,-45.98 0,6.57 0,6.57 4.8,16.42l33.63 62.39c38.42,39.41 4.8,0 38.42,26.28l38.43 32.84c-67.25,36.12 28.82,26.27 -43.23,0 -105.68,-36.13 19.22,3.28 -28.82,-22.99l-62.44 -3.29c-9.61,3.29 -14.42,3.29 -19.22,6.57l28.82 26.27c43.23,16.42 33.63,13.14 28.82,45.98 -9.6,88.67 33.63,-19.7 -19.21,45.97l-100.87 -9.85 9.6 45.98c24.02,45.97 67.25,111.65 120.09,72.24l52.84 45.98c-52.84,32.84 -52.84,-3.28 -62.45,82.1l158.52 0 -81.66 98.52c52.84,13.13 19.21,-3.29 62.44,19.7l48.04 -68.96c9.61,-29.56 24.02,88.66 9.61,-49.26l62.44 55.83c0,6.56 -4.8,13.13 -4.8,22.98l-19.22 -98.52c-67.25,-6.56 -110.48,-16.41 -120.08,-19.7l0 -39.41c38.42,-32.84 9.6,-16.42 81.66,-19.7 0,-6.57 -4.81,-16.42 -4.81,-13.14l-9.6 -26.27c0,-3.28 -4.81,-9.85 -4.81,-13.13l0 -29.56c0,-3.28 -4.8,-13.13 0,-16.42 86.46,72.25 -14.41,-32.84 91.27,52.54 91.26,75.54 -9.61,-45.97 24.02,26.28 0,-3.29 62.44,-32.84 0,-39.41 4.8,-3.28 33.62,-19.7 43.23,-19.7 43.23,3.28 -19.22,-16.42 76.85,19.7 0,-111.66 -4.8,-16.42 43.23,9.85 4.81,3.28 19.22,6.57 19.22,9.85 4.8,0 9.6,3.29 9.6,6.57l9.61 39.41c0,0 0,9.85 -4.8,13.13l-100.88 91.95c-62.44,52.55 -57.64,32.84 -115.28,124.79 153.71,-32.83 86.46,-59.11 120.09,-118.22 48.03,52.55 19.21,42.69 52.84,91.95l62.44 68.97c9.61,3.28 14.41,9.85 19.22,13.13 -52.84,0 -86.47,-6.57 -110.48,-6.57 -91.27,-3.28 -153.72,-45.97 -177.73,-45.97l-100.88 36.12 177.73 0c96.07,-3.28 -4.8,-29.55 43.23,9.85 38.43,26.28 9.61,-13.13 14.41,36.13 4.81,68.96 4.81,0 -24.01,29.55l33.62 16.42c9.61,6.57 62.45,32.84 28.82,42.69l105.68 39.41c24.02,108.37 -43.23,-32.84 14.41,72.25l14.41 16.42c0,0 4.8,3.28 9.61,6.57 43.23,-55.83 76.85,-82.1 120.08,-141.21 43.23,-59.12 72.06,-108.37 115.29,-164.2 120.08,-229.88 192.14,-367.8 254.58,-643.66 115.28,-558.27 43.23,-991.75 -283.4,-1421.95 -206.55,-269.28 -341.05,-275.85 -499.57,-394.07 163.32,-160.91 653.28,-3.28 792.58,-374.37 28.82,-68.96 33.62,-183.9 9.6,-262.72 -33.62,-124.79 -134.49,-256.15 -264.19,-325.11 -62.44,-36.12 -43.23,-22.99 -100.87,-22.99 -43.23,0 -9.61,9.86 -52.84,-39.4 -187.33,-26.28 -288.21,-13.14 -437.11,39.4 -225.77,75.53 -408.3,243.02 -499.57,486.03 -19.21,62.39 -43.23,121.5 -52.83,183.9 -14.41,62.4 -9.61,151.06 -48.04,200.32l-62.44 16.42c-192.14,19.7 -269,9.85 -489.96,98.52 -259.39,98.52 -331.44,206.89 -417.9,243.01zm5764.17 2022.92c62.44,49.25 120.09,223.3 192.14,249.58l43.23 -9.86c81.66,-16.42 43.23,-52.54 72.05,6.57 38.43,-95.23 -48.03,-59.11 76.86,-75.53 4.8,-3.28 4.8,-3.28 9.6,-3.28l72.06 3.28c-9.61,-6.57 -14.41,-19.7 -19.22,-13.13l-38.43 -26.28c-33.62,-22.98 -19.21,-16.42 -62.44,-39.4 -19.21,55.82 -19.21,26.27 -57.64,59.11l-24.02 22.98c-4.8,3.29 -9.61,9.86 -14.41,16.42l-38.43 -137.92 62.45 -78.82c4.8,-6.56 9.6,-13.13 14.41,-19.7l-72.05 -32.84c-28.83,-13.14 4.8,-45.97 -24.02,-6.57l43.23 0c76.85,6.57 76.85,0 62.44,75.53 -19.21,72.25 33.63,75.53 67.25,78.82l62.45 3.28c52.84,-26.27 43.23,9.85 19.21,78.82l43.23 39.4c28.82,39.41 14.41,-9.85 33.63,55.83 81.66,-65.68 -28.82,-72.25 120.08,-95.23 -48.03,105.08 -28.82,36.12 -96.07,118.22l134.5 75.53c4.81,-65.68 -24.02,-55.83 0,-144.49l19.22 141.21c96.07,-55.83 38.42,-49.26 91.26,-45.98 62.45,6.57 52.84,36.12 105.68,68.96 -9.61,-52.54 -19.22,19.71 -4.8,-49.26 9.6,-39.4 9.6,-29.55 139.3,-78.81 -33.63,78.81 0,52.54 -81.66,68.96l19.21 118.23c4.8,9.85 9.61,13.13 14.41,19.7 0,6.57 4.8,13.13 9.61,19.7 -67.25,6.57 -43.23,6.57 -96.07,19.71 33.62,59.11 76.85,85.38 153.71,98.51l-28.82 -62.39c-14.41,-29.56 -24.02,-36.12 -19.21,-85.38 0,-3.29 9.6,-32.84 9.6,-68.97 91.27,68.97 14.41,-9.85 43.23,49.26 28.82,59.11 -14.41,-19.7 -43.23,108.37l33.63 -36.12c81.66,-59.11 -4.81,-6.57 43.23,-22.99 19.21,-62.39 14.41,3.29 -4.81,-42.69l-19.21 -45.97c-4.8,-9.86 -9.61,-19.71 -14.41,-29.56 67.25,29.56 67.25,55.83 124.89,3.28l91.27 -78.81c-67.25,0 28.82,-29.56 52.83,-19.7 4.81,59.11 0,19.7 -19.21,62.39l-9.61 88.67c28.82,36.12 14.41,-39.41 38.43,62.39l19.22 -36.12c0,-3.28 4.8,-9.85 9.6,-13.14 38.43,-55.82 24.02,16.42 67.25,-108.37 -28.82,9.85 -62.44,-6.57 -76.85,-32.84 24.01,-36.12 0,0 0,-82.1l-100.88 9.86 81.66 -68.97c-124.89,-29.55 -43.23,13.14 -72.05,-62.39 -48.04,-49.26 -52.84,-22.99 -110.48,-111.66 -196.94,-328.39 -230.57,-1008.17 -187.34,-1349.7 28.82,-190.47 96.07,-617.38 317.03,-545.14 192.14,59.12 225.77,561.56 259.39,594.4 48.04,49.26 48.04,-75.53 48.04,108.37 76.85,-62.4 38.42,-105.09 115.28,-91.95 67.25,13.14 43.23,82.1 134.5,82.1 -144.11,-16.42 -52.84,-42.69 -86.47,52.54 172.93,-16.42 81.66,-39.41 86.47,65.68 14.41,-13.14 38.42,-45.98 57.64,-9.85 24.02,36.12 4.8,6.57 4.8,6.57l-9.61 9.85c0,3.28 -9.6,6.57 -9.6,6.57 0,0 -9.61,3.28 -9.61,6.56l67.25 78.82c-4.8,0 -14.41,0 -14.41,3.28l-139.3 36.13 -24.02 137.92c-19.21,52.55 -14.41,42.69 -38.43,78.82 -86.46,-39.41 -24.01,-62.4 -19.21,-75.53 -52.84,-29.56 -67.25,-36.13 -67.25,-95.24 -4.8,-108.37 0,-19.7 9.61,-26.27 -81.66,22.99 -33.63,0 -38.43,174.05 0,85.38 9.61,147.78 0,216.74l38.43 78.81c4.8,-3.28 9.6,-16.41 9.6,-13.13l19.22 -42.69c4.8,-3.29 24.02,-65.68 28.82,-82.1 4.8,6.57 9.61,9.85 14.41,16.42 4.8,32.84 43.23,49.26 67.25,42.69l-28.82 29.56c-43.23,26.27 -9.61,32.84 -110.48,29.55l72.05 98.52c0,6.57 4.8,13.14 4.8,19.7l-100.87 -26.27c-33.62,-9.85 -14.41,72.25 -33.62,-32.84l0 157.63c-4.81,-26.27 -43.24,-55.83 33.62,-49.26 9.61,0 19.21,6.57 24.02,9.85 -4.81,6.57 -9.61,6.57 -9.61,16.42l-67.25 62.4c19.22,68.96 -33.62,9.85 57.64,65.68l96.07 52.54c0,-32.84 -9.6,-55.83 48.04,-75.53 0,-3.28 28.82,-3.28 33.62,-3.28 4.81,26.27 0,13.13 -9.61,29.55 -38.42,65.68 -57.64,16.42 -72.05,108.37 86.47,36.13 43.23,32.84 62.45,59.11l-48.04 68.97c0,0 0,3.28 0,6.56 0,0 0,3.29 0,6.57l-52.84 55.83 72.06 98.52 43.23 -39.41c4.8,-3.28 28.82,-26.27 33.62,-29.55 129.7,-88.67 -110.48,32.83 33.63,-19.71 81.66,-26.27 -67.25,13.14 33.62,-6.57l-38.43 -91.95c-9.6,-78.81 67.25,-101.8 158.52,9.85l115.28 -105.08c-62.44,-9.85 -33.62,6.57 -67.25,-13.14 -57.64,-29.55 -38.43,-3.28 -67.25,-78.81 0,3.28 -4.8,3.28 -4.8,9.85l-67.25 6.57c-57.64,16.42 -81.66,68.96 -105.67,101.8 -19.22,-82.1 -9.61,-91.95 24.01,-144.49l38.43 -72.25 110.48 68.96c0,3.29 4.8,3.29 9.61,3.29l24.01 -3.29c0,0 9.61,0 9.61,0l28.82 -3.28c33.63,3.28 -19.21,-3.29 28.82,9.85 28.82,3.28 62.45,0 76.86,26.27l38.43 -16.42c0,-3.28 -14.41,-42.69 -19.22,-45.97 -28.82,-13.14 -52.84,6.56 -67.25,-13.14 -33.62,-32.84 -9.6,-59.11 -28.82,-124.79 100.88,45.98 14.41,26.27 81.66,42.69 72.05,13.14 -4.8,19.71 96.07,-13.13l-19.21 108.37c-4.81,-32.84 -19.22,-19.71 -43.23,0 4.8,3.28 9.6,3.28 9.6,6.56 0,6.57 4.81,9.86 4.81,9.86l33.62 52.54c14.41,26.27 48.04,68.96 33.63,101.8 -24.02,68.97 -57.65,65.68 -120.09,85.38 19.21,-177.33 0,-22.98 33.62,-88.66 4.81,-6.57 19.22,-29.56 19.22,-36.13 4.8,-6.56 9.6,-9.85 14.41,-16.41 4.8,-6.57 9.6,-9.86 14.41,-16.42 -168.12,42.69 -105.68,-6.57 -120.09,197.03l62.45 -16.42c9.6,0 14.41,0 19.21,0l38.43 9.85c4.8,0 14.41,3.29 19.21,6.57 -158.51,98.52 105.68,-26.27 -62.44,16.42l-134.5 98.52c-4.8,-6.57 -9.61,-22.99 -9.61,-19.7l-33.62 -65.68c-4.81,-6.57 52.84,-52.55 -52.84,-36.13 -144.1,22.99 -4.8,45.98 -9.61,131.36 0,0 86.47,62.4 -67.25,39.41 -62.44,-9.85 -72.05,-62.4 -120.08,-29.56 -72.05,52.55 43.23,-55.82 -28.82,36.13l-33.63 45.97c19.22,9.85 72.05,26.27 81.66,45.98 -24.02,-32.84 48.04,-39.41 -33.62,3.28 -201.75,111.66 115.28,-3.28 -67.25,45.98l96.07 59.11 4.8 -62.4c4.81,9.86 24.02,-3.28 0,36.13 -19.21,32.84 24.02,19.7 -38.43,6.57 38.43,29.55 67.25,16.41 96.07,19.7 -9.6,118.22 62.45,-95.24 -9.6,45.97 -43.23,82.1 0,13.14 -67.25,62.4l-43.23 29.55c52.83,32.84 72.05,29.56 144.1,36.13 48.04,-3.29 4.8,13.13 86.46,-26.27l230.57 -160.92c629.26,-522.15 744.54,-1763.48 168.12,-2541.78 -33.62,-45.97 -28.82,-32.83 -48.03,-78.81 -110.48,-62.39 -182.54,-190.47 -437.12,-315.26 -129.69,-65.68 -422.7,-131.36 -552.4,-137.93 -1157.64,-59.11 -1700.43,1129.68 -1508.29,2078.75 81.66,410.49 100.87,308.69 177.73,564.84zm-1085.59 4035.97l24.02 -62.39c9.61,-29.56 14.41,-72.25 19.22,-105.09 14.41,-72.25 33.62,-128.07 67.24,-174.05 96.07,-128.07 187.34,-42.69 230.57,78.82 91.27,259.43 148.91,972.04 0,1175.65 -100.87,134.64 -206.55,-39.41 -235.37,-114.94 -48.03,-131.36 -67.25,-223.31 -81.66,-367.8 -4.8,-72.25 -9.61,-141.21 -9.61,-213.46 0,-39.41 -14.41,-210.17 -14.41,-216.74zm1210.48 433.48c110.48,-594.39 -293.01,-1224.91 -821.39,-1293.87 -365.07,-49.26 -634.06,55.82 -826.2,249.58 -192.14,193.75 -278.6,400.64 -321.84,738.89 -115.28,834.12 566.81,1500.76 1330.57,1234.76 182.53,-62.39 187.33,-108.37 254.58,-157.63 288.21,-206.89 321.83,-453.18 384.28,-771.73zm979.91 -1054.15c-139.3,-243.01 -326.64,-315.25 -648.47,-187.18 -177.73,72.25 -485.15,285.7 -326.64,518.86 86.47,121.51 153.71,98.52 182.53,282.42 24.02,134.65 19.22,755.31 -19.21,880.1 -43.23,147.78 -124.89,206.89 -100.87,364.52 33.62,16.42 57.64,59.11 105.67,85.38 158.52,78.82 672.49,167.49 845.42,-32.84 96.07,-108.37 19.21,-210.17 -19.22,-302.12 -81.66,-197.04 -96.07,-1047.58 -4.8,-1178.94 28.82,-39.41 91.26,-68.96 139.3,-16.42 86.46,91.95 -72.05,725.76 480.35,482.74 542.79,-233.16 163.31,-1018.02 -33.63,-1103.4 -225.76,-91.96 -417.9,183.9 -600.43,206.88zm-3155.88 -7001.38c-139.31,-137.93 -43.24,-413.78 -43.24,-449.9 4.81,-111.65 9.61,-39.41 -14.41,-72.25 -72.05,-95.23 -537.99,-118.22 -566.81,288.99 -43.23,738.89 898.25,1152.67 1186.46,403.93 28.82,-78.82 81.66,-269.29 187.34,-279.14 105.67,160.91 19.21,292.27 -19.22,453.19 -105.67,430.19 792.58,249.58 451.53,-614.1 -72.05,-183.9 -172.92,-308.69 -355.46,-338.25l-81.66 -16.42c-441.92,-65.68 -595.63,486.02 -744.53,623.95zm3588.19 2242.94c19.21,288.99 52.84,568.12 24.02,857.11 -14.41,151.06 -24.02,243.01 -67.25,367.8 -38.43,118.23 -76.86,200.32 -235.37,187.19 28.82,75.53 -52.84,32.84 72.05,62.39l-81.66 68.97 100.88 -9.86c0,82.1 24.01,45.98 0,82.1 14.41,26.27 48.03,42.69 76.85,32.84 -43.23,124.79 -28.82,52.55 -67.25,108.37 -4.8,3.29 -9.6,9.86 -9.6,13.14l-19.22 36.12c-24.02,-101.8 -9.61,-26.27 -38.43,-62.39l9.61 -88.67c19.21,-42.69 24.02,-3.28 19.21,-62.39 -24.01,-9.86 -120.08,19.7 -52.83,19.7l-91.27 78.81c-57.64,52.55 -57.64,26.28 -124.89,-3.28 4.8,9.85 9.61,19.7 14.41,29.56l19.21 45.97c19.22,45.98 24.02,-19.7 4.81,42.69 -48.04,16.42 38.43,-36.12 -43.23,22.99l-33.63 36.12c28.82,-128.07 72.05,-49.26 43.23,-108.37 -28.82,-59.11 48.04,19.71 -43.23,-49.26 0,36.13 -9.6,65.68 -9.6,68.97 -4.81,49.26 4.8,55.82 19.21,85.38l28.82 62.39c-76.86,-13.13 -120.09,-39.4 -153.71,-98.51 52.84,-13.14 28.82,-13.14 96.07,-19.71 -4.81,-6.57 -9.61,-13.13 -9.61,-19.7 -4.8,-6.57 -9.61,-9.85 -14.41,-19.7l-19.21 -118.23c81.66,-16.42 48.03,9.85 81.66,-68.96 -129.7,49.26 -129.7,39.41 -139.3,78.81 -14.42,68.97 -4.81,-3.28 4.8,49.26 -52.84,-32.84 -43.23,-62.39 -105.68,-68.96 -52.84,-3.28 4.81,-9.85 -91.26,45.98l-19.22 -141.21c-24.02,88.66 4.81,78.81 0,144.49l-134.5 -75.53c67.25,-82.1 48.04,-13.14 96.07,-118.22 -148.9,22.98 -38.42,29.55 -120.08,95.23 -19.22,-65.68 -4.81,-16.42 -33.63,-55.83l-43.23 -39.4c24.02,-68.97 33.63,-105.09 -19.21,-78.82l-62.45 -3.28c-33.62,-3.29 -86.46,-6.57 -67.25,-78.82 14.41,-75.53 14.41,-68.96 -62.44,-75.53l-43.23 0c28.82,-39.4 -4.81,-6.57 24.02,6.57l72.05 32.84c-4.81,6.57 -9.61,13.14 -14.41,19.7l-62.45 78.82 38.43 137.92c4.8,-6.56 9.61,-13.13 14.41,-16.42l24.02 -22.98c38.43,-32.84 38.43,-3.29 57.64,-59.11 43.23,22.98 28.82,16.42 62.44,39.4l38.43 26.28c4.81,-6.57 9.61,6.56 19.22,13.13l-72.06 -3.28c-4.8,0 -4.8,0 -9.6,3.28 -124.89,16.42 -38.43,-19.7 -76.86,75.53 -28.82,-59.11 9.61,-22.99 -72.05,-6.57l-43.23 9.86c187.33,325.11 816.59,545.13 1229.69,499.16 76.85,-9.86 168.12,-22.99 249.78,-42.7 28.82,-6.56 72.05,-13.13 105.67,-26.27l105.68 -62.39c-72.05,-6.57 -91.27,-3.29 -144.1,-36.13l43.23 -29.55c67.25,-49.26 24.02,19.7 67.25,-62.4 72.05,-141.21 0,72.25 9.6,-45.97 -28.82,-3.29 -57.64,9.85 -96.07,-19.7 62.45,13.13 19.22,26.27 38.43,-6.57 24.02,-39.41 4.81,-26.27 0,-36.13l-4.8 62.4 -96.07 -59.11c182.53,-49.26 -134.5,65.68 67.25,-45.98 81.66,-42.69 9.6,-36.12 33.62,-3.28 -9.61,-19.71 -62.44,-36.13 -81.66,-45.98l33.63 -45.97c72.05,-91.95 -43.23,16.42 28.82,-36.13 48.03,-32.84 57.64,19.71 120.08,29.56 153.72,22.99 67.25,-39.41 67.25,-39.41 4.81,-85.38 -134.49,-108.37 9.61,-131.36 105.68,-16.42 48.03,29.56 52.84,36.13l33.62 65.68c0,-3.29 4.81,13.13 9.61,19.7l134.5 -98.52c168.12,-42.69 -96.07,82.1 62.44,-16.42 -4.8,-3.28 -14.41,-6.57 -19.21,-6.57l-38.43 -9.85c-4.8,0 -9.61,0 -19.21,0l-62.45 16.42c14.41,-203.6 -48.03,-154.34 120.09,-197.03 -4.81,6.56 -9.61,9.85 -14.41,16.42 -4.81,6.56 -9.61,9.85 -14.41,16.41 0,6.57 -14.41,29.56 -19.22,36.13 -33.62,65.68 -14.41,-88.67 -33.62,88.66 62.44,-19.7 96.07,-16.41 120.09,-85.38 14.41,-32.84 -19.22,-75.53 -33.63,-101.8l-33.62 -52.54c0,0 -4.81,-3.29 -4.81,-9.86 0,-3.28 -4.8,-3.28 -9.6,-6.56 24.01,-19.71 38.42,-32.84 43.23,0l19.21 -108.37c-100.87,32.84 -24.02,26.27 -96.07,13.13 -67.25,-16.42 19.22,3.29 -81.66,-42.69 19.22,65.68 -4.8,91.95 28.82,124.79 14.41,19.7 38.43,0 67.25,13.14 4.81,3.28 19.22,42.69 19.22,45.97l-38.43 16.42c-14.41,-26.27 -48.04,-22.99 -76.86,-26.27 -48.03,-13.14 4.81,-6.57 -28.82,-9.85l-28.82 3.28c0,0 -9.61,0 -9.61,0l-24.01 3.29c-4.81,0 -9.61,0 -9.61,-3.29l-110.48 -68.96 -38.43 72.25c-33.62,52.54 -43.23,62.39 -24.01,144.49 24.01,-32.84 48.03,-85.38 105.67,-101.8l67.25 -6.57c0,-6.57 4.8,-6.57 4.8,-9.85 28.82,75.53 9.61,49.26 67.25,78.81 33.63,19.71 4.81,3.29 67.25,13.14l-115.28 105.08c-91.27,-111.65 -168.12,-88.66 -158.52,-9.85l38.43 91.95c-100.87,19.71 48.04,-19.7 -33.62,6.57 -144.11,52.54 96.07,-68.96 -33.63,19.71 -4.8,3.28 -28.82,26.27 -33.62,29.55l-43.23 39.41 -72.06 -98.52 52.84 -55.83c0,-3.28 0,-6.57 0,-6.57 0,-3.28 0,-6.56 0,-6.56l48.04 -68.97c-19.22,-26.27 24.02,-22.98 -62.45,-59.11 14.41,-91.95 33.63,-42.69 72.05,-108.37 9.61,-16.42 14.42,-3.28 9.61,-29.55 -4.8,0 -33.62,0 -33.62,3.28 -57.64,19.7 -48.04,42.69 -48.04,75.53l-96.07 -52.54c-91.26,-55.83 -38.42,3.28 -57.64,-65.68l67.25 -62.4c0,-9.85 4.8,-9.85 9.61,-16.42 -4.81,-3.28 -14.41,-9.85 -24.02,-9.85 -76.86,-6.57 -38.43,22.99 -33.62,49.26l0 -157.63c19.21,105.09 0,22.99 33.62,32.84l100.87 26.27c0,-6.56 -4.8,-13.13 -4.8,-19.7l-72.05 -98.52c100.87,3.29 67.25,-3.28 110.48,-29.55l28.82 -29.56c-24.02,6.57 -62.45,-9.85 -67.25,-42.69 -4.8,-6.57 -9.61,-9.85 -14.41,-16.42 -4.8,16.42 -24.02,78.81 -28.82,82.1l-19.22 42.69c0,-3.28 -4.8,9.85 -9.6,13.13l-38.43 -78.81c9.61,-68.96 0,-131.36 0,-216.74 4.8,-174.05 -43.23,-151.06 38.43,-174.05 -9.61,6.57 -14.41,-82.1 -9.61,26.27 0,59.11 14.41,65.68 67.25,95.24 -4.8,13.13 -67.25,36.12 19.21,75.53 24.02,-36.13 19.22,-26.27 38.43,-78.82l24.02 -137.92 139.3 -36.13c0,-3.28 9.61,-3.28 14.41,-3.28l-67.25 -78.82c0,-3.28 9.61,-6.56 9.61,-6.56 0,0 9.6,-3.29 9.6,-6.57l9.61 -9.85c0,0 19.22,29.55 -4.8,-6.57 -19.22,-36.13 -43.23,-3.29 -57.64,9.85 -4.81,-105.09 86.46,-82.1 -86.47,-65.68 33.63,-95.23 -57.64,-68.96 86.47,-52.54 -91.27,0 -67.25,-68.96 -134.5,-82.1 -76.86,-13.14 -38.43,29.55 -115.28,91.95 0,-183.9 0,-59.11 -48.04,-108.37z"/>
  </g>
 </g>
</svg>
