<?xml version="1.0" encoding="UTF-8"?>
<!DOCTYPE svg PUBLIC "-//W3C//DTD SVG 1.1//EN" "http://www.w3.org/Graphics/SVG/1.1/DTD/svg11.dtd">
<!-- Creator: CorelDRAW (Versão OEM) -->
<svg xmlns="http://www.w3.org/2000/svg" xml:space="preserve" width="107mm" height="32mm" version="1.1" style="shape-rendering:geometricPrecision; text-rendering:geometricPrecision; image-rendering:optimizeQuality; fill-rule:evenodd; clip-rule:evenodd"
viewBox="0 0 10700 3200"
 xmlns:xlink="http://www.w3.org/1999/xlink"
 xmlns:xodm="http://www.corel.com/coreldraw/odm/2003">
 <defs>
  <style type="text/css">
   <![CDATA[
    .fil0 {fill:#0BB8F4;fill-rule:nonzero}
    .fil1 {fill:#0F4659;fill-rule:nonzero}
   ]]>
  </style>
 </defs>
 <g id="Camada_x0020_1">
  <metadata id="CorelCorpID_0Corel-Layer"/>
  <g id="_1924892857776">
   <path class="fil0" d="M6566.28 911.96c-0.2,0.34 -0.55,0.66 -0.59,1.01 -0.03,0.36 0.27,0.77 0.41,1.18 0.2,-0.31 0.41,-0.66 0.62,-0.98 -0.15,-0.41 -0.3,-0.8 -0.44,-1.21z"/>
   <path class="fil0" d="M6553.91 2865.68c0.12,-0.5 0.24,-1.03 0.35,-1.53 -0.66,-0.12 -1.31,-0.23 -1.97,-0.35 0.18,0.85 0.36,1.7 0.55,2.54 0.35,-0.23 0.73,-0.46 1.07,-0.66z"/>
   <path class="fil0" d="M6560.36 2795.18l-0.23 0.07c0.57,1.3 1.14,2.61 1.71,3.91 -0.5,-1.33 -0.98,-2.67 -1.48,-3.98z"/>
   <path class="fil0" d="M6560.03 2946.11c-9.07,10.34 -9.07,10.34 -3.86,24.22 1.44,-8.94 2.42,-15.14 3.86,-24.22z"/>
   <path class="fil0" d="M6560.71 2814.72c-0.64,-0.6 -1.3,-1.17 -2.35,-2.08 -0.64,1.23 -1.24,2.47 -1.85,3.7 0.68,0.55 1.69,1.79 2.01,1.53 0.89,-0.73 1.49,-2.08 2.19,-3.15z"/>
   <polygon class="fil0" points="6558.24,2841.32 6557.6,2841.19 6557.8,2842.1 "/>
   <path class="fil0" d="M6559.43 2795.42l0.69 -0.19c-0.03,-0.07 -0.05,-0.14 -0.09,-0.2l-0.6 0.39z"/>
   <path class="fil0" d="M6573.62 2187.44c0.35,-5.86 0.69,-11.92 1.26,-21.62 -3.89,12.54 -3.98,13 -1.26,21.62z"/>
   <path class="fil0" d="M6573.75 2189.22c-0.21,1.91 -0.43,3.81 -0.64,5.73 0.69,-0.09 1.42,-0.2 2.11,-0.27 -0.48,-1.81 -0.96,-3.64 -1.47,-5.46z"/>
   <polygon class="fil0" points="6566.5,2745.7 6565.95,2746.78 6566.8,2746.94 "/>
   <path class="fil0" d="M6573.62 2187.44c-0.02,0.34 -0.04,0.71 -0.07,1.07 0.07,0.23 0.14,0.46 0.21,0.71 0.02,-0.34 0.07,-0.67 0.12,-1.01 -0.1,-0.29 -0.17,-0.5 -0.26,-0.77z"/>
   <path class="fil0" d="M6588.29 584.33c0,0.71 0.06,1.42 0.09,2.12 -0.03,-0.7 -0.07,-1.41 -0.09,-2.12z"/>
   <path class="fil0" d="M6572.01 972.69c0.34,0.8 0.76,1.53 1.17,2.29 0.57,-0.59 1.16,-1.22 1.73,-1.81 -0.64,-0.48 -1.23,-1.1 -1.92,-1.39 -0.25,-0.1 -1,0.84 -0.98,0.91z"/>
   <path class="fil0" d="M6546.21 2564.73c-0.64,0.09 -1.33,0.23 -1.99,0.32l0 11.03c1.1,-0.16 2.17,-0.33 3.25,-0.51 -0.42,-3.61 -0.83,-7.23 -1.26,-10.84z"/>
   <path class="fil0" d="M6569.12 2730.21c-0.28,-0.87 -0.76,-1.62 -1.17,-2.42 -0.55,0.71 -1.1,1.44 -1.67,2.15 0.68,0.52 1.31,1.09 2.04,1.44 0.15,0.07 0.87,-0.94 0.8,-1.17z"/>
   <path class="fil0" d="M6571.82 2833.83c-0.98,-0.09 -1.96,-0.21 -2.95,-0.3 -0.18,4.96 -0.39,9.95 -0.57,14.91 0.48,0.05 0.99,0.08 1.44,0.09 0.69,-4.91 1.39,-9.8 2.08,-14.7z"/>
   <path class="fil0" d="M6556.73 2566.3c0.85,-0.11 1.7,-0.25 2.56,-0.37 0.71,-19.92 2.63,-39.98 1.74,-59.79 -0.69,-15.8 -0.76,-31.03 2.52,-46.25 1.21,-5.76 0.43,-10.33 -5.54,-15 -6.13,38.84 -1.65,76.55 -3.66,113.72 -0.16,2.5 1.56,5.12 2.38,7.69z"/>
   <path class="fil0" d="M6522.82 612.48c-0.09,-0.92 -0.18,-1.86 -0.27,-2.77 -0.27,0.39 -0.57,0.82 -0.5,1.05 0.16,0.61 0.48,1.17 0.77,1.72z"/>
   <path class="fil0" d="M6522.49 609.14c0.02,0.19 0.04,0.37 0.04,0.57 0.09,-0.11 0.16,-0.22 0.24,-0.31 1.07,-1.4 2.17,-2.77 3.26,-4.15 0,-0.09 0.03,-0.2 0.03,-0.31 -0.07,-0.03 -0.14,-0.05 -0.23,-0.07 -1.13,1.42 -2.22,2.85 -3.34,4.27z"/>
   <path class="fil0" d="M6522.95 597.44c1.12,0.29 2.27,0.62 3.39,0.94 0.06,-0.02 0.15,-0.07 0.24,-0.1 0,-0.09 0.03,-0.18 0.03,-0.29 -1.21,-0.19 -2.45,-0.37 -3.66,-0.55z"/>
   <path class="fil0" d="M6422.1 3111.94c0.13,-0.48 0.25,-0.94 0.39,-1.42 -0.44,0.3 -0.87,0.62 -1.31,0.91 0.32,0.17 0.62,0.33 0.92,0.51z"/>
   <path class="fil0" d="M6523.25 613.38c-0.15,-0.3 -0.28,-0.62 -0.42,-0.92 0.05,0.44 0.09,0.87 0.12,1.29l0.3 -0.37z"/>
   <path class="fil0" d="M5631.53 1799.69c0.35,0.39 0.66,0.8 1.01,1.19 -0.03,-0.3 0,-0.62 -0.12,-0.87 -0.11,-0.25 -0.6,-0.22 -0.89,-0.32z"/>
   <path class="fil0" d="M6532.78 595.92c-2.08,0.77 -4.13,1.57 -6.2,2.37 -0.18,2.22 -0.34,4.44 -0.52,6.66 2.08,0.62 4.19,1.26 6.2,1.87 -1.35,19.79 4.37,24.18 22.37,16.2 -3.07,-0.42 -6.13,-0.82 -10.8,-1.44 0.51,-9.77 1.01,-19.63 1.56,-29.94 12.35,-6.36 14.29,-23.01 19.64,-36.26 0.78,-1.94 -0.32,-6.6 -1.83,-9.1 -2.42,0.46 -4.82,1.26 -7.11,2.68 -0.18,0.55 -0.41,1.07 -0.57,1.62 -0.48,1.42 -1.78,2.33 -3.5,4.44 -0.16,-1.05 -0.34,-1.97 -0.55,-2.98 -10.14,6.89 -20.11,13.85 -30.03,20.84 0.09,4.94 0.34,9.97 1.25,15.26 0.44,2.4 6.48,3.32 10.09,7.78z"/>
   <path class="fil0" d="M6573.89 2474.48c-0.02,-0.42 -0.05,-0.81 -0.07,-1.22 -0.04,-0.11 -0.07,-0.23 -0.09,-0.37 -0.07,0.24 -0.11,0.46 -0.19,0.69 0.12,0.3 0.24,0.6 0.35,0.9z"/>
   <path class="fil0" d="M6554.3 2926.78c3.59,7.34 7.26,11.41 13.71,8.18 -3.92,-3.48 -6.18,-12.01 -13.71,-8.18z"/>
   <path class="fil0" d="M6564.49 2980.88c0.78,-0.44 1.95,-0.65 2.22,-1.38 0.25,-0.75 -0.41,-2.03 -0.69,-3.09 -0.77,0.47 -1.87,0.72 -2.21,1.5 -0.28,0.61 0.43,1.96 0.68,2.97z"/>
   <path class="fil0" d="M6550.86 2652.64c3.66,-8.09 7.23,-13.72 1.09,-20.81 -0.31,6.13 -0.64,12.29 -1.09,20.81z"/>
   <path class="fil0" d="M6574.58 2476.25c-0.18,-0.61 -0.45,-1.18 -0.68,-1.78 0.05,0.89 0.09,1.78 0.16,2.65 0.18,-0.27 0.57,-0.71 0.52,-0.87z"/>
   <path class="fil0" d="M6553.37 2612.76c-0.29,-0.13 -0.75,0.25 -1.14,0.41 0.05,0.55 0.07,1.1 0.11,1.65 0.63,-0.27 1.22,-0.55 1.84,-0.83 -0.25,-0.43 -0.46,-1.09 -0.81,-1.23z"/>
   <path class="fil0" d="M5677.65 1832.68c0,0 0,0 0,0 0,0 0,0 0,0 0,0 0,0 0,0 0,0 0,0 0,0z"/>
   <path class="fil0" d="M6570.83 2460.13c0.96,4.26 1.94,8.52 2.9,12.77 1.44,-4.64 2.31,-9.19 -2.9,-12.77z"/>
   <path class="fil0" d="M5860.43 1695.35l0.09 0.6c-0.02,0.09 -0.07,0.2 -0.11,0.31 0.11,0.03 0.2,0.03 0.29,0.05l-0.27 -0.96z"/>
   <path class="fil0" d="M6546.94 3073.93c-0.35,-0.18 -0.83,-0.66 -1.03,-0.5 -0.3,0.25 -0.39,0.92 -0.71,1.74 0.71,-0.52 1.23,-0.89 1.74,-1.24z"/>
   <path class="fil0" d="M6631.47 906.32c1.37,3.71 0.21,9.04 0.21,13.52 1.26,0.19 2.81,0.69 2.88,0.41 3.86,-12.85 6.66,-25.86 8.55,-39.64 -2.81,-8.89 -5.53,-17.83 -8.16,-26.78 -0.66,3.94 -1.47,7.87 -2.63,11.8 -3.64,12.45 -6.04,26.72 -0.85,40.69z"/>
   <path class="fil0" d="M6577.62 2420.97c-0.68,6.84 -1.12,11.14 -1.53,15.23 3.61,-5.81 3.64,-6.31 1.53,-15.23z"/>
   <path class="fil0" d="M5943.39 1678.17c-11.68,-4.55 -13.29,-2.84 -11.25,10.2 0.14,0.87 0.18,1.79 0.25,2.7 1.35,-2.31 2.58,-4.8 4.21,-6.72 1.8,-2.2 4.05,-3.76 6.79,-6.18z"/>
   <path class="fil0" d="M5932.39 1691.06c-0.1,0.16 -0.19,0.32 -0.28,0.48 0,0.23 -0.02,0.35 0,0.57 0.11,-0.04 0.23,-0.11 0.34,-0.18 -0.02,-0.3 -0.04,-0.57 -0.06,-0.87z"/>
   <path class="fil0" d="M6575.98 2437.29c0.05,-0.35 0.07,-0.72 0.11,-1.08 -0.18,0.27 -0.22,0.41 -0.41,0.69 -0.02,0.52 -0.04,1.02 -0.07,1.55 0.12,-0.39 0.23,-0.77 0.37,-1.16z"/>
   <path class="fil0" d="M6577.36 926.4c-0.26,3.13 -0.48,5.79 -0.69,8.44 3.57,-1.63 4.09,-4.21 0.69,-8.44z"/>
   <path class="fil0" d="M6576.66 934.84c-0.13,0.07 -0.18,0.14 -0.32,0.2l-0.71 0.33 0.99 0.02c0.02,-0.18 0.02,-0.37 0.04,-0.55z"/>
   <path class="fil0" d="M6632.68 933.34c0.39,-0.69 1.05,-1.38 1.1,-2.1 0.02,-0.6 -0.69,-1.27 -1.13,-1.97 -0.27,1.05 -0.61,1.94 -0.73,2.9 -0.04,0.33 0.48,0.78 0.76,1.17z"/>
   <path class="fil0" d="M5974.39 1746.56c2.5,-2.33 5.06,-4.73 9.24,-8.62 -9.56,-2.91 -9.06,3.34 -9.24,8.62z"/>
   <path class="fil0" d="M6392.77 3128.49c-0.07,-0.03 -0.16,-0.05 -0.25,-0.08 0,0.17 0.02,0.32 0.02,0.51l0.23 -0.43z"/>
   <path class="fil0" d="M6084.98 1911.22c2.72,0 5.47,0 8.19,-0.02 -0.02,-0.09 -0.06,-0.21 -0.06,-0.32l0.36 0.32c-2.83,-3.16 -5.65,-5.01 -8.46,-0.37 0.04,0.02 0.09,0.02 0.13,0.02 -0.07,0.14 -0.11,0.26 -0.16,0.37z"/>
   <path class="fil0" d="M6401.31 3073.5c0,0.06 -0.03,0.15 -0.03,0.23 8.28,-2.5 9.09,-4.08 5.54,-10.89 -0.11,0 -0.25,0 -0.37,0.02 -1.75,3.52 -3.52,7.05 -5.28,10.57 0.05,0.02 0.07,0.07 0.14,0.07z"/>
   <path class="fil0" d="M6079.63 1885.42l0.26 -0.67c-0.06,0.05 -0.1,0.07 -0.15,0.09l-0.11 0.58z"/>
   <path class="fil0" d="M5974.39 1746.56c-0.11,0.11 -0.25,0.23 -0.34,0.32 0.04,0.14 0.09,0.28 0.14,0.39 0.07,0.02 0.11,0.04 0.18,0.09 0,-0.27 0.02,-0.55 0.02,-0.8z"/>
   <path class="fil0" d="M6180.41 1861.61c0.02,-1.14 0.05,-2.28 0.09,-3.45 -0.02,0.05 -0.04,0.09 -0.07,0.11 0,1.12 0,2.22 -0.02,3.34z"/>
   <path class="fil0" d="M5632.53 1800.89c0.03,0.25 0.07,0.46 0.09,0.71 0.07,0.02 0.14,0.07 0.21,0.09 0,-0.13 0.03,-0.27 0.03,-0.41 -0.1,-0.14 -0.21,-0.25 -0.33,-0.39z"/>
   <path class="fil0" d="M6494.89 2659.94l0 -8.26c-0.37,0 -0.74,0 -1.11,0l0 8.28c0.37,0 0.74,-0.02 1.11,-0.02z"/>
   <path class="fil0" d="M6513.38 805.36c-1.12,10.54 -2.26,21.08 -3.48,32.34 3.04,1.37 5.42,2.44 10.02,4.51 -2.92,-13.75 5.52,-26.19 -6.54,-36.85z"/>
   <path class="fil0" d="M6501.2 2445.68c-2.32,21.7 -5.68,43.41 -0.94,65.3 -2.11,-21.82 4.55,-43.43 0.94,-65.3z"/>
   <path class="fil0" d="M6489.15 2771.92c0.37,-2.26 0.73,-4.53 1.08,-6.8 -0.83,1.93 -1.68,3.85 -2.52,5.77 0.48,0.34 0.96,0.69 1.44,1.03z"/>
   <path class="fil0" d="M6505.39 3062.77c-0.27,-0.39 -0.52,-0.75 -0.8,-1.14 0.55,-0.39 1.07,-0.76 1.62,-1.12 0.07,0.52 0.3,1.12 0.17,1.53 -0.15,0.34 -0.65,0.5 -0.99,0.73zm9.28 19.73c1.72,-2.85 2.75,-6.47 2.43,-11.36 -2.77,2.47 -5.51,4.98 -9.58,8.67 -0.17,-4.21 -0.78,-6.61 -0.26,-8.39 4.3,-14.51 3.16,-19.28 -6.56,-25.72l0.07 -1.16 -0.14 0.73c-2.1,10.45 -4.21,20.91 -6.29,31.36 5.84,15.55 0.66,31.59 0.26,47.55 3.33,-0.91 6.63,-1.87 9.94,-2.83 0.03,-10.23 1.9,-20.18 3.62,-30.11 0.57,-3.38 4.57,-5.51 6.51,-8.74z"/>
   <path class="fil0" d="M6540.64 2640.75c1.12,-7.87 1.81,-12.74 2.52,-17.61 -3.28,3.95 -7.58,8.41 -2.52,17.61z"/>
   <path class="fil0" d="M6539.75 3063.4c0.48,0.34 1.35,-0.32 2.04,-0.55 -0.36,-0.87 -0.57,-2.2 -1.1,-2.49 -0.59,-0.33 -1.49,0.29 -2.24,0.52 0.43,0.87 0.71,2.08 1.3,2.52z"/>
   <path class="fil0" d="M6490.23 2765.12c0.14,-0.31 0.28,-0.63 0.42,-0.96 -0.03,-0.36 -0.03,-0.73 -0.05,-1.09 -0.04,0.23 -0.09,0.48 -0.16,0.71 -0.07,0.46 -0.14,0.89 -0.21,1.34z"/>
   <path class="fil0" d="M6523.21 695.54c1.42,-8.08 5.56,-16.04 0,-28l0 28z"/>
   <path class="fil0" d="M6491.28 2451.63c-0.69,0.53 -1.67,0.87 -1.92,1.63 -0.23,0.61 0.46,1.73 0.76,2.65 0.61,-0.44 1.23,-0.87 1.87,-1.31 -0.25,-0.98 -0.48,-1.99 -0.71,-2.97z"/>
   <path class="fil0" d="M6490.32 2757.73c0.09,1.78 0.18,3.56 0.27,5.35 0.34,-1.67 0.69,-3.36 1.05,-5.04 -0.46,-0.11 -0.89,-0.2 -1.32,-0.31z"/>
   <polygon class="fil0" points="6491.76,2734.91 6490.91,2735.29 6491.64,2736.01 "/>
   <path class="fil0" d="M6464.79 3130.64c-0.18,0.23 -0.18,0.73 -0.23,1.19 0.57,-0.14 1.14,-0.3 1.7,-0.43 -0.09,-0.3 -0.19,-0.6 -0.3,-0.9 -0.42,0.03 -0.94,-0.13 -1.17,0.14z"/>
   <path class="fil0" d="M6485.58 3123.31c0.74,-0.48 1.77,-0.78 2.04,-1.54 0.25,-0.63 -0.36,-1.84 -0.6,-2.81 -0.7,0.44 -1.83,0.64 -2.03,1.36 -0.23,0.75 0.37,1.96 0.59,2.99z"/>
   <polygon class="fil0" points="6486.78,3087.52 6486.89,3088.33 6486.89,3087.11 "/>
   <path class="fil0" d="M6491.44 2465.07c-0.61,-0.23 -1.23,-0.44 -1.84,-0.64 -1.24,2.86 -2.47,5.72 -5.06,11.78 4.07,-2.34 6.22,-2.68 6.72,-4.07 0.71,-1.95 0.18,-4.69 0.18,-7.07z"/>
   <path class="fil0" d="M6485.71 3070.28c-0.34,-0.21 -0.78,-0.66 -1,-0.53 -0.28,0.16 -0.37,0.82 -0.57,1.3 0.33,0.19 0.68,0.37 1.02,0.57 0.18,-0.46 0.37,-0.91 0.55,-1.34z"/>
   <path class="fil0" d="M5924.67 1840.83c0.14,0 0.25,-0.75 0.36,-1.17 -0.36,-0.15 -0.73,-0.45 -1.07,-0.45 -0.14,0.02 -0.26,0.75 -0.37,1.17 0.37,0.18 0.74,0.48 1.08,0.45z"/>
   <polygon class="fil0" points="5828.8,1794.85 5828.34,1793.46 5827.89,1794.83 "/>
   <path class="fil0" d="M5894.97 1761.06c0.57,-0.62 1.19,-1.19 1.74,-1.87 0.04,-0.02 -0.46,-1.19 -0.71,-1.17 -0.73,0.04 -1.46,0.41 -2.22,0.64 0.39,0.8 0.78,1.6 1.19,2.4z"/>
   <path class="fil0" d="M5859.99 1868.3c3,-2.47 5.99,-4.92 9.47,-7.78 -7.18,-6.95 -8.78,0.03 -9.47,7.78z"/>
   <path class="fil0" d="M6369.81 3120.56c-0.76,-0.14 -1.33,-2.01 -1.97,-3.11 0.91,-0.85 1.81,-2.35 2.69,-2.35 0.83,0.02 1.61,1.71 2.91,3.26 -1.67,1.08 -2.74,2.38 -3.63,2.2zm-3.83 -37.76c-0.06,-0.2 0.55,-1.15 0.69,-1.08 0.67,0.3 1.26,0.8 2.04,1.37 -0.58,0.67 -1.13,1.31 -1.65,1.95 -0.39,-0.73 -0.82,-1.44 -1.08,-2.24zm-58.23 -394.67l0.46 -0.89 0.3 0.99 -0.76 -0.1zm-71.11 381.58c-4.76,7.56 -9.81,14.71 -8.44,25.74 -7.29,-4.03 -13.45,-7 -19.37,-10.75 -5.08,-3.23 -7.8,-9.33 -5.97,-16.38 1.72,-6.72 4.35,-13.52 7.82,-18.85 6.86,-10.5 17.7,-11.39 25.59,-2.19 2.32,2.67 3.34,8.28 3.55,12.67 0.16,3.18 -1.51,7.07 -3.18,9.76zm-35.4 -309.55c2.51,4.6 4.61,6.93 4.96,9.65 0.18,1.56 -2.47,3.76 -3.84,5.66 -1.38,-1.98 -3.53,-3.73 -3.92,-6.02 -0.33,-2.02 1.29,-4.62 2.8,-9.29zm5.14 165.39c-0.29,0.32 -0.57,0.62 -0.86,0.94 -0.24,-0.39 -0.67,-0.8 -0.63,-1.15 0.03,-0.34 0.51,-0.64 0.81,-0.94 0.22,0.37 0.45,0.76 0.68,1.15zm-149.85 -949.29c-0.72,1.14 -1.42,2.31 -2.16,3.45 -0.3,-0.41 -0.59,-0.82 -0.89,-1.23 1.12,-0.87 2.24,-1.74 3.34,-2.59l0.55 0.3 -0.84 0.07zm-20.25 -65.12l-0.37 -1.23 0.81 0.04 -0.44 1.19zm-3.04 61.55c-0.66,0.2 -1.51,-0.55 -2.27,-0.89 0.46,-0.82 0.83,-2.04 1.47,-2.38 0.48,-0.27 1.3,0.52 1.99,0.89 -0.39,0.83 -0.69,2.2 -1.19,2.38zm-42.04 125.18c-0.27,-1.32 -0.57,-2.65 -0.85,-3.98 1.88,-0.84 3.75,-1.71 5.65,-2.56 0.3,1.44 0.96,4.05 0.81,4.14 -1.81,1.03 -3.71,1.67 -5.61,2.4zm-24.54 -113.51c5.63,-5.66 6.45,-18.99 16.39,-17 0.97,12.45 -4.89,19.31 -16.39,17zm-2.89 -81.95l-0.96 -0.92 1.2 -0.39 -0.24 1.31zm-36.82 177.07c-0.66,-1.1 -1.88,-2.24 -1.85,-3.32 0.04,-1.46 1,-2.88 2.17,-5.76 1.38,3.77 2.38,5.26 2.17,6.31 -0.22,1.13 -1.6,1.88 -2.49,2.77zm-30.26 18.05c-0.5,-0.78 -1.01,-1.53 -1.49,-2.31 1.03,-0.69 2.04,-1.38 3.09,-2.06 0.25,1.05 0.97,2.4 0.69,3.09 -0.3,0.73 -1.49,0.87 -2.29,1.28zm-82.27 -336.21c-0.27,-0.11 -0.62,-0.22 -1.03,-0.38 -0.64,-0.41 -1.31,-0.85 -1.31,-0.85 0.08,0.02 0.83,0.26 1.56,0.48 0.33,0.3 0.55,0.55 0.78,0.75 0.41,0.17 0.6,0.24 0,0 0.37,0.35 0.55,0.54 0,0 0.02,0 0,0 0,0 0,0 0,0 0,0zm-6.24 39.03c-0.76,-2.2 -1.52,-4.44 -2.29,-6.66 -0.09,-0.09 -0.16,-0.18 -0.26,-0.27l-0.82 0.18 0.64 -0.39 0.33 0.16c0.04,0.11 0.06,0.23 0.11,0.32 1.37,1.6 2.75,3.18 4.14,4.79 -0.62,0.63 -1.21,1.25 -1.85,1.87zm-24.75 -51.42c6.99,-3.2 13.58,-6.54 20.36,-9.2 8.87,-3.47 17.81,-6.51 26.82,-9.31 0.76,-0.22 2.11,2.95 3.8,5.45 -13.45,7.02 -25.92,13.49 -38.88,20.27 -3.41,-2.04 -8.21,-4.9 -12.1,-7.21zm8.76 30.92c-1.83,-0.66 -3.64,-1.32 -5.47,-1.99 0.35,-1 0.82,-2.85 1.01,-2.78 1.73,0.45 3.43,1.23 5.12,1.92 -0.23,0.96 -0.46,1.9 -0.66,2.85zm-1.97 24.36c-0.98,1.1 -2.4,1.53 -3.62,2.25 -0.36,-0.87 -0.73,-1.72 -1.09,-2.59 1.83,-1.83 3.68,-3.68 5.51,-5.54 0.51,0.53 0.99,1.06 1.48,1.56 -0.72,1.46 -1.3,3.25 -2.28,4.32zm-17.79 29.26c-8.24,-7.46 -10.84,-13.48 -7.89,-19.17 1.12,-2.08 3.7,-4.16 5.51,-4.02 4.64,0.27 9.22,1.8 14.13,2.87 0.25,14.44 -5.19,18.07 -11.75,20.32zm-11.67 34.61c-5.01,0.49 -11.18,-6.64 -11.48,-13.04 -0.3,-5.57 4.19,-11.72 8.6,-11.9 5.37,-0.2 9.44,5.95 9.88,14.21 0.39,7.11 -2.79,9.49 -7,10.73zm-8.69 -53.6c1.24,3.07 2.49,6.13 3.73,9.2 -1.24,1.07 -2.45,2.15 -3.66,3.23 -1.67,-2.68 -3.37,-5.41 -5.08,-8.08 1.67,-1.47 3.34,-2.91 5.01,-4.35zm-26.05 -39.22c4.39,-4.73 6.43,-6.93 8.85,-9.58 1.6,9.12 -2.97,7.24 -8.85,9.58zm-36.69 333.48c-0.18,-1.11 -0.68,-2.29 -0.46,-3.21 0.16,-0.7 1.22,-1.05 1.88,-1.55 0.2,1.05 0.73,2.24 0.5,3.06 -0.22,0.76 -1.24,1.15 -1.92,1.7zm-13.63 -234.03c-2.06,-5.56 -4.18,-8.56 -3.85,-10.94 1.08,-7.2 5.06,-10.61 13.09,-7.86 -2.67,5.42 -5.35,10.86 -9.24,18.8zm3.59 331.73c-4.51,-3.36 -6.15,-7.64 -4.67,-13.22 1.49,-5.55 4.51,-8.46 10.25,-5.92 -1.88,6.45 -3.57,12.22 -5.58,19.14zm-8.26 -90.71c1.06,-1.37 2.13,-3.91 3.14,-3.86 1.21,0.02 2.4,2.22 4.16,4.11 -1.76,1.72 -2.93,3.57 -3.52,3.3 -1.42,-0.62 -2.52,-2.29 -3.78,-3.55zm-4.07 -667.66c-0.34,0.23 -2.42,-2.06 -2.35,-3.04 0.13,-1.97 1.19,-3.82 2.42,-7.35 1.74,3.05 3.57,4.9 3.38,6.25 -0.25,1.67 -2.05,3.2 -3.45,4.14zm-26.28 357.52c-2.47,-1.24 -5.17,-2.56 -7.84,-3.89 -0.39,4.52 -0.78,9.15 -1.35,16.12 -3.78,-2.81 -6.75,-4.04 -8.63,-6.63 -2.81,-3.85 -4.75,-8.71 -7.2,-13.01 -4.46,-7.8 -2.68,-17.09 4.3,-19.56 3.46,-1.22 7.53,-1.92 10.77,-0.53 2.31,0.96 3.25,6.61 5.58,8.7 5.03,4.52 10.55,8.14 4.37,18.8zm-31.98 186.77c-2.21,-3.41 -4.77,-5.69 -4.59,-7.5 0.3,-2.95 2.33,-5.65 3.66,-8.46 1.83,2.01 4.96,3.84 5.12,6.01 0.16,2.65 -2.21,5.58 -4.19,9.95zm-1.51 -33.05c1.11,-0.87 3.64,1.42 5.57,2.26 -0.83,2.43 -1.29,6.5 -2.54,6.96 -2.82,1.07 -6.02,0.34 -10.11,0.34 2.79,-3.96 4.57,-7.52 7.08,-9.56zm-12.07 -192.08c-0.3,-0.34 -0.89,-0.8 -0.85,-1.03 0.21,-0.96 0.57,-1.83 0.92,-2.72 0.28,0.36 0.85,0.82 0.8,1.09 -0.18,0.92 -0.57,1.79 -0.87,2.66zm-1.67 299.99c-0.48,0.62 -1.42,0.62 -2.22,0.83 0,0.13 0.03,0.25 0.03,0.38 -0.19,0.02 -0.35,0.1 -0.55,0.12 -0.28,0.46 -0.57,0.94 -0.87,1.41 0.06,-0.43 0,-1.12 0.18,-1.27 0.18,-0.14 0.46,-0.12 0.69,-0.14 0.09,-0.16 0.18,-0.3 0.29,-0.46 0.07,-0.02 0.14,-0.02 0.23,-0.04 -0.09,-1.08 -0.34,-2.25 0,-3.03 0.53,-1.32 1.47,-2.49 2.45,-3.31 0.27,-0.23 1.23,0.92 1.9,1.41 -0.69,1.41 -1.24,3.01 -2.13,4.1zm-27.95 146.09c-0.16,-0.12 -0.16,-0.66 -0.23,-1.01 0.32,-0.14 0.66,-0.28 1.01,-0.43 0.07,0.57 0.18,1.14 0.25,1.69 -0.34,-0.07 -0.73,-0.04 -1.03,-0.25zm112.14 -380.64c0.35,-0.78 0.26,-0.55 0,0 0.35,-0.39 0.51,-0.55 0,0.02 -0.13,0.34 -0.31,0.8 -0.55,1.3l-0.22 0.53 -0.08 -0.87c0.35,-0.39 0.63,-0.71 0.85,-0.98zm-138.97 -230.1c-1.17,-1.94 -2.95,-3.75 -3.29,-5.93 -0.21,-1.36 1.76,-3.33 2.76,-5 1.47,1.67 2.94,3.36 5.04,5.78 -2.06,2.36 -3.27,3.76 -4.51,5.15zm-3.84 350.56c-5.88,-0.41 -10.64,-6.97 -9.63,-12.62 0.57,-3.2 3.45,-7.23 5.81,-8.01 3.5,-1.12 8.57,6.89 7.84,12.42 -0.45,3.32 -2.97,6.16 -4.02,8.21zm-8.62 -307.83l-0.1 1.28 -0.93 -0.78 1.03 -0.5zm-98.15 25.55c-0.96,-0.51 -1.74,-1.65 -2.59,-2.54 0.74,-1.03 1.44,-2.07 2.73,-3.85 0.73,2.11 1.39,3.32 1.48,4.6 0.05,0.58 -1.27,1.97 -1.62,1.79zm311.46 -234.24c0.27,0.02 0.52,0.71 0.77,1.07 -0.29,0.35 -0.59,0.97 -0.89,0.94 -0.27,-0.02 -0.53,-0.68 -0.78,-1.07 0.3,-0.32 0.6,-0.94 0.9,-0.94zm21.17 232.09c0.32,1.03 0.64,2.05 0.87,3.11 0.03,0.09 -0.64,0.41 -0.98,0.61 -0.53,-0.82 -1.06,-1.67 -1.56,-2.51 0.55,-0.39 1.13,-0.81 1.67,-1.21zm9.08 -9.43c-0.43,0.89 -0.89,1.81 -1.33,2.7l-0.31 -0.32c0.55,-0.8 1.09,-1.58 1.64,-2.38zm9.95 -126.92c1.45,-0.48 3.32,1.26 7.25,3 -5.44,4 -6.93,5.99 -8.16,5.76 -1.33,-0.25 -2.43,-2.63 -3.64,-4.07 1.51,-1.65 2.84,-4.12 4.55,-4.69zm187.35 -30.14c0.34,0.8 0.68,1.62 1.03,2.42 -0.32,0.34 -0.64,0.69 -0.98,1.03 -0.37,-0.87 -0.76,-1.72 -1.06,-2.6 -0.02,-0.1 0.67,-0.56 1.01,-0.85zm15.6 24.7c-3.45,9.08 -3.45,9.08 -14.2,8.1 5.85,-3.37 9.62,-5.5 14.2,-8.1zm-11.85 -164.43l0.18 0.99c5.79,3.29 11.56,6.6 17.71,10.1 -10.66,6.25 -15.45,3.27 -17.96,-10.47l0.07 -0.62zm19.26 35.04c-0.28,0.32 -0.59,0.96 -0.87,0.92 -0.27,-0.03 -0.5,-0.67 -0.78,-1.06 0.3,-0.34 0.6,-0.68 0.89,-1 0.26,0.38 0.51,0.75 0.76,1.14zm6.22 81.45c2.93,1.26 6.22,5.6 7.14,9.46 1.37,5.87 -4.51,12.54 -12.01,12.36 -1.49,-2.06 -5.37,-5.1 -6.36,-9.31 -1.28,-5.61 6.63,-14.48 11.23,-12.51zm-12.35 42.34c-1.42,-3.23 -2.83,-6.47 -4.25,-9.72 1.03,-0.62 2.03,-1.24 3.06,-1.88 1.19,3.29 2.38,6.58 3.54,9.86 -0.78,0.6 -1.57,1.17 -2.35,1.74zm24.2 25.96c4.35,0.61 8.64,1.25 13.29,1.92 0.22,-4.05 0.39,-6.84 0.59,-11.03 3.13,1.42 6.02,2.73 10.32,4.65 -1.69,5.71 -2.45,11.87 -5.03,16.07 -4.74,7.8 -9.45,8.06 -15.84,3.09 -4.46,-3.47 -7.43,-7.43 -3.33,-14.7zm25.16 -83.38c0.16,1.24 -0.92,2.8 -1.74,4.88 -1.26,-1.42 -2.77,-2.31 -2.81,-3.36 -0.07,-1.24 0.94,-3.34 1.78,-3.69 0.75,-0.27 2.63,1.19 2.77,2.17zm-0.78 -41.66c-0.53,4.61 -2.11,7.13 -5.93,5.78 -0.61,-0.23 -1.46,-1.78 -1.34,-2.45 0.98,-5.28 3.45,-5.97 7.27,-3.33zm16.31 32.74c0.18,-0.04 0.46,0.76 0.68,1.17 -0.68,0.34 -1.39,0.69 -2.08,1.03 -0.18,-0.46 -0.41,-0.89 -0.59,-1.35 0.66,-0.3 1.3,-0.7 1.99,-0.85zm16.35 -1.27c2.01,0.82 5.51,0.93 6.45,3.01 0.87,2.04 -0.18,6.91 -1.62,9.06 -2.36,3.5 -5.72,5.74 -8.49,8.35 2.93,5.21 4.42,7.84 6.54,11.66 -2.72,0.63 -5.15,2.06 -5.83,1.15 -1.94,-2.59 -4.92,-6.7 -4.41,-9.15 1.6,-7.89 4.57,-15.32 7.36,-24.08zm-0.46 90.93c-0.2,0.05 -0.55,-0.79 -0.82,-1.25 0.75,-0.39 1.48,-0.89 2.26,-1.1 0.21,-0.05 0.55,0.8 0.85,1.23 -0.78,0.42 -1.51,0.9 -2.29,1.12zm-6.06 -40.18c-0.25,-0.37 -0.5,-0.73 -0.75,-1.12 0.3,-0.32 0.6,-0.9 0.84,-0.9 0.26,0.03 0.51,0.69 0.73,1.06 -0.27,0.32 -0.54,0.64 -0.82,0.96zm40 24.49c3.64,4.15 4.03,10.55 -2.33,17.09 -3.09,-3.84 -5.87,-7.3 -9.28,-11.5 3.77,-5.77 7.11,-10.75 11.61,-5.59zm95.77 -44.55l0.64 0.57 -0.7 0.37 0.06 -0.94zm9.01 -58.03l-0.55 1.19 -0.41 -1.28 0.96 0.09zm16.34 28.48c0.86,-0.41 2.12,0.66 4.29,1.48 -2.01,2.14 -3.13,3.71 -4.52,4.58 -0.37,0.25 -1.51,-1.69 -2.29,-2.65 0.82,-1.2 1.51,-2.93 2.52,-3.41zm1.14 27.15c-0.57,-1.19 -1.17,-2.36 -1.74,-3.53 1,-0.79 2.02,-1.6 3.02,-2.4 0.34,0.94 0.69,1.88 1.23,3.39 -0.78,0.8 -1.64,1.65 -2.51,2.54zm45.67 -114.3c-0.5,0.69 -1.03,1.38 -1.53,2.08l-0.27 -0.4c0.59,-0.56 1.21,-1.13 1.8,-1.68zm8.26 98.08l0.37 1.17 -0.87 -0.07 0.5 -1.1zm6.7 -99.35c1.01,1.23 2.08,2.47 2.86,3.98 0.37,0.7 0.28,1.8 0.32,2.81 0.14,0.05 0.28,0.09 0.39,0.14 -0.04,0.13 -0.11,0.27 -0.16,0.4 4.69,1.01 9.4,2.02 15.63,3.32 -6.66,9.63 -11.9,7.25 -17.83,2.36 0.76,-1.92 1.47,-3.8 2.2,-5.68 -0.04,0 -0.12,-0.01 -0.16,-0.01 -0.02,-0.19 -0.07,-0.35 -0.07,-0.53 -0.75,-0.25 -1.58,-0.43 -2.01,-1.08 -0.92,-1.42 -1.51,-3.22 -2.19,-4.89 0,-0.05 0.93,-0.94 1.02,-0.82zm12.11 -7.58c1.16,-0.13 3.33,1.97 3.47,3.37 0.14,1.48 -1.58,3.27 -3.07,6.06 -1.64,-2.42 -3.5,-4.01 -3.41,-5.31 0.15,-1.6 1.86,-4 3.01,-4.12zm20.51 -404.63c0.5,0.32 0.57,1.78 0.8,2.75 -0.53,0.59 -1.05,1.18 -1.6,1.78 -0.43,-1.24 -0.87,-2.47 -1.33,-3.71 0.74,-0.3 1.67,-1.17 2.13,-0.82zm-0.71 -21.89l0.74 0.64 -0.88 0.37 0.14 -1.01zm20.7 328.01c1.15,0.16 2.22,0.96 3.93,1.86 -1.18,1.69 -1.92,2.79 -2.65,3.88 -0.89,-1.11 -1.87,-2.15 -2.56,-3.45 -0.16,-0.28 0.89,-2.33 1.28,-2.29zm17.59 -69.87c12.1,8.42 13.24,15.96 4.69,24.29 -1.53,1.53 -4.62,2.33 -6.18,1.3 -1.64,-1.05 -3.45,-5.05 -3.11,-7.2 0.96,-6.2 2.95,-12.1 4.6,-18.39zm-1.4 -147.97l-0.48 0.99 -0.29 -1.12 0.77 0.13zm6.02 -135.7c0.21,0.19 0.21,0.76 0.3,1.17 -0.35,0.23 -0.69,0.48 -1.01,0.71 -0.14,-0.73 -0.29,-1.46 -0.44,-2.19 0.39,0.09 0.85,0.06 1.15,0.31zm2.7 267.52c-0.32,0.39 -0.66,0.78 -0.99,1.14 -0.32,-0.43 -0.59,-0.87 -0.91,-1.28 0.34,-0.39 0.69,-1.07 1,-1.05 0.33,0.02 0.6,0.76 0.9,1.19zm-1.47 -377.35c0.69,0.28 1.4,0.55 2.08,0.83 -0.34,2.56 -0.66,5.14 -1.16,7.68 -0.02,0.14 -1.44,-0.21 -2.22,-0.3 0.43,-2.74 0.87,-5.48 1.3,-8.21zm12.38 39.98c3.29,2.72 4.76,7.09 0.23,12.59 -3.18,-2.34 -6.47,-4.74 -10.05,-7.4 2.23,-7.68 5.97,-8.35 9.82,-5.19zm-0.37 -93.09c0.76,0.42 1.49,0.85 2.24,1.3 -0.3,0.83 -0.52,2.25 -0.94,2.36 -0.68,0.19 -1.48,-0.47 -2.26,-0.77 0.32,-0.96 0.64,-1.93 0.96,-2.89zm1.83 -50.71c0.59,0.51 1.67,1.13 1.63,1.44 -0.17,0.92 -0.76,1.74 -1.17,2.62 -0.36,-0.35 -1.03,-0.72 -1.01,-1.01 0.02,-0.98 0.32,-1.95 0.55,-3.05zm7.14 563.17c-1.42,1.57 -2.31,2.51 -3.21,3.47 -0.98,-1.65 -2.28,-3.13 -2.74,-5 -0.21,-0.81 1.42,-2.36 2.24,-3.6 1.1,1.53 2.22,3.07 3.71,5.13zm6.49 -34.81c-2.99,3.29 -5.05,5.55 -8.46,9.28 -0.52,-9.93 1.78,-11.82 8.46,-9.28zm-5.81 -517.49c0.51,0.87 1.03,1.78 1.53,2.68 -0.5,0.8 -1.05,2.24 -1.55,2.22 -0.71,-0.03 -1.4,-1.13 -2.08,-1.77 0.71,-1.05 1.4,-2.1 2.1,-3.13zm36.35 105.69c1.76,4.71 2.33,12.56 1.41,21.98 -5.69,-2.97 -10.58,-1.82 -16.12,2.52 -4.44,3.47 -11,2.2 -16.1,2.95 -2.15,-7.28 -3.57,-12.31 -5.15,-17.25 -3.47,-11.06 -2.77,-14.52 4.63,-21.11 13.19,-11.82 24.35,-7.91 31.33,10.91zm-23.24 -85.82c0.68,-0.06 1.51,2.14 2.91,4.26 -2.11,1.17 -3.64,2.76 -4.92,2.47 -0.96,-0.23 -1.62,-2.86 -2.4,-4.44 1.46,-0.82 2.9,-2.13 4.41,-2.29zm10.36 17.78c0.39,0.18 0.76,0.36 1.1,0.54 0,0.42 0.12,1.06 -0.05,1.24 -0.27,0.32 -0.71,0.35 -1.09,0.5 0.02,-0.75 0.02,-1.53 0.04,-2.28zm10.32 -79.97c0.32,1.56 0.61,2.98 0.91,4.4 -0.77,0.13 -1.76,0.71 -2.24,0.27 -0.62,-0.55 -1.1,-1.92 -1.08,-2.92 0,-0.51 1.26,-0.97 2.41,-1.75zm-2.47 213.72c-1.06,-0.09 -2.04,-1.71 -3.05,-2.67 0.85,-0.96 1.65,-2.61 2.57,-2.73 1.02,-0.11 2.17,1.15 4.04,2.29 -1.62,1.51 -2.63,3.16 -3.56,3.11zm-3.76 167.18c-0.34,-1.03 -1.05,-2.15 -0.91,-3.05 0.12,-0.7 1.28,-1.12 1.99,-1.64 0.48,0.76 0.96,1.51 1.44,2.29 -0.84,0.8 -1.67,1.6 -2.52,2.4zm-3.93 -116.38c-0.89,-1.07 -1.78,-2.08 -2.54,-3.25 -0.07,-0.09 0.92,-1.36 1.83,-2.69 0.75,1.21 1.65,2.21 2.01,3.47 0.15,0.53 -0.84,1.63 -1.3,2.47zm-5.38 176.81c-1.82,-2.16 -3.63,-4.28 -5.46,-6.43 0.94,-1.3 1.87,-2.61 2.81,-3.91 1.58,2.54 3.16,5.08 4.74,7.61 -0.71,0.9 -1.4,1.83 -2.09,2.73zm0.58 -92.66c-0.59,1.99 -0.89,2.97 -1.19,3.94 -1.4,-1.08 -2.83,-2.11 -4.19,-3.32 -0.06,-0.07 0.69,-2.34 0.92,-2.29 1.49,0.37 2.92,1.06 4.46,1.67zm-13.13 -156.43c-0.76,-0.27 -1.46,-0.84 -2.22,-1.27 0.32,-0.39 0.73,-1.21 0.96,-1.12 0.78,0.25 1.49,0.85 2.24,1.3 -0.34,0.39 -0.73,1.17 -0.98,1.09zm0.92 133.54c5.05,-2.38 9.19,-3.71 10.63,3.7 0.34,1.76 -1.85,6.08 -3.18,6.34 -4.67,0.89 -8.03,-1.47 -7.45,-10.04zm-15.54 -60.84c-4.55,0.59 -5.85,-3.3 -6.2,-8.28 4.54,-4.24 7.12,-1.88 8.45,3.38 0.31,1.26 -1.33,4.76 -2.25,4.9zm-14.77 327.98c0.48,-0.68 1.42,-0.77 2.17,-1.14 0.21,0.87 0.73,2.18 0.48,2.49 -0.5,0.69 -1.42,0.87 -2.15,1.26 -0.21,-0.89 -0.76,-2.24 -0.5,-2.61zm5.92 45.75c-2.24,4.46 -6.51,7.7 -10.7,3.31 -3.82,-3.98 -3.89,-9.74 -0.66,-14.22 2.6,-3.66 2.14,-7 2.08,-11.32 -0.05,-3.27 2.31,-6.61 4.5,-12.24 3.25,8.28 6.47,13.72 7.43,19.79 0.72,4.55 -0.66,10.61 -2.65,14.68zm60.55 -412.04l0.31 1.07 -0.82 -0.09 0.51 -0.98zm8.07 -68.85c0.34,-4.99 0.59,-9.33 1.1,-13.61 0.04,-0.21 3.29,-0.27 3.36,0.09 0.73,4.3 1.21,8.74 1.6,13.13 0.14,1.69 -0.09,3.46 -0.16,5.24 -3.93,0.98 -7.23,8.53 -12.81,0.59 2.88,-2.26 5.26,-4.14 6.91,-5.44zm-592.48 889.27c5.94,-8.32 8.23,-5.25 11.06,0l-11.06 0zm21.95 19.45l-0.48 0.91 -0.34 -1.28 0.82 0.37zm26.56 -22.56c0.07,0 0.11,0.96 0.18,1.47 -0.68,0.04 -1.35,0.18 -2.04,0.11 -0.06,0 -0.11,-0.94 -0.18,-1.44 0.67,-0.07 1.35,-0.2 2.04,-0.14zm-34.81 100.62c0.43,-0.05 0.88,0 1.33,0.12 0.06,0 0.06,0.59 0.09,0.88 -0.9,-0.16 -1.77,-0.31 -2.64,-0.5 0.39,-0.16 0.78,-0.41 1.22,-0.5zm26.96 -0.69c0.46,0.87 1.28,1.77 1.21,2.61 -0.04,0.91 -0.87,1.74 -1.37,2.63 -0.41,-0.94 -1.16,-1.9 -1.16,-2.86 0,-0.78 0.84,-1.57 1.32,-2.38zm34.95 -22.59c0.57,0.11 0.98,1.39 1.46,2.14 -0.63,0.67 -1.66,2.02 -1.83,1.86 -0.79,-0.83 -1.37,-2.04 -2.01,-3.11 0.8,-0.35 1.65,-1.08 2.38,-0.89zm27.63 -5.9l0.8 0.63 -0.91 0.37 0.11 -1zm159.38 114.42l-0.26 -0.94 0.69 0.15 -0.43 0.79zm288.07 1253c2.54,-0.24 4.97,0.29 7.39,1.07 6.74,-1.1 13.51,-2.13 20.24,-3.36 -6.04,-4.62 -12.51,-6.29 -19.58,-5.84 -2.19,0.15 -4.44,2.73 -6.49,2.41 -2.22,-0.39 -4.21,-2.89 -6.32,-4.44 1.69,-2.19 3.23,-4.78 5.2,-6.45 0.82,-0.71 2.45,0.2 3.75,0.53 0.04,-0.46 0.11,-0.92 0,-1.31 -5.13,-19.49 -3.55,-31.61 17.95,-31.72 -4.11,-2.7 -7.57,-4.97 -11.02,-7.21 0.68,-5.44 1.26,-9.94 1.83,-14.43 -0.14,0.02 -0.18,0.07 -0.33,0.12 0.08,-0.14 0.15,-0.28 0.21,-0.42 -4.8,-0.75 -5.28,-5.21 -5.1,-10.24 -0.09,0 -0.18,0 -0.25,0 -1.16,-1.38 -2.33,-2.7 -3.5,-4.08 -0.02,-0.4 -0.02,-0.82 -0.02,-1.23 -0.48,-1.64 -0.94,-3.29 -1.42,-4.96 0.41,-0.09 0.85,-0.21 1.28,-0.32 0.05,1.76 0.09,3.52 0.14,5.28 0.09,0.34 0.18,0.66 0.27,1.01 1.17,1.32 2.31,2.68 3.48,4 0,0.11 0.02,0.18 0.02,0.3 3.45,-0.14 6.93,-0.23 10.39,-0.35 0.07,-0.13 0.13,-0.27 0.2,-0.41l0.35 0.39c0.22,-3.02 0.45,-6.01 0.75,-9.77 -3,-0.82 -5.99,-1.64 -9.81,-2.69 1.39,-2.89 1.87,-5.2 2.83,-5.65 11.1,-5.24 14.43,-16.2 12.54,-30.31 -0.67,-4.92 0.62,-7.16 2.58,-10.93 7.69,-14.73 5.77,-24.2 -5.78,-36.44 -2.27,-2.43 -3.32,-6.7 -5.47,-9.45 -1.88,-2.42 -4.51,-3.91 -6.75,-5.76 -7.36,6.82 -0.18,11.57 1.19,18.21 -2.08,3.7 -4.46,7.96 -7.41,13.22 6.29,16.42 5.84,35.5 6.75,55.74 -10.5,-2.38 -19.9,9.88 -30.1,1.85 0.39,-10.16 7.21,-7.13 10.75,-11.71 -0.02,-12.99 -8.35,-18.34 -15.95,-29.48 0.35,6.99 0,10.29 0.72,13.15 3.06,12.76 1.09,16.15 -10.62,16.24 -1.48,-11.39 -5.24,-22.51 -2.65,-34.81 -10.55,-16.41 -15.42,-34.77 -9.58,-56.54 0.68,-2.57 0.39,-5.68 0.41,-8.54 0.04,-8.76 0,-17.52 0,-29.43 -1.01,-1.12 -3.85,-4.19 -6.73,-7.37 0,-1.81 -0.13,-3.54 0.02,-5.26 0.35,-3.38 1.4,-6.82 1.17,-10.08 -0.71,-9.33 -2.79,-18.6 -2.77,-27.88 0.03,-25.58 -2.74,-51.31 1.6,-76.79 0.64,-3.77 -0.61,-8.14 -0.93,-12.24 -0.34,-4.75 -1.24,-9.64 -0.76,-14.27 0.64,-6.01 0.21,-11.21 -0.8,-17.33 -1.69,-10.27 -0.66,-21.46 -0.02,-32.19 0.41,-7.04 1.79,-14.13 3.48,-20.9 1.85,-7.43 2.05,-13.56 -2.22,-20.08 -1.72,-2.66 -1.26,-8.19 -1.22,-12.4 0.3,-21.04 2.11,-42.2 0.85,-63.06 -1.07,-18 0.87,-35.54 1.14,-53.32 0.3,-19.89 2.32,-39.79 2.54,-59.69 0.17,-13.17 -1.78,-26.39 -2.24,-39.61 -0.25,-6.54 0.69,-13.16 1.12,-19.72 0.32,-5.24 0.53,-10.5 1.03,-15.72 0.41,-4.55 1.1,-9.03 1.74,-13.56 0.64,-4.69 2.36,-9.51 1.92,-14.02 -1.12,-11.23 0.55,-21.75 2.47,-32.5 0.87,-4.92 -0.06,-10.46 -0.45,-15.67 -0.28,-3.52 -2.25,-7.77 -1.31,-10.31 5.77,-15.53 1.61,-32.37 4.21,-48.21 0.3,-1.77 0.55,-3.83 0.11,-5.43 -5.33,-20.38 -0.54,-40.62 0.51,-60.88 0.27,-5.45 1.16,-10.94 0.87,-16.29 -1.44,-26.63 0.61,-53.04 1.62,-79.57 1.58,-42.57 1.65,-85.2 2.88,-127.79 0.99,-34.01 2.73,-68.02 4.12,-102.01 0.09,-2.31 0,-4.64 0,-9.17 -10.15,2.49 -19.6,4.18 -28.79,7.16 -27.16,8.78 -54.21,17.97 -81.27,27.31 -5.08,1.76 -9.04,1.69 -11.39,-5.38 -3.62,3.43 -6.93,7.16 -10.64,9.97 -5.24,3.99 -8.32,0.23 -10.18,-8.48 -2.69,15 -9.4,17.77 -18.64,16.99 -5.15,-0.45 -10.48,2.47 -15.85,3.91 -0.62,-4.55 -0.98,-7.34 -1.28,-9.42 -7.93,2.65 -15.53,5.19 -23.44,7.82 0.69,3.16 1.32,5.91 2.51,11.3 -5.44,-2.9 -9.05,-4.85 -13.54,-7.2 -3.95,3.17 -8.25,11.8 -14.43,2.88 -0.48,-0.71 -1.8,-0.85 -2.63,-0.64 -8.1,2.1 -16.17,4.34 -24.45,6.59 -2.49,-2.54 -5.22,-5.29 -7.91,-8.01 -0.09,0 -0.19,0 -0.26,0 0.55,3.16 2.16,7.62 1.24,8.9 -4,5.49 -7.94,1.46 -12.19,-2.24 0.94,-2.29 1.88,-4.46 2.76,-6.64 -0.09,0 -0.18,0 -0.27,0 0.11,-0.2 0.21,-0.23 0.32,-0.39 -2.19,-0.45 -4.37,-0.91 -6.81,-1.41 -0.55,-6.93 -1.31,-13.31 -1.4,-19.7 0,-1.71 2.06,-3.45 3.16,-5.21l-0.1 0.25c7.3,-6.31 19.82,-9.52 28.37,-6.02 -7.05,3.5 -12.65,6.32 -18.9,9.42 1.38,7.12 6.66,7.3 9.77,11.33 5.42,-6.72 10.34,-12.88 15.33,-19.05 -0.65,-2.93 -1.24,-5.59 -2.11,-9.63 5.01,1.55 9.35,2.88 13.63,4.21 2.66,-3.16 1.97,-11.51 8.37,-8.33 1.35,0.66 3.67,-2.22 5.56,-3.34 1.88,-1.05 4.26,-3.41 5.63,-2.68 6.15,3.21 11.43,0.81 17.38,-1.53 5.47,-2.17 11.69,-0.91 17.59,-1.16 0,0.06 0,0.11 0,0.18 1.15,-2.47 2.13,-6.71 3.5,-6.95 9.61,-1.67 18.82,-8.53 28.94,-4.35 1.66,0.69 4.41,1.85 5.14,0.87 7.89,-10.86 19.26,-3.48 27.86,-9.56 1.83,-1.3 2.88,-4.58 4.48,-7.3 14.66,2.41 28.06,-0.11 37.45,-19.03 -9.75,-7.36 -18.33,-1 -25.17,3.92 -13.77,9.99 -29.23,7.63 -43.38,13.61 -1.68,0.7 -3.67,-0.08 -5.4,0.4 -25.1,6.82 -50.14,13.84 -75.25,20.57 -6.45,1.74 -13.07,2.56 -22.12,4.27 -4.69,8.37 -14.71,9.29 -24.17,10.93 -9.45,1.63 -19.06,1.4 -28.58,2.34 -2.19,0.21 -4.3,1.92 -6.44,2.93l0.09 0.21c-1.1,-0.03 -2.17,-0.03 -3.25,-0.03l0.07 -0.27c-2.29,1.71 -4.6,3.36 -6.86,5.15 -2.27,1.78 -4.51,5.39 -6.68,5.27 -16.29,-0.82 -31.95,7.19 -48.08,6.06 -8.69,-0.61 -13.7,3 -15.92,14.99 -5.01,-3.2 -8.94,-5.69 -13.28,-8.46 -7.23,4.89 -12.17,16.96 -22.31,14.06l0.3 0.37c-0.39,0.02 -0.69,0.04 -0.94,0.06 -0.02,0 -0.02,0 -0.02,0 0.02,0 0,0 0.02,0 -0.71,0.48 -0.45,0.33 -0.02,0 -0.6,0.08 -0.43,0.05 0.02,0 0.18,-0.11 0.37,-0.22 0.57,-0.38 -4.98,-6.13 -10.75,-4.26 -16.49,-2.49 -14.34,4.41 -28.61,9.19 -43.02,13.05 -4.76,1.31 -10.02,1.31 -14.8,0.12 -9.38,-2.31 -18.48,-6.45 -27.88,-8.69 -5.24,-1.26 -10.8,-0.23 -16.65,-0.23 -0.94,-2.61 -1.47,-4.87 -2.45,-6.77 -12.37,-23.88 -1.03,-40.67 15.05,-51.21 9.31,-6.11 19.47,-9.88 30.14,-15.14 -0.45,-3.14 -1.36,-6.41 -1.34,-9.7 0.02,-5.67 2.45,-9.77 6.88,-8.72 4.46,1.04 5.95,5.2 3.46,10.94 -0.44,0.96 -0.39,2.3 -0.9,5.6 19.26,-9.15 37.77,-17.79 56.18,-26.8 1.94,-0.96 3.39,-3.8 4.99,-5.84 2.62,-3.34 5,-7.02 7.82,-10.02 4.87,-5.19 10.77,-9.1 14.77,-15.21 3.71,-5.62 5.47,-13.44 8.85,-22.25 2.95,4.71 5.06,8.03 7.62,12.1 2.95,-1.99 6.11,-4.16 10.45,-7.16 -2.99,-2.72 -5.07,-4.65 -7.16,-6.54l-0.09 1.1 0.05 -0.69c-0.78,-2.01 -1.58,-4 -2.35,-6.02 -3.73,-1.65 -7.42,-3.38 -11.21,-4.82 -2.82,-1.1 -5.74,-1.74 -11.19,-3.34 3.46,7.16 5.45,11.32 7.57,15.66 -8.48,4.06 -11.25,2.96 -25.48,-10.31 0.32,6.7 0.55,11.71 0.78,16.7 0.09,-0.09 0.2,-0.14 0.29,-0.23 0.21,0.34 0.42,0.68 0.63,1.03 1.36,0.98 2.76,1.97 4.13,2.93 -0.39,0.66 -0.8,1.32 -1.21,1.99 -0.96,-1.65 -1.95,-3.28 -2.92,-4.92 -0.3,-0.23 -0.63,-0.44 -0.92,-0.65 0,-0.06 0,-0.11 0,-0.15 -1.69,1.28 -3.73,2.17 -4.78,4.05 -6.64,12.05 -8.67,12.94 -18.64,6.84 -5.59,19.3 -19.51,21.81 -31.95,27.08 -1.95,0.79 -4.72,-0.17 -6.71,-1.38 -8.23,-4.98 -15.9,-1.74 -24.03,0.92 -7.35,2.38 -15.58,4.02 -22.78,2.06 -9,-2.5 -11.31,-6 -7.85,-18.28 12.49,-6.56 24.27,-12.78 36.76,-19.37 -6.04,-6.43 -11.05,-11.78 -16.73,-17.82 3.25,-3.71 5.54,-6.31 7.78,-8.87 0,0 0,0 0,0 -0.07,-0.39 -0.14,-0.78 -0.2,-1.19 -0.33,-0.48 -0.66,-0.96 -0.96,-1.49 -0.07,-0.09 0.34,-0.66 0.54,-1.03 0.14,0.85 0.28,1.7 0.42,2.52 0.18,0.27 0.34,0.54 0.52,0.82 -0.09,0.11 -0.21,0.25 -0.32,0.37 1.51,4.02 3.05,8.02 5.01,13.31 4.07,-4.76 7.35,-8.6 10.59,-12.42 4.26,-4.97 6.56,-13.13 13.88,-13.25 1.47,-0.01 2.88,-5.39 4.96,-9.58 5.52,6.86 11.05,5.17 17.3,2.11 8.35,-4.12 17.22,-6.45 25.87,-9.54 7.93,-2.81 9.01,-4.62 8.75,-14.92 -10.9,5.36 -21.79,10.73 -33.34,16.41 -6.98,-2.52 -2.59,-12.04 -4.97,-18.79 -9.37,-2.39 -18.31,-0.97 -28.95,6.2 5.15,4.88 8.85,8.4 12.58,11.92 -6.4,7.66 -13.11,4.92 -20.88,0.49 1.3,-4.03 2.61,-8.06 3.88,-12.06 -12.59,-2.43 -24.26,0.2 -34.87,13.42 -2.43,-6.63 -4.92,-14.52 -10.73,-9.67 -7.11,5.97 -0.75,12.49 0.43,19.88l13.29 0c0.14,-0.12 0.28,-0.23 0.44,-0.37 0.09,0.12 0.2,0.16 0.32,0.27 3.77,-2.83 7.57,-8.23 12.46,0.21 -5.05,5.17 -8.83,3.45 -12.46,-0.21 -0.05,0.03 -0.1,0.07 -0.14,0.1l-0.62 0c-7.36,6.74 -14.93,11.73 -24.43,12.51 -8.57,0.68 -17.08,4.3 -25.43,7.41 -2.68,1.01 -4.82,4.32 -7.18,6.72 0.09,0.19 0.16,0.37 0.25,0.55 0.91,0.32 1.81,0.64 2.7,0.96 -0.41,0.73 -0.82,1.47 -1.24,2.22 -0.5,-1.05 -0.98,-2.13 -1.46,-3.18 -0.18,-0.06 -0.39,-0.14 -0.57,-0.18l0.3 -0.42c-5.61,-0.29 -11.65,-4.68 -16.34,3.01 0.03,0 0.05,-0.03 0.05,-0.03 0,0.23 0,0.43 0,0.66 2.33,2.52 3.18,4.94 -0.18,7.11 -0.03,0.24 -0.03,0.46 -0.03,0.69 -0.41,0.16 -0.84,0.32 -1.26,0.48 -1.94,1.84 -3.91,3.66 -5.85,5.52 -0.32,-0.97 -0.64,-1.9 -0.96,-2.86 2.26,-0.87 4.55,-1.76 6.81,-2.66 0.33,-0.27 0.63,-0.57 0.94,-0.87 0.17,-0.09 0.19,-0.18 0.35,-0.3 0.04,-2.35 0.11,-4.73 0.18,-7.11 -0.12,-0.11 -0.16,-0.23 -0.27,-0.32 0.09,-0.13 0.15,-0.2 0.22,-0.31 -10.4,5.51 -20.81,11.02 -31.51,16.69 -3.46,-5.03 -9.36,-6.96 -7.53,-15.78l-0.23 0.11c0,-1.44 0.02,-2.88 0.02,-4.32l0.24 0.11c-4.7,-10.33 1.99,-17.72 6.06,-21.32 13.17,-11.66 26.25,-24.35 43.18,-26.23 9.15,-1.03 17.52,-5.74 25.91,-11.36 6.84,-4.6 15.49,-4.55 24.66,-6.93 -0.32,5.64 -0.55,9.81 -0.9,15.61 8.22,-4.71 15.56,-8.89 23.4,-13.4 -1,-4.28 -2.42,-8.96 -6.97,-6.03 -3.96,2.53 -5.95,1.21 -8,-4.4 2.51,-1.69 5,-3.36 7.43,-4.98 0.2,-7.25 -3.7,-9.77 -6.84,-13.04l-0.11 1.1 0.06 -0.69c-0.41,-6.31 2.5,-9.88 6.57,-8.83 10.81,2.82 18.55,-3.41 24.36,-13.1 9.63,1.8 5.26,10.18 5.85,17.2 3.59,1.23 7.3,2.49 10.53,3.58 4.75,-8.71 -2.27,-11.63 -3.14,-18.36 3.63,-5.51 7.55,-10.29 14.55,-9.24 2.93,0.43 6.12,-2.04 9.14,-3.27 1.72,-0.69 4.06,-2.98 4.99,-2.2 9.19,7.67 15.33,-1.27 22.46,-6.22 6.29,-4.32 12.15,-10.29 20.47,-7.89 3.04,0.87 7,-3.77 12.19,-6.88 6.16,1.96 15.17,11.59 20.38,-6.75 8.86,9.24 15.94,1.1 22.69,-2.06 6.47,-3.04 11.74,-10.61 18.87,-17.48 2.54,1.54 4.46,9.39 11.57,8.01 5.06,-0.98 8.83,-2.7 13.43,-5.37 8.95,-5.22 19.05,-6.98 28.68,-10.25 6.52,-2.22 13.91,-0.25 19.42,-7.66 1.28,-1.72 4.39,-1.97 6.47,-1.56 6.84,1.4 13.82,4.81 18.07,-6.38 0.3,-0.75 1.63,-1.03 2.54,-1.16 16.72,-2.71 33.44,-6.64 50.23,-7.55 11.66,-0.64 22.71,-3.73 33.92,-6.96 6.68,-1.92 13.49,-3.2 20.29,-4 1.76,-0.18 3.7,2.52 5.65,3.96 -1.58,3.08 -2.7,5.28 -5.83,11.39 7.56,-4.34 12.14,-6.98 16.71,-9.61 -2.13,-6.47 -3.75,-11.44 -5.39,-16.42 9.55,6.38 17.65,2.08 26.51,-0.02 22.18,-5.36 44.71,-8.46 67.17,-11.83 6.4,-0.98 12.99,0.21 21.41,0.48 8.09,-4.28 18.27,-9.65 29.71,-15.71 1.1,-11.43 2.36,-23.95 3.45,-36.46 4.08,-45.31 8.21,-90.57 11.97,-135.91 0.7,-8.64 -0.28,-17.5 -0.57,-30.09 7.02,-9.66 7.47,-26.06 8,-42.39 0.23,-7.22 -0.34,-14.41 4.55,-20.1 1.44,-1.69 1.28,-6.23 1.35,-9.47 0.39,-21.76 5.83,-41.36 14.41,-59.65l-0.27 0.39 0 -1.45c-0.72,-2.7 -1.4,-5.39 -2.11,-8.09 0.71,-0.16 1.39,-0.32 2.11,-0.46l0 8.55c0.06,0.28 0.13,0.55 0.2,0.82 5.24,-15.45 5.35,-16.94 2.91,-30.87 -7.02,8.71 -13.64,2.54 -20.77,-2.15 5.08,-1.65 10.13,-3.32 16.28,-5.35 0,-3.77 1.1,-8.97 -0.2,-10.41 -4.26,-4.64 -2.01,-9.74 -1.81,-14.75 0.28,-6.64 1.1,-13.33 0.62,-19.88 -0.23,-3.38 -2.79,-6.47 -4.6,-10.31 5.06,-11.78 10.68,-25.46 10.93,-41.31 0.26,-14.93 -0.29,-29.5 3.04,-44.49 3.05,-13.7 2.34,-28.82 3.55,-43.27 0.57,-7.07 0.27,-14.73 5.99,-19.4 0.9,-0.75 0.35,-4.62 0.39,-7.04 0.03,-1.6 -0.57,-3.55 -0.09,-4.76 4.97,-12.3 4.62,-15.74 3.04,-27.76 -1.11,-8.74 -0.75,-18.24 0.55,-26.98 2.61,-17.22 3.59,-34.28 2.84,-51.84 -0.37,-8.83 1.99,-17.87 3.34,-26.76 0.93,-6.25 -1.03,-10.03 -6.48,-12.77 5.59,-3.11 8.76,-6.38 7.67,-14.98 -0.89,-7.11 1,-14.96 2.1,-22.37 1.85,-12.4 4.05,-24.7 6.16,-37.01 0.5,-2.97 2.23,-6.33 1.62,-8.68 -3.7,-14.33 2.24,-26.15 4.89,-38.91 1.35,-6.5 1.58,-12.67 5.79,-18.49 1.21,-1.66 2.08,-3.63 2.56,-5.64 -405.62,307.98 -612.63,720.2 -697.24,928.63 -8.96,22.1 -42.24,13.82 -39.59,-9.88 72.76,-647.97 618.19,-1213.23 873.84,-1445.71 18.07,-16.42 -2.61,-44.94 -24,-33.17 -1424.16,785.17 -1817.31,2587.57 -676.49,3039.85 159.21,63.13 325.63,79.1 483.52,55.01 0.14,-0.75 0.27,-1.42 0.41,-2.26z"/>
   <path class="fil0" d="M5898.98 1748.7c2.1,-0.59 4.16,-1.46 6.22,-2.26 -0.46,-1.44 -0.94,-2.88 -1.42,-4.35 -1.92,1.22 -3.89,2.4 -5.76,3.78 -0.05,0.07 0.8,2.88 0.96,2.83z"/>
   <path class="fil0" d="M5827.09 1876.99c0.17,-0.19 0.08,-0.73 0.08,-1.15 -0.33,-0.13 -0.65,-0.27 -0.96,-0.43 -0.03,0.64 -0.08,1.3 -0.1,1.94 0.32,-0.09 0.76,-0.09 0.98,-0.36z"/>
   <path class="fil0" d="M5926.76 1744.2c-0.39,-0.98 -0.66,-1.71 -0.96,-2.44 -0.14,0.52 -0.48,1.16 -0.34,1.53 0.11,0.39 0.68,0.5 1.3,0.91z"/>
   <path class="fil0" d="M5919.48 1745.67c0.3,-0.24 0.57,-0.48 0.87,-0.73 -0.16,-0.41 -0.22,-1 -0.48,-1.16 -0.27,-0.16 -0.68,0.11 -1.05,0.18 0.23,0.57 0.44,1.14 0.66,1.71z"/>
   <path class="fil0" d="M5947.71 1695.19c8.67,5.81 8.67,5.81 15.87,-2.61 -5.39,0.9 -10.15,1.65 -15.87,2.61z"/>
   <polygon class="fil0" points="6389,1477.66 6387.94,1477.66 6387.94,1486.72 6389,1486.72 "/>
   <path class="fil0" d="M6025.67 1697.78c0.62,-0.34 1.19,-0.91 1.76,-1.39 -0.27,-0.42 -0.55,-0.83 -0.83,-1.26 -0.57,0.52 -1.16,1.07 -1.75,1.6 0.29,0.36 0.68,1.14 0.82,1.05z"/>
   <path class="fil0" d="M5962.52 1717.54l0.88 0.38 -0.6 -0.8c-0.41,-0.11 -0.85,-0.23 -1.26,-0.34 0.32,0.25 0.64,0.5 0.98,0.76z"/>
   <path class="fil0" d="M6408.88 3127.62c0.34,0.02 0.68,-0.46 1.01,-0.73 -0.33,-0.3 -0.62,-0.82 -0.97,-0.85 -0.32,-0.04 -0.66,0.46 -1,0.73 0.32,0.3 0.62,0.83 0.96,0.85z"/>
   <path class="fil0" d="M5882.24 1654.85c0.99,1.42 1.99,2.84 2.98,4.26 0.27,0.11 0.57,0.22 0.84,0.34 -0.2,-0.21 -0.41,-0.43 -0.59,-0.67 -1,-1.41 -1.99,-2.86 -2.97,-4.27l-0.26 0.34z"/>
   <path class="fil0" d="M6164.29 1873.72c0.19,0.22 1.4,-0.92 2.49,-1.63 -0.87,-1.35 -1.53,-2.81 -2.51,-3.73 -0.32,-0.27 -1.4,0.87 -2.11,1.33 0.69,1.37 1.26,2.9 2.13,4.03z"/>
   <path class="fil0" d="M6675.78 1131.92c0,-0.03 0,-0.03 0,-0.04 -0.09,-0.08 -0.21,-0.17 -0.3,-0.23l0.3 0.27z"/>
   <path class="fil0" d="M6907.02 1582.48c0.28,-0.27 0.57,-0.55 0.9,-0.83 -0.44,-0.61 -0.78,-1.32 -1.26,-1.8 -0.12,-0.14 -0.62,0.41 -0.94,0.66 0.41,0.66 0.87,1.31 1.3,1.97z"/>
   <path class="fil0" d="M6884.12 1580.99c-2.28,-0.75 -3.52,-1.51 -3.72,-1.18 -0.83,1.36 -1.33,3.06 -1.92,4.61 1.51,-0.89 3.02,-1.83 5.64,-3.43z"/>
   <path class="fil0" d="M6777.89 1228.34c-0.32,0.12 -0.87,0.46 -0.93,0.32 -0.24,-0.43 -0.33,-1.02 -0.49,-1.56 0.55,-0.15 1.1,-0.31 1.63,-0.47 -0.05,0.57 -0.14,1.14 -0.21,1.71zm-37.92 60.77c-0.75,-0.15 -1.44,-0.96 -2.15,-1.51 0.32,-0.41 0.64,-1.18 0.96,-1.16 0.78,0.02 1.53,0.41 2.43,0.71 -0.46,0.73 -0.92,2.01 -1.24,1.96zm-4.87 -133.98c-0.3,-0.96 -0.67,-1.9 -0.85,-2.9 -0.04,-0.21 0.87,-0.97 0.96,-0.85 0.53,0.57 0.94,1.33 1.38,2.01 -0.48,0.57 -0.99,1.16 -1.49,1.74zm-8.12 -19.51c0.39,-0.96 0.77,-1.92 1.16,-2.88 0.72,0.57 1.4,1.09 2.64,2.08 -1.58,0.32 -2.68,0.57 -3.8,0.8zm-3.04 69.07c-1.88,-0.43 -3.75,-0.87 -5.61,-1.3 0.26,-1.12 0.62,-3.18 0.78,-3.13 1.83,0.34 3.64,0.98 5.42,1.57 -0.18,0.96 -0.39,1.9 -0.59,2.86zm-8.19 -18.25c-0.09,-0.36 1.21,-2.04 1.76,-1.94 0.96,0.18 1.87,1.23 3.59,2.49 -1.72,1.51 -2.77,3.11 -3.52,2.91 -0.8,-0.21 -1.49,-2.11 -1.83,-3.46zm-0.14 -41.79c0.71,0.05 1.42,0.23 2.15,0.35 -0.16,0.5 -0.29,1.03 -0.46,1.53 -0.61,-0.12 -1.25,-0.23 -1.9,-0.36 0.07,-0.53 0.14,-1.52 0.21,-1.52zm-4.71 -21.24c1.01,-5.77 0.91,-8.31 1.83,-9.79 1.26,-2.06 3.24,-3.34 5.95,-5.95 1.64,8.33 -1.54,10.84 -7.78,15.74zm-9.2 -26.38c-0.36,-1.05 -1.27,-2.67 -1.05,-3.04 0.78,-1.19 1.97,-1.94 2.97,-2.84 0.39,0.99 0.81,1.97 1.38,3.41 -1.1,0.8 -2.2,1.65 -3.3,2.47zm-6.84 85.57c-0.11,0.14 -0.2,0.27 -0.31,0.41l0.27 -0.41c0.02,0 0.02,0 0.04,0 0.24,-0.25 0.44,-0.5 0.67,-0.78 1.67,-2.03 2.26,-7.43 5.83,-3.63 0.69,0.72 0.42,3.04 0.6,4.61 -2.36,-0.06 -4.72,-0.11 -7.1,-0.2zm2.8 240.71c-0.85,-0.57 -1.15,-2.54 -1.69,-3.91 0.75,-0.51 1.57,-1.6 2.19,-1.4 0.94,0.28 1.72,1.46 3.29,2.93 -1.87,1.26 -3.2,2.77 -3.79,2.38zm-1.15 -314.79c0.51,-0.51 1.93,-0.39 2.41,0.18 3.86,4.59 0.77,7.96 -1.38,13.56 -3.68,-6.11 -4.8,-10.06 -1.03,-13.74zm-5.94 -36.83c-0.39,-0.98 1.69,-3.64 3.17,-6.59 1.81,2.17 4.05,3.73 3.98,5.03 -0.13,2.41 -1.64,4.67 -2.58,6.98 -1.6,-1.76 -3.71,-3.18 -4.57,-5.42zm-1.79 18.48c-0.85,0.14 -1.87,-1.76 -3.29,-3.24 1.48,-1.35 2.47,-2.98 3.41,-2.91 0.91,0.07 1.74,1.9 2.58,2.92 -0.89,1.17 -1.71,3.1 -2.7,3.23zm-8.41 -42.04c-0.67,-1.89 -1.83,-3.77 -1.88,-5.69 -0.02,-2.31 0.92,-4.65 1.42,-6.98 1.07,0.91 2.12,1.83 3.18,2.75 0.73,1.89 2.4,4.66 1.98,5.48 -1.05,1.97 -3.08,3 -4.7,4.44zm-0.42 15.76c-0.64,-0.16 -1.28,-0.34 -1.9,-0.53 0.44,-2.96 0.9,-5.97 1.33,-8.96 0.69,0.18 1.35,0.37 2.01,0.55 -0.48,2.97 -0.96,5.97 -1.44,8.94zm-10.06 -2.92c-0.39,-0.85 -0.64,-1.79 -0.94,-2.71 0.37,-0.15 0.73,-0.34 1.12,-0.5 0.3,0.92 0.64,1.83 0.94,2.75 -0.39,0.16 -1.08,0.57 -1.12,0.46zm13.65 -53.18l0.69 -0.05 -0.37 0.11c-0.02,0.26 -0.02,0.51 -0.04,0.76 0.73,2.15 1.46,4.32 2.19,6.47 -0.84,0.18 -1.69,0.39 -2.53,0.6 0.11,-2.36 0.23,-4.72 0.34,-7.07 -0.09,-0.28 -0.19,-0.58 -0.28,-0.82zm-25.15 -23.65l-0.07 -0.23c0.04,-0.34 0.09,-0.71 0.11,-1.06 0.07,-1.37 0.14,-2.74 0.2,-4.11l0.72 -0.39 -0.44 0.25c-0.16,1.42 -0.32,2.84 -0.48,4.25 0,0.37 -0.02,0.72 -0.04,1.08 0.32,0.12 0.66,0.21 0.98,0.3 -0.35,-0.03 -0.66,-0.05 -0.98,-0.09zm-12.22 91.14c-0.48,-1.12 -0.09,-4.04 0.62,-4.67 5.81,-4.94 8.16,3.48 12.23,6.11 -4.7,2.15 -9.64,6.41 -12.85,-1.44zm-3.29 -24.91c-1.9,-0.23 -4.53,-3.73 -4.92,-6.31 -0.27,-1.85 2.56,-6.31 4.1,-6.38 1.94,-0.07 3.92,3.15 6.95,5.9 -2.64,3.11 -4.53,7 -6.13,6.79zm-11 -50.68c-1.15,-3.59 2.72,-8.67 5.78,-7.57 1.83,0.68 3.25,3.25 5.91,6.06 -2.91,2.81 -4.74,5.78 -6.84,6.2 -1.47,0.3 -4.15,-2.5 -4.85,-4.69zm25.15 -0.32c0.3,-0.14 1.54,1.55 1.45,2.15 -0.23,1.28 -1.03,2.4 -2.04,4.53 -1.03,-2.09 -1.62,-3.23 -2.22,-4.4 0.94,-0.79 1.81,-1.85 2.81,-2.28zm-25.96 114.52c-0.29,0.09 -1.41,-1.81 -1.26,-2.24 0.51,-1.35 1.42,-2.47 2.68,-4.44 0.74,2.15 1.83,3.89 1.53,4.67 -0.43,1.1 -1.87,1.69 -2.95,2.01zm155.65 102.51c-3.29,-2.85 -5.88,-7.68 -6.68,-13.03 -25.04,-49.02 -48.97,-98.47 -70.94,-148.63 -0.81,1.3 -1.93,2.45 -3.6,3.23 -0.89,0.43 -3.54,-2.02 -3.84,-3.64 -0.89,-4.59 0.64,-7.04 3.5,-8.57 -17.75,-41.02 -34.17,-82.51 -48.74,-124.64 -0.69,9.45 -1.35,18.9 -2.04,28.48 0.66,1 1.33,2.7 2.41,3.56 3.65,3.03 7.95,6.2 3.77,12.26 -0.94,1.4 -5.88,-1.94 -10.16,-3.54 -1.67,3.36 -4.09,8.3 -6.52,13.29 -13.05,1.37 -13.05,1.37 -12.55,-22.98 -7.99,6.65 -7.96,10.7 0.25,31.69 -4.53,4.26 -9.1,8.54 -13.68,12.83 0.34,0.99 0.64,1.98 0.96,2.98 2.68,-0.3 5.35,-0.6 8.9,-0.99 2.17,14.78 0.66,29.12 0.16,43.55 -0.5,13.64 -4.32,27.64 1.58,40.92 3.26,-1.03 6.54,-2.05 9.95,-3.13 0.15,2.2 0.62,3.57 0.27,4.25 -2.2,4.39 -3.89,9.97 -7,12.67 -4.9,4.28 -6.01,10.04 -6.68,16.68 -1.26,12.37 -2.51,24.74 -3.61,35.63 3.09,6.09 5.83,11.48 9.27,18.23 5.48,-11.64 13.37,-8.25 22.98,-3.91 -1.19,-12.03 -2.08,-21.87 -3.18,-31.63 -1.03,-9.15 2.06,-19.35 -3.98,-27.35 -0.12,-0.14 1.9,-3.07 3.04,-4.88 2.25,-7.8 3.61,-16.74 12.63,-14.78 1.03,0.24 3.15,-1.07 3.33,-2.12 1.68,-9.29 7.56,-5.86 12.59,-8.92l0 10.29c-2.81,-0.41 -5.17,-0.75 -8.31,-1.21 1.22,10.32 3.23,18.34 10.87,21.41 -1.97,9.17 -3.94,18.34 -5.88,27.49 1.81,1.55 4.3,2.79 4.94,4.96 7.16,24.02 11.73,48.33 4.14,73.88 -1.16,3.91 -2.7,8.94 -1.76,12.4 4.51,16.67 -0.78,32.39 -1.69,48.51 -0.51,8.37 -0.3,16.77 -0.92,25.12 -0.37,4.61 -0.73,10.33 -2.88,13.42 -10.29,14.89 -10.36,32.27 -7.07,50.89 1.35,-9.24 2.7,-18.5 4.07,-27.77 1.68,7.97 9.95,14.16 3.11,23.57 -0.84,1.11 0.83,5.3 1.19,8.11 1.27,9.4 3.05,18.99 -5.35,27.25 -1.57,-5.75 -2.86,-10.39 -4.28,-15.56 -1.35,0.85 -3.17,1.26 -3.45,2.31 -4.66,18.21 -4.23,36.98 -3.43,59.86 3.06,-6.38 4.71,-9.79 7.27,-15.12 2.59,5.62 4.83,10.47 7.35,15.99 6.77,0.95 14.34,-8.45 21.5,0.75 0.73,0.94 3.68,-0.18 5.14,-1.35 9.72,-7.89 19.71,-8.57 30.88,-5.71 6.27,1.59 13.29,-2.34 20.01,-3.37 2.7,-0.43 5.65,-0.5 8.24,0.46 7.2,2.63 14.18,8.69 21.38,-0.87 1.19,-1.58 5.52,-0.14 7.94,1.19 6.95,3.82 14.02,4.48 21.36,3.64 9.88,-1.12 19.81,-1.47 29.62,-3.25 2.47,-0.46 4.55,-5.06 7.39,-8.44 1.55,2.58 2.77,5.99 4.8,7.5 1.78,1.3 4.51,0.76 6.77,0.6 12.77,-1.04 25.51,-2.16 38.27,-3.32 -38.27,-70.01 -77.02,-140.12 -113.61,-211.14z"/>
   <polygon class="fil0" points="6916,1579.66 6915.19,1579.98 6915.91,1580.62 "/>
   <polygon class="fil0" points="6605.69,2798.59 6604.91,2798.52 6605.26,2799.66 "/>
   <path class="fil0" d="M7017.05 1756.27l-1.08 -0.73 1.21 -0.46 -0.13 1.19zm-9.97 -18.25c-1.11,0.02 -3.23,-2.88 -3.21,-4.42 0.09,-5.33 1.26,-10.36 6.34,-12.89 0.32,4.77 0.98,9.14 0.7,13.4 -0.13,1.55 -2.47,3.89 -3.83,3.91zm-31.14 51.72c-0.36,-0.9 -1.14,-2.43 -1,-2.59 0.73,-0.87 1.72,-1.44 2.63,-2.11 0.16,1.08 0.64,2.34 0.39,3.18 -0.23,0.74 -1.3,1.01 -2.02,1.52zm-53.29 318.83c3.14,-8.44 4.28,-16.06 10.64,-18.96 4.48,15.05 2.86,18.37 -10.64,18.96zm-148.53 -324.24l-0.46 -1.23 0.89 0 -0.43 1.23zm-9.79 119.19c-2.01,-0.52 -4.53,-3.93 -5.08,-6.63 -1.09,-5.49 2.74,-11.35 8.16,-11.46 1.22,1.99 3.85,4.66 4.7,8.07 1.02,4.12 -4.16,10.93 -7.78,10.02zm-70.68 965.17l-0.23 -1.31 0.83 0.33 -0.6 0.98zm-47.11 116.14c-3.12,-3.66 -5.31,-6.24 -7.51,-8.82 0.69,-1.47 1.4,-2.91 2.11,-4.37 2.91,0.43 5.83,0.84 9.93,1.46 -1.58,4.07 -2.66,6.89 -4.53,11.73zm-4.03 36.74c-0.27,0.11 -0.73,-0.56 -1.12,-0.85 0.5,-0.87 0.98,-1.74 1.49,-2.58 0.52,0.64 1.08,1.33 1.6,1.99 -0.64,0.48 -1.26,1.14 -1.97,1.44zm-26.07 -325.64c-1.72,2.43 1.39,10.18 1.55,15.53 0.19,7.16 -3.34,7.48 -7.48,5.75 -3.02,-33.54 -0.09,-59.91 10.62,-72.94 -0.6,8.66 -1.22,17.35 -1.72,26.02 -0.5,8.56 2.84,17.39 -2.97,25.64zm-9.98 281.22l0.07 -0.92 0.83 0.57 -0.9 0.35zm-2.81 33.64c-0.2,-0.41 -0.57,-0.91 -0.5,-1.21 0.12,-0.38 0.57,-0.59 0.89,-0.89 0.34,0.21 0.66,0.41 1.01,0.62 -0.46,0.5 -0.94,1 -1.4,1.48zm454.61 -1264.6c0.11,-1.06 0.62,-2.09 1.12,-3.14 -5.28,-12.26 -10.7,-24.47 -16.24,-36.67 -19.03,2.32 -37.74,7.41 -56.84,7.89 -7.54,0.21 -8.64,7.71 -10.15,15.17 -7.32,-8.44 -7.34,-8.92 -17.08,-8.19 -11.62,0.82 -23.25,2.06 -34.75,4.14 -6.56,1.19 -13.91,2.2 -16.26,15.42 -3.59,-6.13 -5.93,-10.13 -8.76,-14.98 -2.86,1.44 -5.79,2.88 -9.04,4.5 -0.91,7.6 -1.83,15.12 -2.92,24.2 -4.01,-3.79 -6.84,-6.5 -9.7,-9.19 -1.12,-1.05 -3,-3.3 -3.27,-3 -11.64,12.79 -14.14,-11.16 -25.34,-8.67 -8.92,8.6 -21.39,13.18 -35.05,12.86 -5.01,-0.12 -10.19,0.91 -15.02,2.67 -8.03,2.98 -15.85,6.32 -24.2,1.93 -1.19,-0.63 -3.32,-0.97 -4,-0.07 -8.29,10.61 -18.21,3.5 -27.33,4.73 -9.15,1.24 -18.28,2.88 -27.34,5.01 -5.3,1.23 -10.43,3.86 -15.66,5.72 -11.05,3.93 -22.13,7.73 -33.19,11.57 -7.5,2.61 -15.01,5.15 -23.08,7.92 -0.59,6.22 -1.31,11.5 -1.58,16.83 -1.78,36.8 -3.27,73.63 -5.26,110.41 -1.31,24.15 -3.41,48.23 -4.83,72.36 -1.03,17.41 -3.68,34.88 0.18,52.26 0.14,0.6 0.48,1.38 0.33,1.75 -7.48,16.53 0.11,33.04 -0.03,49.56 -0.04,4.85 0.46,10.79 -1.42,14.25 -4.06,7.52 -4.32,16.35 -3.36,23.62 1.9,14.28 -4.16,26.86 -2.58,41.04 1.53,13.77 0.71,28.04 0.66,42.08 -0.05,16.11 -0.36,32.28 -0.66,48.37 -0.07,3.01 0.2,7.49 -1.1,8.7 -5.4,5.1 -1.74,9.56 -1,15.25 1.41,11.07 0.73,22.46 -5.13,32.25 -1.67,2.8 -2.7,10.36 -2.08,10.78 8.96,6.11 3,18.22 6.43,26.94 3.27,8.37 -2.43,15.83 -10.32,16.47l0 15.96c2.61,-2.45 4.65,-4.37 6.61,-6.24 5.12,5.6 1.44,10.45 0.99,15.53 -0.46,4.71 0.64,9.7 1.18,16.51 -3.1,-3.45 -5.37,-5.94 -8.43,-9.37 -4.03,15.89 -3.94,31.4 -0.76,47.09 0.04,-0.02 0.09,-0.02 0.16,-0.05 0.99,-7.91 1.95,-15.84 3.09,-25.11 5.01,3.09 8.09,4.9 7.48,12.17 -0.76,9.01 -4.92,11.8 -10.57,12.94 -0.03,0.19 -0.04,0.37 -0.07,0.55l-0.32 -0.43c-3.68,9.42 -4.43,19.19 -4.19,29.87 0.51,23.44 -0.36,46.91 -0.31,70.38 0,7.13 1.07,14.27 1.66,21.59 3.71,-0.53 6.39,-0.92 9.08,-1.28 -7.87,8.1 -8.83,20.01 -11.93,30 -1.75,5.57 -3.25,11.65 0.02,18.81 2.12,4.68 1.48,12.9 0.18,18.8 -2.65,11.99 -0.53,23.4 -0.25,35.18 0.2,10.04 1.64,21.24 -2.65,31.22 -1.26,2.95 -1.65,7.06 -1.42,10.52 1.12,16.26 2.56,32.5 3.89,48.71l0.18 0.74 0.07 -1.1c0.71,-3.77 1.39,-7.55 2.12,-11.34 0.78,-4.19 1.61,-8.37 2.43,-12.56 1.05,-0.09 2.08,-0.23 3.13,-0.32 1.3,4 3.73,8.05 3.68,12.03 -0.24,19.83 -1.18,39.64 -1.78,59.44 -0.14,4.6 0.37,9.22 0.07,13.75 -0.18,3.18 -0.59,8.26 -1.97,8.99 -3.52,1.83 -5.87,-1.19 -6.59,-6.24 -0.22,-1.6 -1.09,-3.05 -1.96,-5.27 -1.85,4.76 -3.41,8.76 -4.97,12.74l0.3 -0.48 -0.39 0.78c3.67,15.96 3.82,31.66 -2.33,46.77 -0.2,0.53 -0.62,0.99 -0.71,1.54 -1,6.52 -3.38,13.31 -2.65,19.48 1.85,16.06 -6.04,31.54 -0.42,47.95 2.62,7.61 5.7,16.87 0.69,25.57 4.74,15.05 -1.57,30.19 0.3,45.4 1.05,8.28 0.64,16.88 0.91,25.32 0.28,8.34 0.6,16.65 0.94,25.77 5.56,5.7 7.69,10 6.37,15.45 230.64,-95.52 421.43,-283.46 509.88,-538.63 103.94,-299.92 52.64,-555.49 -50.8,-797.99 -1.39,-0.23 -4.2,-2.9 -4.09,-3.88z"/>
   <path class="fil0" d="M6830.84 1583.18c0.64,0.6 1.3,1.15 2.28,2.04 0.57,-1.39 1.24,-2.7 1.58,-4.14 0.05,-0.27 -1.67,-1.69 -1.81,-1.51 -0.8,1.03 -1.39,2.38 -2.05,3.61z"/>
   <path class="fil0" d="M6811.93 1599.11c0.32,0.16 0.64,0.32 0.96,0.5 0.23,-0.34 0.64,-0.68 0.64,-1.03 0.03,-0.34 -0.34,-0.73 -0.55,-1.09 -0.36,0.55 -0.68,1.07 -1.05,1.62z"/>
   <path class="fil0" d="M6820.7 1599.55c1.99,-0.8 3.98,-1.58 5.97,-2.35 -0.39,-1.45 -0.78,-2.89 -1.14,-4.33 -1.95,1.26 -3.89,2.49 -5.81,3.75 0.31,0.96 0.63,1.94 0.98,2.93z"/>
   <path class="fil0" d="M6600.17 2833.32c0,0.02 0,0.05 0,0.07 0.04,-0.09 0.07,-0.16 0.11,-0.25l-0.11 0.18z"/>
   <path class="fil0" d="M6839.43 1591.68c-0.12,0.46 0.98,1.49 1.64,2.43 2.25,-1.76 4.48,-3.52 5.84,-4.58 -0.39,-4.16 -0.67,-7.2 -0.97,-10.27 -0.06,0.12 -0.18,0.25 -0.24,0.37 -8.04,-1.42 -5.04,7.3 -6.27,12.05z"/>
   <path class="fil0" d="M6856.3 1591.11c0.74,0.34 1.54,1.14 2.14,0.93 0.45,-0.15 0.63,-1.6 0.93,-2.49 -0.71,-0.43 -1.39,-0.87 -2.1,-1.3 -0.33,0.96 -0.64,1.92 -0.97,2.86z"/>
   <path class="fil0" d="M6600.06 2833.7l0.13 -0.27c0,0 0,-0.03 -0.02,-0.05 -0.02,0.12 -0.07,0.21 -0.11,0.32z"/>
   <path class="fil0" d="M6865.9 1588.85c1.77,-0.73 3.53,-1.46 5.29,-2.2 -0.48,-1.3 -0.96,-2.6 -1.42,-3.86 -1.56,1.17 -3.13,2.36 -4.69,3.55 0.27,0.82 0.55,1.67 0.82,2.51z"/>
   <path class="fil0" d="M6651.29 1099.67l-0.57 -0.18c-0.05,0.07 -0.12,0.18 -0.16,0.25 0,0.05 -0.02,0.12 -0.05,0.17l0.78 -0.24z"/>
   <path class="fil0" d="M6619.31 1024.3c-0.21,0.46 -0.5,0.92 -0.55,1.42 -0.04,0.46 0.18,1.01 0.32,1.51 0.58,-0.36 1.17,-0.75 1.76,-1.14 -0.5,-0.62 -1,-1.19 -1.53,-1.79z"/>
   <path class="fil0" d="M6434.82 3093.12c-1.07,0.54 -2.14,1.08 -3.24,1.61l3.36 0c-0.03,-0.55 -0.07,-1.07 -0.12,-1.61z"/>
   <path class="fil0" d="M6421.03 3037.96c-0.98,-0.98 -1.94,-1.96 -3.23,-3.24 -0.94,1.55 -2.17,2.76 -2.26,4.07 -0.02,1.01 1.37,2.15 2.13,3.24 1.12,-1.36 2.24,-2.71 3.36,-4.07z"/>
   <path class="fil0" d="M6431.59 3094.73l-0.84 0c-0.17,0.23 -0.33,0.46 -0.51,0.71 0.27,-0.16 0.55,-0.3 0.8,-0.44 0.19,-0.09 0.37,-0.18 0.55,-0.27z"/>
   <path class="fil0" d="M6422.32 3086.25c0.27,0.43 0.55,1.18 0.78,1.18 0.73,-0.11 1.42,-0.52 2.12,-0.82 -0.25,-0.44 -0.52,-1.29 -0.73,-1.23 -0.73,0.13 -1.44,0.54 -2.17,0.87z"/>
   <path class="fil0" d="M6627.74 1273.9c0.07,-1.92 0.05,-3.82 0.05,-5.74 -0.67,0.09 -1.35,0.18 -2.01,0.27 0.27,1.97 0.57,3.92 0.86,5.86 0.39,-0.11 1.1,-0.25 1.1,-0.39z"/>
   <path class="fil0" d="M6626.77 1858.29c-0.67,0.13 -1.33,0.27 -1.99,0.4 0.16,4.17 0.3,8.38 0.43,12.56 1.08,-0.25 2.13,-0.5 3.22,-0.75 -0.57,-4.07 -1.12,-8.12 -1.66,-12.21z"/>
   <path class="fil0" d="M6629.92 1818.46c-0.78,-0.11 -1.56,-0.24 -2.31,-0.38 -0.52,3.54 -1.05,7.09 -1.56,10.63 1.08,0.12 2.13,0.23 3.21,0.32 0.22,-3.52 0.43,-7.04 0.66,-10.57z"/>
   <path class="fil0" d="M6417.09 3061.21c0.33,-1 1.01,-2.12 0.85,-3.02 -0.12,-0.84 -1.12,-1.44 -1.74,-2.17 -0.32,1.05 -0.66,2.11 -0.98,3.13 0.61,0.69 1.26,1.38 1.87,2.06z"/>
   <path class="fil0" d="M6802.44 1738.57c0.32,-0.23 0.66,-0.43 0.98,-0.64 -0.23,-0.34 -0.46,-0.89 -0.71,-0.96 -0.3,-0.07 -0.64,0.37 -0.99,0.57 0.24,0.35 0.49,0.69 0.72,1.03z"/>
   <polygon class="fil0" points="6618.47,1995.69 6619.19,1995.9 6618.97,1994.61 "/>
   <path class="fil0" d="M6592.68 769.55c0.65,-8.73 -0.75,-9.83 -8.18,-9.99l0.07 0.2 -0.35 -0.18c-5.94,16.2 -5.72,33.31 -1.53,49.48 2.19,8.53 1.79,12.53 -3.04,18.55 -6.84,8.5 -7.32,24.1 -2.54,35.56 -3.18,4.28 -7.62,8.1 -1.85,14.62 0.98,1.12 1.39,5.55 0.66,6.51 -7.09,9.11 2.36,12.7 3.02,19.24 2.24,-6.15 4.69,-12.19 4.85,-18.34 0.36,-13.31 7.8,-26.38 1.12,-40.05 -0.57,-1.15 -0.25,-4.32 0.51,-5.06 5.81,-5.55 4.59,-11.71 2.32,-19.28 -1.18,-3.93 0.15,-9.31 0.67,-13.97 1.37,-12.44 3.36,-24.79 4.27,-37.29z"/>
   <path class="fil0" d="M6617.85 2029.92l0 -1.44c-0.42,-0.21 -0.83,-0.64 -1.13,-0.55 -0.27,0.09 -0.46,0.8 -0.66,1.21 0.59,0.28 1.19,0.53 1.79,0.78z"/>
   <path class="fil0" d="M6591.83 672.42c-0.57,0.6 -1.1,1.31 -1.74,1.67 -0.23,0.14 -1.08,-0.66 -1.06,-0.8 0.24,-0.94 0.6,-1.85 0.94,-2.77 0.62,0.65 1.24,1.29 1.86,1.9zm-4.14 -75.91c-4.35,19.79 -11.23,38.7 -13.34,59.17 -1.21,11.87 -0.23,24.2 0.25,36.28 0.28,7.2 5.67,12.05 11.78,11.59 6.75,-0.48 8.63,-2.95 8.74,-12.49 0.09,-8.55 0.07,-17.24 0.05,-26.12 -2.86,-22.94 -4.99,-46.13 -6.36,-69.55 -0.53,0.32 -1.03,0.64 -1.12,1.12z"/>
   <path class="fil0" d="M6623.26 1194.53c4.67,-5.51 4.8,-10.72 0,-16.69l0 16.69z"/>
   <path class="fil0" d="M6430.25 3095.43c-2.01,1.07 -4,2.15 -5.99,3.24 0.55,0.96 1.09,1.93 1.64,2.89 1.47,-2.06 2.91,-4.1 4.35,-6.13z"/>
   <path class="fil0" d="M6635.01 1201.2c0.44,-0.85 0.87,-1.67 1.31,-2.52 -0.71,0.51 -1.44,0.99 -2.17,1.49 0.29,0.34 0.59,0.68 0.86,1.03z"/>
   <path class="fil0" d="M6636.32 1198.69c0.19,-0.12 0.35,-0.26 0.53,-0.37 0.94,-1.56 1.87,-3.13 2.79,-4.69 -0.05,-0.09 -0.11,-0.21 -0.18,-0.3 -0.94,1.58 -1.88,3.16 -2.82,4.74 -0.11,0.2 -0.2,0.41 -0.32,0.62z"/>
   <path class="fil0" d="M6737.53 1699.91c-0.37,0.25 -0.74,0.5 -1.1,0.77 0.36,0.28 0.73,0.58 1.1,0.85l0 -1.62z"/>
   <path class="fil0" d="M6634.67 1177.51c0.37,3.11 0.73,6.22 1.08,9.33 0.39,-3.06 0.76,-6.15 1.14,-9.21 -0.75,-0.05 -1.49,-0.07 -2.22,-0.12z"/>
   <path class="fil0" d="M6652.82 1190.06c0.71,-0.02 1.39,-0.04 2.1,-0.07l0 -12.44c-0.71,0.05 -1.39,0.07 -2.1,0.14l0 12.37z"/>
   <path class="fil0" d="M6713.46 1708.8c0.45,0.11 0.88,0.2 1.29,0.29 0.41,-0.15 0.8,-0.31 1.21,-0.5 -0.34,-0.29 -0.71,-0.89 -0.98,-0.82 -0.53,0.14 -1.01,0.66 -1.52,1.03z"/>
   <polygon class="fil0" points="6622.29,1297.09 6621.44,1296.96 6621.78,1298.33 "/>
   <path class="fil0" d="M6638.88 1311.51c0.04,-0.4 -0.25,-0.84 -0.41,-1.27 -0.07,0.77 -0.14,1.57 -0.21,2.35 0.21,-0.36 0.6,-0.71 0.62,-1.08z"/>
   <polygon class="fil0" points="6621.68,1931.94 6622.16,1930.96 6621.39,1930.82 "/>
   <path class="fil0" d="M6623.07 1891.6c-0.51,8.74 -1.02,17.5 -1.52,26.24 3.91,-8.38 6.11,-16.93 1.52,-26.24z"/>
   <path class="fil0" d="M6635.75 1186.84c-0.04,0.42 -0.09,0.83 -0.16,1.24 0.12,0.07 0.27,0.07 0.39,0.14 -0.02,-0.07 -0.04,-0.12 -0.09,-0.17 -0.05,-0.38 -0.09,-0.79 -0.14,-1.21z"/>
   <path class="fil0" d="M6635.99 1188.2c1.14,1.72 2.31,3.43 3.48,5.13 0.02,-0.02 0.04,-0.07 0.06,-0.11 1.22,-4.88 -1.64,-4.31 -3.54,-5.02z"/>
   <polygon class="fil1" points="242.18,2230.36 33.54,2230.36 33.54,1190.08 242.18,1190.08 "/>
   <path class="fil1" d="M1172.16 1503.06c-23.83,-43.68 -56.65,-76.96 -98.35,-99.84 -41.74,-22.85 -90.43,-34.28 -146.06,-34.28 -61.64,0 -116.24,13.92 -163.95,41.74 -47.69,27.81 -84.95,67.59 -111.77,119.21 -26.81,51.67 -40.24,111.3 -40.24,178.86 0,69.56 13.65,130.17 40.99,181.81 27.31,51.69 65.32,91.42 114.02,119.21 48.67,27.84 105.28,41.74 169.87,41.74 79.5,0 144.6,-21.08 195.26,-63.33 50.66,-42.2 83.96,-101.09 99.84,-176.6l-357.68 0 0 -159.48 563.37 0 0 181.83c-13.95,72.55 -43.76,139.61 -89.43,201.21 -45.72,61.61 -104.57,111.02 -176.62,148.28 -72.05,37.26 -152.77,55.87 -242.2,55.87 -100.36,0 -191.01,-22.56 -271.97,-67.79 -80.99,-45.19 -144.56,-108.04 -190.76,-188.53 -46.2,-80.49 -69.3,-171.89 -69.3,-274.22 0,-102.33 23.1,-193.98 69.3,-274.97 46.2,-80.97 109.77,-144.05 190.76,-189.29 80.96,-45.2 171.15,-67.79 270.51,-67.79 117.22,0 219.1,28.54 305.51,85.7 86.45,57.13 146.06,137.35 178.83,240.66l-239.93 0z"/>
   <path class="fil1" d="M1801.08 1668.51l174.36 0c56.65,0 98.85,-13.65 126.68,-40.98 27.8,-27.34 41.75,-65.33 41.75,-114.02 0,-47.72 -13.95,-84.7 -41.75,-111.05 -27.83,-26.33 -70.03,-39.47 -126.68,-39.47l-174.36 0 0 305.52zm327.87 561.86l-229.52 -405.36 -98.35 0 0 405.36 -208.64 0 0 -1040.28 390.45 0c80.49,0 149.04,14.16 205.69,42.5 56.61,28.29 99.11,66.56 127.4,114.75 28.31,48.19 42.5,102.08 42.5,161.68 0,68.55 -19.9,130.42 -59.61,185.56 -39.77,55.15 -98.9,93.17 -177.37,114l248.9 421.79 -241.45 0z"/>
   <polygon class="fil1" points="2756.37,1358.51 2756.37,1619.32 3106.6,1619.32 3106.6,1784.73 2756.37,1784.73 2756.37,2060.46 3151.3,2060.46 3151.3,2230.35 2547.72,2230.35 2547.72,1188.61 3151.3,1188.61 3151.3,1358.51 "/>
   <path class="fil1" d="M3947.16 1190.08l0 730.27c0,101.37 -29.32,180.12 -87.94,236.25 -58.62,56.13 -137.1,84.19 -235.45,84.19 -99.38,0 -179.59,-28.79 -240.7,-86.43 -61.1,-57.59 -91.66,-138.08 -91.66,-241.46l208.64 0c0.99,44.71 11.67,79.52 32.05,104.34 20.35,24.86 49.93,37.26 88.68,37.26 37.74,0 66.56,-11.92 86.45,-35.75 19.83,-23.88 29.81,-56.66 29.81,-98.4l0 -730.27 210.12 0z"/>
   <polygon class="fil1" points="8422.33,1258.56 8040.8,2298.85 7787.44,2298.85 7405.93,1258.56 7629.46,1258.56 7915.61,2085.72 8200.26,1258.56 "/>
   <polygon class="fil1" points="3987.23,2228.14 4368.76,1187.86 4622.12,1187.86 5003.63,2228.14 4780.1,2228.14 4493.94,1400.99 4209.3,2228.14 "/>
   <polygon class="fil1" points="9630.83,2320.88 10012.37,1280.61 10265.72,1280.61 10647.24,2320.88 10423.71,2320.88 10137.55,1493.73 9852.9,2320.88 "/>
   <polygon class="fil1" points="8756.17,2298.85 8547.53,2298.85 8547.53,1258.56 8756.17,1258.56 "/>
   <polygon class="fil1" points="9896.29,1258.56 9514.76,2298.85 9261.4,2298.85 8879.9,1258.56 9103.43,1258.56 9389.58,2085.72 9674.23,1258.56 "/>
   <path class="fil1" d="M7763.51 2662.74l235.88 0c0.48,-2.76 0.65,-5.22 0.65,-7.5 0,-2.28 0,-4.4 0,-6.36 0,-21.86 -3.1,-42.41 -9.13,-61.66 -6.2,-19.09 -15.17,-35.89 -27.08,-50.08 -11.92,-14.19 -26.59,-25.29 -43.89,-33.6 -17.29,-8.32 -36.86,-12.4 -58.72,-12.4 -20.72,0 -39.64,4.08 -57.1,12.07 -17.45,8 -32.62,19.08 -45.18,33.11 -12.72,14.03 -22.67,30.51 -29.69,49.43 -7.01,19.08 -10.6,39.31 -10.6,60.84 0,23.01 3.91,44.05 11.74,63.13 7.84,19.25 18.44,35.73 31.97,49.27 13.39,13.7 29.04,24.3 47.15,31.65 18.1,7.5 37.19,11.25 57.58,11.25 28.39,0 52.2,-5.05 71.45,-15.33 19.09,-10.12 36.22,-23.66 51.06,-40.46l-27.57 -24.79c-12.24,12.72 -25.77,22.83 -40.62,30.5 -14.84,7.67 -32.46,11.58 -53.18,11.58 -13.05,0 -25.45,-2.28 -37.35,-6.69 -11.91,-4.4 -22.68,-10.92 -32.3,-19.57 -9.62,-8.64 -17.45,-19.09 -23.49,-31.65 -6.2,-12.39 -10.11,-26.59 -11.58,-42.74zm0 -32.78c1.47,-14.68 5.06,-28.23 10.44,-40.46 5.38,-12.23 12.23,-22.84 20.71,-31.81 8.32,-8.97 18.11,-16.15 29.21,-21.37 11.09,-5.05 23.16,-7.66 36.21,-7.66 15.01,0 28.22,2.77 39.47,8.32 11.26,5.54 20.88,12.89 28.88,22.02 7.83,9.3 14.03,20.06 18.43,32.3 4.41,12.23 7.01,25.12 8.15,38.66l-191.5 0zm550.05 -79.45c-7.99,-16.96 -19.9,-31.15 -35.72,-42.4 -15.83,-11.26 -35.72,-16.97 -59.87,-16.97 -12.56,0 -23.65,1.46 -33.27,4.56 -9.63,3.1 -18.27,7.35 -25.94,12.41 -7.67,5.22 -14.52,11.25 -20.39,18.1 -6.04,7.01 -11.42,14.03 -16.48,21.37l0 -50.08 -44.37 0 0 297.54 44.37 0 0 -169.82c0,-13.86 2.12,-26.42 6.36,-37.68 4.24,-11.25 10.12,-21.2 17.62,-29.69 7.34,-8.31 16.15,-14.84 26.1,-19.57 9.95,-4.56 20.88,-6.85 32.79,-6.85 23.82,0 42.58,7.83 56.11,23.32 13.55,15.51 20.39,37.36 20.39,65.42l0 174.87 43.72 0 0 -171.44c0,-14.52 2.28,-27.57 6.69,-39.16 4.4,-11.58 10.28,-21.2 17.78,-29.19 7.51,-7.83 16.31,-13.71 26.26,-17.79 9.96,-4.07 20.56,-6.03 31.65,-6.03 24.14,0 43.06,7.83 56.77,23.32 13.54,15.51 20.39,37.69 20.39,66.56l0 173.73 44.2 0 0 -184.17c0,-37.19 -9.79,-66.39 -29.36,-87.76 -19.57,-21.37 -46.65,-31.97 -81.07,-31.97 -13.05,0 -24.8,1.46 -35.4,4.56 -10.6,3.1 -20.06,7.35 -28.38,12.73 -8.48,5.38 -16.15,11.74 -22.84,19.09 -6.69,7.34 -12.72,15 -18.11,22.99zm739.45 193.96l-28.22 -26.59c-11.91,12.73 -25.12,23.33 -39.97,31.65 -14.84,8.48 -31.81,12.72 -51.06,12.72 -15.66,0 -30.17,-2.93 -43.39,-8.97 -13.21,-5.87 -24.8,-14.03 -34.42,-24.63 -9.79,-10.61 -17.45,-23 -23,-37.2 -5.71,-14.19 -8.48,-29.35 -8.48,-45.5 0,-16.16 2.77,-31.16 8.16,-45.19 5.38,-13.87 12.72,-26.1 22.34,-36.71 9.63,-10.6 20.88,-18.75 33.93,-24.79 13.05,-6.04 27.08,-8.97 42.09,-8.97 20.39,0 37.52,4.4 51.55,13.21 13.86,8.81 26.91,19.41 38.82,31.65l29.36 -31c-7.01,-7.34 -14.51,-14.19 -22.51,-20.71 -7.99,-6.53 -16.8,-12.23 -26.42,-16.97 -9.63,-4.73 -20.07,-8.48 -31.65,-11.25 -11.58,-2.78 -24.47,-4.08 -38.66,-4.08 -21.86,0 -42.09,4.08 -60.69,12.4 -18.59,8.31 -34.74,19.41 -48.28,33.6 -13.54,14.19 -24.14,30.83 -31.81,49.75 -7.67,19.09 -11.58,39.15 -11.58,60.2 0,21.04 3.91,41.1 11.58,59.86 7.67,18.76 18.27,35.24 31.81,49.27 13.54,14.03 29.69,25.12 48.28,33.28 18.6,8.31 38.83,12.39 60.69,12.39 28.06,0 51.55,-5.39 70.63,-16.15 18.93,-10.6 35.89,-24.47 50.9,-41.27zm99.5 -81.73l235.88 0c0.49,-2.76 0.65,-5.22 0.65,-7.5 0,-2.28 0,-4.4 0,-6.36 0,-21.86 -3.09,-42.41 -9.13,-61.66 -6.2,-19.09 -15.17,-35.89 -27.08,-50.08 -11.91,-14.19 -26.59,-25.29 -43.88,-33.6 -17.29,-8.32 -36.87,-12.4 -58.73,-12.4 -20.71,0 -39.63,4.08 -57.09,12.07 -17.46,8 -32.63,19.08 -45.19,33.11 -12.72,14.03 -22.67,30.51 -29.68,49.43 -7.02,19.08 -10.6,39.31 -10.6,60.84 0,23.01 3.9,44.05 11.74,63.13 7.83,19.25 18.43,35.73 31.97,49.27 13.38,13.7 29.04,24.3 47.14,31.65 18.11,7.5 37.19,11.25 57.58,11.25 28.39,0 52.2,-5.05 71.45,-15.33 19.09,-10.12 36.22,-23.66 51.06,-40.46l-27.57 -24.79c-12.23,12.72 -25.77,22.83 -40.62,30.5 -14.84,7.67 -32.45,11.58 -53.17,11.58 -13.06,0 -25.45,-2.28 -37.36,-6.69 -11.91,-4.4 -22.68,-10.92 -32.3,-19.57 -9.62,-8.64 -17.45,-19.09 -23.49,-31.65 -6.19,-12.39 -10.11,-26.59 -11.58,-42.74zm0 -32.78c1.47,-14.68 5.06,-28.23 10.44,-40.46 5.38,-12.23 12.24,-22.84 20.72,-31.81 8.32,-8.97 18.11,-16.15 29.2,-21.37 11.09,-5.05 23.16,-7.66 36.21,-7.66 15.01,0 28.22,2.77 39.48,8.32 11.25,5.54 20.87,12.89 28.87,22.02 7.83,9.3 14.03,20.06 18.43,32.3 4.41,12.23 7.02,25.12 8.16,38.66l-191.51 0zm105.87 -177.32l64.92 -62.15 -46 -21.37 -54.65 83.52 35.73 0zm256.59 342.4l0 -420.05 -44.37 0 0 420.05 44.37 0zm314.18 -127.24c0,13.87 -2.29,26.43 -6.85,38.01 -4.74,11.58 -10.93,21.37 -18.76,29.69 -7.83,8.32 -17.13,14.52 -28.06,18.92 -10.93,4.4 -22.83,6.69 -35.56,6.69 -26.43,0 -46.66,-7.99 -60.85,-24.14 -14.19,-16.15 -21.36,-38.01 -21.36,-65.58l0 -173.89 -44.38 0 0 184.82c0,17.62 2.62,33.77 7.84,48.29 5.05,14.51 12.56,27.07 22.35,37.68 9.78,10.6 21.69,18.76 35.72,24.47 14.02,5.7 30.01,8.64 48.12,8.64 25.61,0 46.49,-5.71 62.64,-16.96 16.15,-11.26 29.2,-25.12 39.15,-41.28l0 51.88 43.72 0 0 -297.54 -43.72 0 0 170.3zm191.67 127.24l0 -420.05 -44.37 0 0 420.05 44.37 0zm210.59 -262.47c28.06,0 49.92,6.85 65.41,20.4 15.5,13.69 23.17,33.92 23.17,60.84l0 10.27c-13.38,-3.74 -27.08,-6.84 -41.27,-9.13 -14.19,-2.28 -31,-3.43 -50.24,-3.43 -18.76,0 -35.89,2.12 -51.39,6.2 -15.49,4.24 -29.04,10.44 -40.29,18.43 -11.26,8 -20.06,18.11 -26.1,30.19 -6.2,12.23 -9.29,26.09 -9.29,41.76 0,15.82 3.09,29.36 9.45,40.94 6.36,11.58 14.68,21.21 25.29,29.03 10.6,7.83 22.51,13.71 35.72,17.62 13.22,3.75 26.76,5.71 40.62,5.71 26.42,0 48.45,-5.22 65.9,-15.66 17.45,-10.27 31.32,-22.18 41.6,-35.56l0 44.86 42.58 0 0 -181.88c0,-39.48 -10.93,-69.33 -32.79,-89.56 -21.86,-20.06 -53.18,-30.18 -93.8,-30.18 -21.86,0 -41.27,2.28 -58.07,6.69 -16.8,4.4 -33.6,10.44 -50.08,18.1l13.21 36.22c13.87,-6.52 27.9,-11.75 42.41,-15.83 14.36,-4.07 30.35,-6.03 47.96,-6.03zm1.8 111.74c18.43,0 34.74,1.3 49.26,3.92 14.35,2.77 27.08,5.54 38.17,8.64l0 28.88c0,11.9 -2.61,22.67 -7.67,32.46 -5.21,9.78 -12.39,18.27 -21.37,25.28 -8.97,7.18 -19.57,12.73 -31.64,16.8 -12.07,4.08 -24.96,6.04 -38.82,6.04 -9.96,0 -19.58,-1.3 -28.55,-4.08 -8.97,-2.77 -16.97,-6.69 -23.81,-11.91 -7.02,-5.05 -12.41,-11.25 -16.49,-18.59 -4.07,-7.34 -6.03,-15.66 -6.03,-25.29 0,-19.25 7.51,-34.42 22.52,-45.51 14.84,-11.09 36.37,-16.64 64.43,-16.64zm428.2 67.21l0 -1.14c0,-13.38 -2.77,-24.63 -8.32,-33.93 -5.71,-9.14 -13.05,-16.97 -22.18,-23.49 -9.3,-6.53 -19.58,-11.91 -30.83,-16.15 -11.26,-4.24 -22.68,-8.16 -34.26,-11.59 -9.95,-3.1 -19.58,-6.03 -28.71,-9.13 -9.3,-3.1 -17.45,-6.52 -24.47,-10.44 -7.02,-3.75 -12.72,-8.32 -16.97,-13.54 -4.24,-5.05 -6.36,-11.09 -6.36,-18.11l0 -1.14c0,-12.23 5.22,-22.51 15.5,-30.83 10.27,-8.15 24.3,-12.23 42.09,-12.23 14.52,0 29.36,2.61 44.53,7.66 15.17,5.22 29.52,12.24 43.39,21.05l20.23 -33.44c-15.33,-9.96 -32.46,-17.78 -51.23,-23.82 -18.75,-6.03 -37.35,-8.97 -55.78,-8.97 -14.52,0 -28.06,1.96 -40.62,6.04 -12.56,4.07 -23.16,9.79 -32.14,17.29 -8.96,7.5 -15.98,16.47 -21.04,27.07 -5.05,10.61 -7.5,22.19 -7.5,34.75l0 1.31c0,13.86 2.93,25.28 8.97,34.42 5.87,9.3 13.54,16.96 23,22.99 9.3,6.2 19.9,11.26 31.65,15.34 11.58,4.08 23.16,7.83 34.74,11.25 9.62,2.62 18.92,5.39 27.89,8.49 8.98,3.1 16.97,6.69 23.99,10.76 6.84,4.08 12.23,8.65 16.31,14.03 4.08,5.38 6.04,11.75 6.04,19.09l0 1.14c0,14.52 -5.72,26.1 -17.13,34.42 -11.58,8.48 -26.27,12.72 -44.38,12.72 -17.77,0 -35.23,-3.26 -52.68,-9.79 -17.46,-6.52 -34.26,-15.98 -50.41,-28.21l-22.35 31.64c16.81,13.54 36.22,24.14 58.07,31.97 21.87,7.84 43.56,11.75 65.09,11.75 14.85,0 28.87,-1.96 41.76,-6.03 12.89,-4.08 23.98,-9.96 33.28,-17.63 9.3,-7.66 16.8,-16.96 22.51,-27.89 5.55,-10.93 8.32,-23.49 8.32,-37.68z"/>
  </g>
 </g>
</svg>
