<?xml version="1.0" encoding="UTF-8"?>
<!DOCTYPE svg PUBLIC "-//W3C//DTD SVG 1.1//EN" "http://www.w3.org/Graphics/SVG/1.1/DTD/svg11.dtd">
<!-- Creator: CorelDRAW (Versão OEM) -->
<svg xmlns="http://www.w3.org/2000/svg" xml:space="preserve" width="57mm" height="109mm" version="1.1" style="shape-rendering:geometricPrecision; text-rendering:geometricPrecision; image-rendering:optimizeQuality; fill-rule:evenodd; clip-rule:evenodd"
viewBox="0 0 5700 10900"
 xmlns:xlink="http://www.w3.org/1999/xlink"
 xmlns:xodm="http://www.corel.com/coreldraw/odm/2003">
 <defs>
  <style type="text/css">
   <![CDATA[
    .fil0 {fill:#0BB8F4;fill-rule:nonzero}
    .fil1 {fill:#0F4659;fill-rule:nonzero}
   ]]>
  </style>
 </defs>
 <g id="Camada_x0020_1">
  <metadata id="CorelCorpID_0Corel-Layer"/>
  <g id="_1924628022096">
   <path class="fil0" d="M3907.33 2588.56c-0.61,1 -1.62,1.92 -1.72,2.97 -0.07,1.09 0.79,2.32 1.18,3.47 0.62,-0.96 1.21,-1.91 1.8,-2.9 -0.39,-1.16 -0.84,-2.34 -1.26,-3.54z"/>
   <path class="fil0" d="M3870.91 8342.86c0.32,-1.5 0.69,-3.02 1.01,-4.53 -1.94,-0.34 -3.86,-0.69 -5.8,-1.01 0.54,2.49 1.1,4.97 1.65,7.46 1.03,-0.64 2.11,-1.28 3.14,-1.92z"/>
   <path class="fil0" d="M3889.89 8135.22l-0.67 0.18c1.65,3.86 3.35,7.7 5.02,11.54 -1.47,-3.94 -2.9,-7.85 -4.35,-11.72z"/>
   <path class="fil0" d="M3888.94 8579.75c-26.76,30.43 -26.76,30.43 -11.38,71.32 4.22,-26.32 7.12,-44.61 11.38,-71.32z"/>
   <path class="fil0" d="M3890.95 8192.76c-1.92,-1.72 -3.87,-3.42 -6.97,-6.15 -1.82,3.64 -3.62,7.31 -5.44,10.95 2.04,1.63 5.02,5.22 5.96,4.48 2.58,-2.14 4.38,-6.07 6.45,-9.28z"/>
   <polygon class="fil0" points="3883.64,8271.14 3881.76,8270.7 3882.36,8273.46 "/>
   <path class="fil0" d="M3887.16 8135.91l2.04 -0.52c-0.07,-0.2 -0.17,-0.42 -0.27,-0.62l-1.77 1.14z"/>
   <path class="fil0" d="M3928.96 6345.23c1,-17.25 2.04,-35.1 3.72,-63.66 -11.48,36.93 -11.75,38.28 -3.72,63.66z"/>
   <path class="fil0" d="M3929.34 6350.47c-0.64,5.64 -1.25,11.25 -1.92,16.88 2.09,-0.24 4.18,-0.56 6.25,-0.76 -1.43,-5.36 -2.88,-10.76 -4.33,-16.12z"/>
   <polygon class="fil0" points="3907.97,7989.49 3906.35,7992.65 3908.85,7993.12 "/>
   <path class="fil0" d="M3928.96 6345.23c-0.08,1.04 -0.13,2.1 -0.2,3.13 0.2,0.71 0.39,1.4 0.59,2.11 0.1,-0.98 0.22,-1.96 0.32,-2.95 -0.27,-0.86 -0.47,-1.48 -0.71,-2.29z"/>
   <path class="fil0" d="M3972.15 1623.59c0,2.09 0.2,4.18 0.3,6.27 -0.1,-2.09 -0.21,-4.18 -0.3,-6.27z"/>
   <path class="fil0" d="M3924.21 2767.43c0.99,2.34 2.26,4.53 3.47,6.72 1.68,-1.72 3.37,-3.55 5.09,-5.32 -1.87,-1.4 -3.66,-3.22 -5.63,-4.08 -0.76,-0.3 -3.03,2.48 -2.93,2.68z"/>
   <path class="fil0" d="M3848.22 7456.49c-1.92,0.27 -3.89,0.63 -5.83,0.93l0 32.47c3.17,-0.45 6.37,-0.96 9.55,-1.45 -1.21,-10.66 -2.46,-21.32 -3.72,-31.95z"/>
   <path class="fil0" d="M3915.69 7943.87c-0.81,-2.55 -2.24,-4.77 -3.42,-7.16 -1.65,2.12 -3.25,4.24 -4.92,6.38 1.99,1.52 3.86,3.24 5.96,4.23 0.46,0.22 2.55,-2.81 2.38,-3.45z"/>
   <path class="fil0" d="M3923.65 8249.06c-2.9,-0.3 -5.78,-0.62 -8.68,-0.92 -0.55,14.68 -1.14,29.35 -1.68,43.99 1.4,0.08 2.86,0.15 4.26,0.25 2.01,-14.48 4.06,-28.93 6.1,-43.32z"/>
   <path class="fil0" d="M3879.21 7461.09c2.51,-0.31 5,-0.71 7.56,-1.08 2.06,-58.69 7.75,-117.72 5.12,-176.06 -2.07,-46.61 -2.22,-91.46 7.36,-136.24 3.62,-16.93 1.35,-30.48 -16.27,-44.16 -18.08,114.35 -4.83,225.44 -10.81,334.95 -0.39,7.26 4.58,15.06 7.04,22.59z"/>
   <path class="fil0" d="M3779.35 1706.48c-0.27,-2.7 -0.56,-5.41 -0.84,-8.15 -0.76,1.19 -1.67,2.44 -1.48,3.13 0.52,1.8 1.46,3.4 2.32,5.02z"/>
   <path class="fil0" d="M3778.35 1696.68c0.05,0.56 0.13,1.1 0.18,1.67 0.22,-0.35 0.44,-0.67 0.61,-0.96 3.23,-4.06 6.43,-8.1 9.65,-12.16 0.03,-0.32 0.05,-0.62 0.08,-0.94 -0.22,-0.07 -0.42,-0.12 -0.64,-0.19 -3.32,4.18 -6.58,8.39 -9.88,12.58z"/>
   <path class="fil0" d="M3779.71 1662.2c3.33,0.89 6.65,1.82 9.96,2.78 0.26,-0.1 0.51,-0.2 0.76,-0.3 0.02,-0.27 0.04,-0.56 0.07,-0.83 -3.59,-0.54 -7.21,-1.09 -10.79,-1.65z"/>
   <path class="fil0" d="M3482.67 9068.17c0.39,-1.4 0.76,-2.78 1.13,-4.16 -1.28,0.89 -2.54,1.8 -3.81,2.68 0.9,0.5 1.79,0.97 2.68,1.48z"/>
   <path class="fil0" d="M3780.58 1709.16c-0.42,-0.87 -0.79,-1.8 -1.24,-2.66 0.13,1.23 0.26,2.48 0.37,3.74l0.87 -1.08z"/>
   <path class="fil0" d="M1154.21 5203.2c0.99,1.16 1.97,2.34 2.95,3.52 -0.04,-0.89 0,-1.87 -0.29,-2.58 -0.35,-0.76 -1.75,-0.67 -2.66,-0.94z"/>
   <path class="fil0" d="M3808.67 1657.71c-6.1,2.32 -12.16,4.66 -18.24,6.97 -0.54,6.57 -1.06,13.07 -1.55,19.62 6.13,1.85 12.33,3.77 18.24,5.51 -3.96,58.33 12.85,71.22 65.88,47.71 -9.01,-1.2 -18.07,-2.38 -31.81,-4.21 1.53,-28.75 3.01,-57.84 4.58,-88.18 36.39,-18.71 42.13,-67.76 57.91,-106.79 2.31,-5.73 -0.97,-19.45 -5.42,-26.81 -7.17,1.34 -14.21,3.69 -20.9,7.91 -0.59,1.6 -1.23,3.15 -1.75,4.77 -1.38,4.14 -5.24,6.82 -10.31,13.07 -0.42,-3.14 -1.02,-5.78 -1.55,-8.76 -29.89,20.23 -59.28,40.74 -88.48,61.37 0.27,14.58 0.98,29.37 3.72,44.91 1.23,7.06 19,9.74 29.68,22.91z"/>
   <path class="fil0" d="M3929.75 7190.65c-0.07,-1.19 -0.15,-2.37 -0.23,-3.54 -0.07,-0.37 -0.16,-0.72 -0.24,-1.09 -0.2,0.67 -0.34,1.33 -0.57,1.99 0.37,0.87 0.67,1.78 1.04,2.64z"/>
   <path class="fil0" d="M3872.06 8522.81c10.58,21.64 21.37,33.63 40.37,24.1 -11.52,-10.21 -18.22,-35.33 -40.37,-24.1z"/>
   <path class="fil0" d="M3902.07 8682.16c2.29,-1.31 5.71,-1.84 6.53,-4.06 0.76,-2.19 -1.19,-6.01 -2,-9.09 -2.27,1.36 -5.54,2.07 -6.57,4.41 -0.76,1.82 1.27,5.74 2.04,8.74z"/>
   <path class="fil0" d="M3861.91 7715.41c10.78,-23.83 21.29,-40.4 3.22,-61.27 -0.93,18.04 -1.89,36.12 -3.22,61.27z"/>
   <path class="fil0" d="M3931.8 7195.89c-0.57,-1.82 -1.34,-3.52 -2.05,-5.25 0.15,2.61 0.32,5.25 0.5,7.83 0.56,-0.86 1.72,-2.09 1.55,-2.58z"/>
   <path class="fil0" d="M3869.33 7597.94c-0.89,-0.42 -2.22,0.77 -3.35,1.24 0.08,1.59 0.22,3.19 0.32,4.82 1.79,-0.81 3.57,-1.63 5.34,-2.44 -0.73,-1.27 -1.3,-3.2 -2.31,-3.62z"/>
   <path class="fil0" d="M1290.04 5300.37c0,0 0,-0.03 0,-0.03 0,0 0,0 0,0 0,0.03 0,0.03 0,0.03 0,0 0,0.02 0,0z"/>
   <path class="fil0" d="M3920.73 7148.41c2.85,12.56 5.71,25.09 8.54,37.62 4.28,-13.69 6.84,-27.13 -8.54,-37.62z"/>
   <path class="fil0" d="M1828.39 4895.89l0.27 1.72c-0.1,0.32 -0.2,0.64 -0.3,0.98 0.28,0.05 0.55,0.05 0.82,0.13l-0.79 -2.83z"/>
   <path class="fil0" d="M3850.35 8956.24c-1.03,-0.54 -2.45,-1.95 -3.02,-1.48 -0.89,0.74 -1.18,2.66 -2.09,5.12 2.09,-1.54 3.61,-2.61 5.11,-3.64z"/>
   <path class="fil0" d="M4099.35 2571.96c4.03,10.91 0.62,26.59 0.62,39.83 3.69,0.55 8.24,2 8.52,1.18 11.36,-37.83 19.54,-76.18 25.12,-116.73 -8.24,-26.22 -16.29,-52.51 -24.02,-78.9 -1.92,11.62 -4.34,23.22 -7.73,34.81 -10.71,36.6 -17.83,78.68 -2.51,119.81z"/>
   <path class="fil0" d="M3940.74 7033.05c-2.01,20.19 -3.3,32.82 -4.53,44.9 10.69,-17.11 10.74,-18.66 4.53,-44.9z"/>
   <path class="fil0" d="M2072.73 4845.29c-34.46,-13.42 -39.14,-8.35 -33.11,30.05 0.4,2.56 0.52,5.24 0.69,7.9 4.01,-6.77 7.64,-14.13 12.39,-19.79 5.34,-6.45 11.96,-11.02 20.03,-18.16z"/>
   <path class="fil0" d="M2040.31 4883.26c-0.27,0.46 -0.51,0.93 -0.81,1.4 0.02,0.71 -0.05,1.03 -0.03,1.7 0.35,-0.17 0.72,-0.35 1.07,-0.52 -0.08,-0.86 -0.18,-1.72 -0.23,-2.58z"/>
   <path class="fil0" d="M3935.9 7081.11c0.1,-1.03 0.22,-2.12 0.32,-3.17 -0.49,0.79 -0.69,1.21 -1.21,2.04 -0.04,1.52 -0.14,3.05 -0.19,4.6 0.34,-1.16 0.71,-2.34 1.08,-3.47z"/>
   <path class="fil0" d="M3939.96 2631.1c-0.77,9.23 -1.41,17.03 -2.05,24.83 10.52,-4.74 12.09,-12.38 2.05,-24.83z"/>
   <path class="fil0" d="M3937.92 2655.95c-0.37,0.17 -0.55,0.41 -0.97,0.59l-2.04 0.95 2.88 0.05c0.03,-0.49 0.08,-1.08 0.13,-1.59z"/>
   <path class="fil0" d="M4102.9 2651.53c1.15,-2.05 3.1,-4.06 3.2,-6.21 0.08,-1.77 -2.02,-3.69 -3.25,-5.78 -0.84,3.08 -1.87,5.74 -2.19,8.54 -0.1,0.94 1.45,2.29 2.24,3.45z"/>
   <path class="fil0" d="M2164.04 5046.72c7.36,-6.87 14.89,-13.91 27.23,-25.43 -28.16,-8.5 -26.71,9.85 -27.23,25.43z"/>
   <path class="fil0" d="M3396.29 9116.9c-0.22,-0.05 -0.5,-0.17 -0.71,-0.22 -0.03,0.51 0.02,0.98 0,1.48l0.71 -1.26z"/>
   <path class="fil0" d="M2489.76 5531.69c8.03,-0.02 16.08,-0.02 24.08,-0.05 -0.05,-0.3 -0.15,-0.66 -0.2,-0.93l1.11 0.93c-8.31,-9.33 -16.61,-14.74 -24.89,-1.08 0.1,0.02 0.23,0.05 0.35,0.07 -0.15,0.35 -0.3,0.71 -0.45,1.06z"/>
   <path class="fil0" d="M3421.44 8954.95c-0.02,0.22 -0.05,0.47 -0.1,0.69 24.43,-7.36 26.76,-12.01 16.35,-32.08 -0.37,0.02 -0.74,0.02 -1.11,0.05 -5.2,10.39 -10.36,20.78 -15.56,31.17 0.18,0.02 0.24,0.14 0.42,0.17z"/>
   <path class="fil0" d="M2474 5455.69l0.74 -1.94c-0.12,0.09 -0.27,0.16 -0.4,0.26l-0.34 1.68z"/>
   <path class="fil0" d="M2164.04 5046.72c-0.32,0.29 -0.71,0.66 -1.03,0.96 0.15,0.4 0.29,0.77 0.44,1.13 0.17,0.1 0.35,0.15 0.52,0.25 0.02,-0.77 0.04,-1.58 0.07,-2.34z"/>
   <path class="fil0" d="M2770.83 5385.58c0.07,-3.37 0.14,-6.74 0.24,-10.16 -0.05,0.09 -0.1,0.24 -0.15,0.34 -0.02,3.28 -0.05,6.55 -0.09,9.82z"/>
   <path class="fil0" d="M1157.16 5206.73c0.03,0.71 0.17,1.36 0.24,2.07 0.22,0.1 0.42,0.2 0.62,0.32 0.05,-0.39 0.07,-0.81 0.12,-1.23 -0.34,-0.39 -0.66,-0.76 -0.98,-1.16z"/>
   <path class="fil0" d="M3697.05 7736.9l0 -24.33c-1.06,0 -2.16,0 -3.25,0l0 24.38c1.09,0 2.19,-0.03 3.25,-0.05z"/>
   <path class="fil0" d="M3751.52 2274.59c-3.32,31.04 -6.64,62.13 -10.21,95.26 8.96,4.04 15.93,7.2 29.49,13.28 -8.64,-40.53 16.2,-77.13 -19.28,-108.54z"/>
   <path class="fil0" d="M3715.63 7105.83c-6.79,63.96 -16.72,127.89 -2.78,192.31 -6.2,-64.25 13.39,-127.94 2.78,-192.31z"/>
   <path class="fil0" d="M3680.16 8066.72c1.09,-6.65 2.14,-13.35 3.2,-20.02 -2.48,5.66 -4.98,11.3 -7.46,16.99 1.45,1 2.88,2.01 4.26,3.03z"/>
   <path class="fil0" d="M3727.99 8923.35c-0.81,-1.13 -1.58,-2.24 -2.34,-3.37 1.57,-1.11 3.18,-2.22 4.76,-3.28 0.21,1.51 0.88,3.3 0.46,4.48 -0.37,1.04 -1.89,1.48 -2.88,2.17zm27.33 58.15c5.04,-8.44 8.07,-19.1 7.14,-33.51 -8.1,7.32 -16.18,14.7 -28.19,25.54 -0.49,-12.36 -2.31,-19.45 -0.77,-24.72 12.68,-42.71 9.29,-56.82 -19.3,-75.73l0.15 -3.42 -0.39 2.15c-6.16,30.79 -12.36,61.59 -18.54,92.39 17.19,45.78 2.02,93 0.81,140.02 9.78,-2.68 19.53,-5.52 29.28,-8.32 0.07,-30.14 5.61,-59.43 10.6,-88.7 1.7,-9.92 13.54,-16.2 19.21,-25.7z"/>
   <path class="fil0" d="M3831.81 7680.37c3.28,-23.14 5.35,-37.54 7.39,-51.89 -9.58,11.69 -22.26,24.78 -7.39,51.89z"/>
   <path class="fil0" d="M3829.2 8925.21c1.38,0.98 3.97,-0.96 5.96,-1.63 -1.01,-2.54 -1.63,-6.47 -3.23,-7.34 -1.69,-0.98 -4.33,0.92 -6.54,1.53 1.25,2.61 2.04,6.16 3.81,7.44z"/>
   <path class="fil0" d="M3683.35 8046.71c0.42,-0.94 0.82,-1.87 1.24,-2.81 -0.05,-1.08 -0.1,-2.17 -0.18,-3.25 -0.14,0.69 -0.27,1.4 -0.42,2.1 -0.22,1.33 -0.44,2.63 -0.64,3.96z"/>
   <path class="fil0" d="M3780.48 1951.13c4.16,-23.78 16.35,-47.24 0,-82.47l0 82.47z"/>
   <path class="fil0" d="M3686.44 7123.37c-2.02,1.52 -4.9,2.54 -5.66,4.8 -0.67,1.8 1.37,5.12 2.24,7.76 1.82,-1.21 3.64,-2.49 5.49,-3.8 -0.69,-2.92 -1.4,-5.88 -2.07,-8.76z"/>
   <path class="fil0" d="M3683.59 8024.9c0.24,5.25 0.54,10.52 0.84,15.76 1.01,-4.92 2.01,-9.87 3.05,-14.82 -1.3,-0.32 -2.59,-0.57 -3.89,-0.94z"/>
   <polygon class="fil0" points="3687.83,7957.7 3685.32,7958.86 3687.46,7960.93 "/>
   <path class="fil0" d="M3608.42 9123.26c-0.54,0.66 -0.54,2.16 -0.66,3.49 1.67,-0.41 3.32,-0.89 4.99,-1.28 -0.29,-0.89 -0.59,-1.77 -0.86,-2.61 -1.2,0.05 -2.81,-0.42 -3.47,0.4z"/>
   <path class="fil0" d="M3669.66 9101.67c2.12,-1.45 5.17,-2.27 6.01,-4.51 0.73,-1.9 -1.06,-5.49 -1.75,-8.32 -2.12,1.28 -5.4,1.94 -5.98,3.99 -0.69,2.26 1.06,5.78 1.72,8.84z"/>
   <polygon class="fil0" points="3673.16,8996.26 3673.51,8998.62 3673.48,8995.05 "/>
   <path class="fil0" d="M3686.93 7162.94c-1.83,-0.64 -3.67,-1.28 -5.47,-1.92 -3.62,8.47 -7.26,16.89 -14.87,34.71 11.97,-6.85 18.34,-7.88 19.82,-11.97 2.06,-5.75 0.52,-13.81 0.52,-20.82z"/>
   <path class="fil0" d="M3670.04 8945.47c-1.01,-0.6 -2.29,-2 -2.98,-1.58 -0.81,0.49 -1.08,2.48 -1.65,3.84 1.01,0.56 2.02,1.11 3.03,1.72 0.54,-1.32 1.08,-2.68 1.6,-3.98z"/>
   <path class="fil0" d="M2017.59 5324.38c0.37,-0.02 0.71,-2.19 1.06,-3.39 -1.06,-0.52 -2.09,-1.41 -3.12,-1.36 -0.4,0 -0.74,2.21 -1.09,3.45 1.06,0.49 2.14,1.37 3.15,1.3z"/>
   <polygon class="fil0" points="1735.22,5188.95 1733.87,5184.84 1732.55,5188.9 "/>
   <path class="fil0" d="M1930.12 5089.43c1.72,-1.8 3.52,-3.52 5.14,-5.49 0.11,-0.12 -1.4,-3.54 -2.08,-3.49 -2.2,0.14 -4.37,1.23 -6.53,1.92 1.13,2.35 2.29,4.72 3.47,7.06z"/>
   <path class="fil0" d="M1827.09 5405.28c8.82,-7.23 17.66,-14.5 27.89,-22.94 -21.14,-20.41 -25.84,0.12 -27.89,22.94z"/>
   <path class="fil0" d="M3328.66 9093.57c-2.22,-0.42 -3.87,-5.94 -5.79,-9.19 2.66,-2.48 5.32,-6.89 7.95,-6.89 2.41,0.08 4.72,5.04 8.57,9.57 -4.93,3.23 -8.07,7.07 -10.73,6.51zm-11.23 -111.23c-0.22,-0.64 1.6,-3.37 1.99,-3.17 1.97,0.86 3.72,2.38 6.03,4.04 -1.74,1.98 -3.32,3.83 -4.89,5.7 -1.11,-2.16 -2.42,-4.23 -3.13,-6.57zm-171.51 -1162.39l1.35 -2.66 0.86 2.93 -2.21 -0.27zm-209.49 1123.84c-13.97,22.23 -28.89,43.33 -24.8,75.82 -21.54,-11.84 -39.68,-20.65 -57.09,-31.71 -14.96,-9.45 -22.96,-27.44 -17.6,-48.22 5.08,-19.77 12.83,-39.81 23.07,-55.49 20.21,-30.89 52.14,-33.53 75.38,-6.45 6.77,7.9 9.85,24.37 10.44,37.3 0.49,9.35 -4.44,20.83 -9.4,28.75zm-104.29 -911.69c7.41,13.52 13.64,20.41 14.65,28.38 0.55,4.61 -7.26,11.06 -11.3,16.7 -4.09,-5.84 -10.39,-11.03 -11.55,-17.78 -1,-5.9 3.77,-13.56 8.2,-27.3zm15.17 487.09c-0.86,0.93 -1.68,1.84 -2.54,2.78 -0.67,-1.11 -1.92,-2.36 -1.85,-3.37 0.08,-1.04 1.51,-1.87 2.37,-2.79 0.69,1.11 1.35,2.24 2.02,3.38zm-441.35 -2795.92c-2.11,3.35 -4.23,6.77 -6.35,10.14 -0.86,-1.21 -1.75,-2.43 -2.61,-3.64 3.28,-2.53 6.55,-5.09 9.85,-7.63l1.55 0.94 -2.44 0.19zm-59.65 -191.82l-1.08 -3.64 2.39 0.12 -1.31 3.52zm-8.98 181.29c-1.94,0.64 -4.41,-1.63 -6.67,-2.64 1.4,-2.44 2.49,-6 4.33,-7.02 1.46,-0.76 3.86,1.58 5.91,2.61 -1.18,2.49 -2.05,6.53 -3.57,7.05zm-123.78 368.67c-0.83,-3.87 -1.7,-7.78 -2.51,-11.72 5.54,-2.51 11.1,-5 16.67,-7.51 0.86,4.21 2.83,11.89 2.36,12.19 -5.32,3 -10.96,4.9 -16.52,7.04zm-72.25 -334.29c16.55,-16.66 18.93,-55.93 48.25,-50.11 2.83,36.7 -14.38,56.88 -48.25,50.11zm-8.54 -241.39l-2.81 -2.69 3.5 -1.18 -0.69 3.87zm-108.42 521.54c-1.97,-3.27 -5.53,-6.62 -5.46,-9.8 0.09,-4.28 2.97,-8.49 6.39,-16.95 4.07,11.12 7,15.48 6.38,18.58 -0.71,3.35 -4.72,5.54 -7.31,8.17zm-89.16 53.13c-1.45,-2.26 -2.93,-4.53 -4.38,-6.77 3.02,-2.02 6.03,-4.04 9.08,-6.06 0.78,3.11 2.83,7.04 2.07,9.06 -0.92,2.19 -4.41,2.61 -6.77,3.77zm-242.31 -990.2c-0.82,-0.31 -1.8,-0.68 -3.01,-1.13 -1.92,-1.23 -3.81,-2.51 -3.89,-2.53 0.23,0.07 2.44,0.79 4.63,1.45 0.91,0.89 1.63,1.58 2.27,2.21 1.23,0.45 1.74,0.67 0.02,0 1.06,1.04 1.6,1.56 -0.02,0 0.05,0.03 0,0 0.02,0 0,0 0,0 -0.02,0zm-18.37 114.97c-2.24,-6.53 -4.48,-13.07 -6.77,-19.62 -0.24,-0.3 -0.47,-0.57 -0.71,-0.86l-2.44 0.59 1.9 -1.19 0.93 0.5c0.1,0.32 0.22,0.64 0.32,0.96 4.09,4.68 8.12,9.35 12.21,14.08 -1.8,1.87 -3.59,3.7 -5.44,5.54zm-72.89 -151.5c20.6,-9.38 40,-19.25 59.95,-27.05 26.09,-10.24 52.48,-19.21 78.99,-27.43 2.24,-0.69 6.23,8.72 11.23,16.03 -39.66,20.66 -76.32,39.74 -114.52,59.67 -10.05,-5.98 -24.18,-14.37 -35.65,-21.22zm25.77 91.11c-5.36,-1.97 -10.73,-3.94 -16.07,-5.88 0.98,-2.93 2.41,-8.4 2.95,-8.22 5.12,1.35 10.07,3.67 15.09,5.66 -0.69,2.81 -1.32,5.63 -1.97,8.44zm-5.76 71.74c-2.95,3.2 -7.09,4.48 -10.68,6.6 -1.09,-2.54 -2.14,-5.03 -3.2,-7.59 5.39,-5.43 10.81,-10.88 16.2,-16.32 1.48,1.58 2.93,3.06 4.41,4.58 -2.17,4.31 -3.82,9.53 -6.73,12.73zm-52.46 86.18c-24.2,-21.98 -31.93,-39.7 -23.18,-56.44 3.24,-6.18 10.85,-12.29 16.21,-11.92 13.65,0.81 27.13,5.32 41.59,8.55 0.76,42.46 -15.26,53.22 -34.62,59.81zm-34.31 101.87c-14.8,1.48 -32.92,-19.47 -33.86,-38.35 -0.83,-16.37 12.34,-34.52 25.36,-35.03 15.86,-0.62 27.8,17.53 29.1,41.85 1.13,20.92 -8.25,27.92 -20.6,31.53zm-25.58 -157.77c3.62,9.01 7.29,18.02 10.93,27.03 -3.6,3.15 -7.17,6.38 -10.73,9.55 -4.98,-7.95 -9.98,-15.93 -14.94,-23.86 4.89,-4.25 9.79,-8.49 14.74,-12.72zm-76.73 -115.53c12.87,-13.96 18.87,-20.48 26.04,-28.26 4.68,26.88 -8.74,21.39 -26.04,28.26zm-108.1 982.11c-0.57,-3.14 -2.02,-6.67 -1.36,-9.38 0.52,-2.09 3.63,-3.09 5.57,-4.57 0.57,3.07 2.14,6.57 1.46,8.98 -0.67,2.26 -3.68,3.42 -5.67,4.97zm-40.15 -689.21c-6.05,-16.4 -12.33,-25.26 -11.3,-32.23 3.12,-21.24 14.89,-31.23 38.5,-23.19 -7.85,16 -15.73,32.03 -27.2,55.42zm10.56 977.04c-13.24,-9.89 -18.09,-22.52 -13.71,-38.89 4.35,-16.4 13.29,-24.99 30.2,-17.51 -5.58,19.01 -10.54,36 -16.49,56.4zm-24.25 -267.14c3.08,-4.09 6.18,-11.53 9.19,-11.43 3.59,0.07 7.09,6.58 12.26,12.14 -5.17,5.04 -8.6,10.51 -10.39,9.75 -4.14,-1.85 -7.42,-6.77 -11.06,-10.46zm-12.01 -1966.51c-1.01,0.72 -7.14,-6.02 -6.94,-8.96 0.34,-5.78 3.49,-11.24 7.11,-21.61 5.12,8.98 10.51,14.43 9.97,18.39 -0.74,4.92 -6.03,9.4 -10.14,12.18zm-77.43 1053c-7.28,-3.65 -15.23,-7.54 -23.14,-11.45 -1.13,13.36 -2.26,26.93 -3.93,47.46 -11.15,-8.27 -19.87,-11.89 -25.43,-19.55 -8.23,-11.29 -13.99,-25.65 -21.22,-38.25 -13.13,-22.99 -7.83,-50.34 12.7,-57.61 10.14,-3.62 22.18,-5.65 31.73,-1.59 6.79,2.82 9.55,19.49 16.4,25.62 14.87,13.37 31.09,24.01 12.89,55.37zm-94.15 550.12c-6.53,-10.04 -14.09,-16.76 -13.57,-22.08 0.86,-8.74 6.89,-16.66 10.81,-24.94 5.34,5.89 14.62,11.33 15.04,17.71 0.49,7.82 -6.5,16.42 -12.28,29.31zm-4.48 -97.34c3.22,-2.55 10.75,4.17 16.37,6.65 -2.45,7.14 -3.8,19.16 -7.46,20.51 -8.33,3.1 -17.76,1.01 -29.81,1.01 8.24,-11.67 13.51,-22.16 20.9,-28.17zm-35.55 -565.78c-0.89,-0.99 -2.64,-2.36 -2.49,-3.02 0.59,-2.82 1.7,-5.4 2.68,-8.01 0.81,1.08 2.49,2.42 2.34,3.25 -0.49,2.71 -1.65,5.24 -2.53,7.78zm-4.93 883.6c-1.45,1.82 -4.21,1.82 -6.54,2.41 0.02,0.39 0.07,0.79 0.09,1.16 -0.56,0.07 -1.06,0.27 -1.62,0.32 -0.87,1.38 -1.7,2.76 -2.56,4.16 0.17,-1.25 -0.03,-3.25 0.51,-3.72 0.57,-0.42 1.34,-0.37 2.05,-0.44 0.29,-0.44 0.56,-0.89 0.84,-1.33 0.22,-0.08 0.46,-0.08 0.69,-0.15 -0.26,-3.15 -0.97,-6.6 -0.03,-8.91 1.58,-3.89 4.36,-7.29 7.23,-9.73 0.84,-0.71 3.68,2.66 5.62,4.19 -2.04,4.11 -3.65,8.79 -6.28,12.04zm-82.32 430.27c-0.49,-0.35 -0.47,-1.95 -0.69,-2.96 0.98,-0.42 1.97,-0.84 2.96,-1.28 0.24,1.7 0.53,3.35 0.76,5 -1.03,-0.22 -2.17,-0.15 -3.03,-0.76zm330.32 -1121.09c0.96,-2.31 0.69,-1.65 0,0 1,-1.13 1.45,-1.62 0,0.03 -0.45,1.03 -0.98,2.36 -1.63,3.83l-0.71 1.58 -0.2 -2.58c1.01,-1.14 1.85,-2.07 2.54,-2.86zm-409.32 -677.7c-3.44,-5.78 -8.71,-11.05 -9.69,-17.5 -0.65,-4.01 5.19,-9.77 8.14,-14.74 4.31,4.97 8.62,9.92 14.79,17.08 -6.03,6.92 -9.59,11.03 -13.24,15.16zm-11.35 1032.49c-17.28,-1.18 -31.34,-20.53 -28.36,-37.22 1.71,-9.41 10.17,-21.25 17.14,-23.51 10.29,-3.3 25.23,20.26 23.09,36.53 -1.33,9.8 -8.74,18.14 -11.87,24.2zm-25.38 -906.64l-0.29 3.72 -2.74 -2.24 3.03 -1.48zm-289.08 75.21c-2.83,-1.51 -5.1,-4.83 -7.58,-7.46 2.14,-3.03 4.26,-6.06 7.95,-11.3 2.19,6.18 4.16,9.75 4.43,13.49 0.14,1.7 -3.82,5.81 -4.8,5.27zm917.32 -689.86c0.79,0.02 1.53,2.04 2.32,3.15 -0.89,1.01 -1.77,2.83 -2.61,2.75 -0.84,-0.07 -1.58,-2.03 -2.36,-3.14 0.9,-0.99 1.79,-2.81 2.65,-2.76zm62.41 683.56c0.89,3.05 1.84,6.03 2.53,9.15 0.05,0.25 -1.89,1.18 -2.9,1.82 -1.53,-2.46 -3.06,-4.97 -4.58,-7.41 1.65,-1.18 3.3,-2.38 4.95,-3.56zm26.71 -27.8c-1.28,2.66 -2.63,5.34 -3.91,7.98l-0.92 -0.96c1.6,-2.34 3.21,-4.68 4.83,-7.02zm29.32 -373.77c4.26,-1.4 9.77,3.67 21.34,8.81 -16,11.77 -20.38,17.63 -24.05,16.97 -3.91,-0.76 -7.14,-7.76 -10.71,-11.99 4.43,-4.82 8.39,-12.09 13.42,-13.79zm551.83 -88.79c0.98,2.36 2.01,4.75 3,7.16 -0.96,0.96 -1.9,1.99 -2.88,3.01 -1.08,-2.55 -2.26,-5.05 -3.13,-7.71 -0.07,-0.25 1.95,-1.6 3.01,-2.46zm45.89 72.72c-10.17,26.76 -10.17,26.76 -41.86,23.85 17.29,-9.87 28.41,-16.18 41.86,-23.85zm-34.87 -484.3l0.52 2.95c17.03,9.7 34,19.43 52.14,29.74 -31.39,18.41 -45.47,9.62 -52.83,-30.87l0.17 -1.82zm56.75 103.22c-0.86,0.95 -1.77,2.8 -2.56,2.73 -0.82,-0.07 -1.53,-1.99 -2.32,-3.13 0.87,-1.03 1.73,-1.99 2.59,-2.95 0.79,1.11 1.5,2.22 2.29,3.35zm18.29 239.89c8.64,3.7 18.29,16.5 21,27.87 4.09,17.3 -13.25,36.96 -35.35,36.36 -4.36,-6.01 -15.86,-14.99 -18.71,-27.35 -3.77,-16.49 19.52,-42.66 33.06,-36.88zm-36.38 124.69c-4.19,-9.5 -8.35,-19.05 -12.51,-28.6 3,-1.82 5.98,-3.69 9.03,-5.52 3.48,9.7 6.99,19.36 10.44,29.03 -2.31,1.69 -4.65,3.4 -6.96,5.09zm71.29 76.44c12.77,1.85 25.45,3.72 39.14,5.71 0.62,-11.94 1.11,-20.18 1.72,-32.49 9.26,4.18 17.75,8 30.4,13.71 -4.99,16.79 -7.2,34.93 -14.82,47.36 -13.95,22.9 -27.79,23.66 -46.62,9.04 -13.12,-10.2 -21.91,-21.91 -9.82,-43.33zm74.05 -245.53c0.49,3.67 -2.69,8.24 -5.08,14.35 -3.71,-4.17 -8.12,-6.8 -8.29,-9.87 -0.2,-3.65 2.75,-9.9 5.27,-10.86 2.22,-0.84 7.7,3.47 8.1,6.38zm-2.27 -122.72c-1.52,13.63 -6.2,21.02 -17.45,17.03 -1.77,-0.64 -4.31,-5.27 -3.97,-7.24 2.89,-15.51 10.2,-17.57 21.42,-9.79zm48.03 96.42c0.55,-0.07 1.35,2.27 2.05,3.5 -2.05,1.01 -4.09,2.01 -6.14,3.01 -0.56,-1.34 -1.21,-2.66 -1.77,-3.97 1.95,-0.91 3.87,-2.12 5.86,-2.54zm48.2 -3.77c5.94,2.45 16.22,2.82 18.96,8.94 2.61,5.96 -0.52,20.36 -4.78,26.69 -6.89,10.26 -16.86,16.88 -24.96,24.57 8.64,15.34 12.97,23.11 19.27,34.34 -8.02,1.85 -15.21,6.05 -17.15,3.4 -5.79,-7.66 -14.53,-19.75 -13.05,-26.93 4.72,-23.32 13.44,-45.15 21.71,-71.01zm-1.35 267.87c-0.59,0.17 -1.63,-2.39 -2.46,-3.66 2.24,-1.16 4.4,-2.64 6.69,-3.24 0.59,-0.19 1.6,2.32 2.47,3.63 -2.25,1.2 -4.42,2.63 -6.7,3.27zm-17.88 -118.31c-0.73,-1.14 -1.45,-2.19 -2.19,-3.3 0.84,-0.96 1.71,-2.71 2.47,-2.63 0.79,0.07 1.48,1.97 2.19,3.02 -0.82,0.96 -1.65,1.9 -2.47,2.91zm117.87 72.11c10.67,12.15 11.82,31.04 -6.86,50.34 -9.16,-11.38 -17.39,-21.52 -27.38,-33.92 11.08,-17 20.9,-31.66 34.24,-16.42zm282.02 -131.22l1.87 1.65 -2.06 1.08 0.19 -2.73zm26.57 -170.94l-1.66 3.52 -1.22 -3.77 2.88 0.25zm48.08 83.89c2.55,-1.23 6.27,1.92 12.67,4.41 -5.9,6.28 -9.25,10.88 -13.34,13.46 -1.06,0.69 -4.41,-5.01 -6.74,-7.82 2.43,-3.52 4.43,-8.62 7.41,-10.05zm3.37 79.94c-1.73,-3.47 -3.4,-6.9 -5.12,-10.37 2.95,-2.36 5.93,-4.7 8.91,-7.04 1.01,2.76 2.01,5.5 3.64,9.95 -2.31,2.33 -4.9,4.87 -7.43,7.46zm134.56 -336.58c-1.53,2 -3.03,4.04 -4.53,6.09l-0.82 -1.21c1.78,-1.62 3.55,-3.25 5.35,-4.88zm24.25 288.87l1.08 3.4 -2.51 -0.2 1.43 -3.2zm19.79 -292.68c2.95,3.7 6.12,7.29 8.36,11.74 1.09,2.09 0.87,5.35 0.99,8.3 0.4,0.14 0.79,0.24 1.16,0.42 -0.17,0.39 -0.32,0.81 -0.47,1.2 13.79,2.91 27.67,5.89 46.01,9.72 -19.62,28.36 -35.03,21.4 -52.51,6.98 2.21,-5.67 4.34,-11.18 6.5,-16.7 -0.17,-0.04 -0.34,-0.07 -0.49,-0.12 -0.08,-0.49 -0.17,-0.96 -0.2,-1.5 -2.19,-0.79 -4.65,-1.28 -5.91,-3.18 -2.73,-4.16 -4.48,-9.5 -6.5,-14.45 -0.02,-0.1 2.79,-2.73 3.06,-2.41zm35.64 -22.31c3.42,-0.39 9.8,5.79 10.22,9.9 0.42,4.38 -4.63,9.7 -9.04,17.85 -4.82,-7.09 -10.31,-11.77 -9.99,-15.58 0.35,-4.71 5.44,-11.8 8.81,-12.17zm60.41 -1191.78c1.45,1.01 1.66,5.29 2.34,8.13 -1.52,1.77 -3.13,3.46 -4.68,5.27 -1.3,-3.65 -2.6,-7.27 -3.88,-10.91 2.11,-0.94 4.85,-3.43 6.22,-2.49zm-2.11 -64.45l2.16 1.92 -2.5 1.04 0.34 -2.96zm60.97 966.14c3.35,0.47 6.53,2.81 11.57,5.42 -3.46,5.02 -5.63,8.22 -7.8,11.44 -2.58,-3.29 -5.51,-6.27 -7.51,-10.14 -0.46,-0.83 2.59,-6.86 3.74,-6.72zm51.85 -205.85c35.57,24.79 39.02,47.02 13.78,71.56 -4.52,4.51 -13.61,6.87 -18.21,3.84 -4.8,-3.1 -10.15,-14.87 -9.16,-21.22 2.83,-18.26 8.71,-35.64 13.59,-54.18zm-4.16 -435.81l-1.38 2.91 -0.86 -3.25 2.24 0.34zm17.7 -399.66c0.64,0.54 0.64,2.24 0.89,3.45 -0.99,0.71 -1.97,1.4 -2.93,2.09 -0.42,-2.17 -0.86,-4.28 -1.28,-6.43 1.1,0.2 2.46,0.15 3.32,0.89zm8 787.96c-0.96,1.11 -1.94,2.24 -2.93,3.37 -0.88,-1.28 -1.75,-2.56 -2.63,-3.81 0.98,-1.11 1.99,-3.18 2.93,-3.11 0.91,0.08 1.77,2.24 2.63,3.55zm-4.36 -1111.43c2.05,0.83 4.11,1.62 6.16,2.43 -1.04,7.54 -1.95,15.16 -3.42,22.6 -0.08,0.39 -4.27,-0.56 -6.53,-0.86 1.28,-8.05 2.54,-16.12 3.79,-24.17zm36.48 117.77c9.7,7.97 14.02,20.85 0.67,37.04 -9.38,-6.89 -19.03,-13.98 -29.56,-21.78 6.52,-22.63 17.57,-24.59 28.89,-15.26zm-1.05 -274.2c2.19,1.24 4.38,2.49 6.57,3.82 -0.86,2.43 -1.5,6.6 -2.76,6.94 -1.99,0.55 -4.4,-1.37 -6.64,-2.24 0.93,-2.85 1.9,-5.69 2.83,-8.52zm5.37 -149.32c1.74,1.45 4.9,3.3 4.77,4.2 -0.47,2.74 -2.19,5.13 -3.4,7.66 -1.08,-0.96 -3.05,-2.02 -3.03,-2.9 0.13,-2.96 1.01,-5.79 1.66,-8.96zm21.02 1658.68c-4.18,4.6 -6.82,7.4 -9.43,10.24 -2.88,-4.87 -6.77,-9.23 -8.1,-14.75 -0.57,-2.38 4.21,-6.99 6.63,-10.58 3.22,4.48 6.51,8.98 10.9,15.09zm19.1 -102.56c-8.81,9.67 -14.89,16.37 -24.89,27.35 -1.55,-29.27 5.27,-34.84 24.89,-27.35zm-17.08 -1524.17c1.5,2.61 3.03,5.27 4.53,7.9 -1.53,2.36 -3.11,6.62 -4.58,6.55 -2.12,-0.08 -4.12,-3.3 -6.18,-5.2 2.09,-3.1 4.16,-6.17 6.23,-9.25zm107.06 311.31c5.14,13.86 6.84,36.98 4.14,64.72 -16.74,-8.74 -31.17,-5.34 -47.44,7.43 -13.08,10.22 -32.4,6.48 -47.47,8.69 -6.35,-21.41 -10.53,-36.21 -15.14,-50.81 -10.26,-32.59 -8.12,-42.73 13.57,-62.18 38.89,-34.78 71.81,-23.31 92.34,32.15zm-68.44 -252.74c2.02,-0.18 4.46,6.25 8.52,12.5 -6.18,3.45 -10.71,8.14 -14.45,7.26 -2.88,-0.62 -4.8,-8.4 -7.12,-13.04 4.34,-2.42 8.62,-6.24 13.05,-6.72zm30.51 52.33c1.1,0.54 2.19,1.08 3.19,1.6 0,1.26 0.37,3.1 -0.1,3.64 -0.83,0.94 -2.14,1.06 -3.25,1.5 0.06,-2.24 0.11,-4.5 0.16,-6.74zm30.34 -235.52c0.94,4.59 1.82,8.79 2.71,12.95 -2.26,0.37 -5.19,2.1 -6.62,0.81 -1.79,-1.62 -3.18,-5.66 -3.15,-8.64 0.02,-1.48 3.74,-2.85 7.06,-5.12zm-7.28 629.48c-3.05,-0.25 -5.98,-5.05 -8.91,-7.88 2.46,-2.81 4.85,-7.7 7.51,-8 3.05,-0.35 6.39,3.34 11.94,6.72 -4.78,4.45 -7.79,9.33 -10.54,9.16zm-11.01 492.35c-1,-3.01 -3.09,-6.33 -2.7,-8.94 0.34,-2.07 3.79,-3.28 5.83,-4.85 1.43,2.24 2.85,4.46 4.24,6.74 -2.47,2.37 -4.9,4.69 -7.37,7.05zm-11.62 -342.75c-2.58,-3.13 -5.24,-6.08 -7.48,-9.56 -0.17,-0.27 2.73,-4.03 5.42,-7.97 2.19,3.57 4.82,6.57 5.88,10.29 0.44,1.58 -2.41,4.72 -3.82,7.24zm-15.85 520.76c-5.34,-6.33 -10.7,-12.63 -16.07,-18.96 2.78,-3.84 5.53,-7.66 8.29,-11.47 4.65,7.46 9.28,14.92 13.91,22.4 -2.02,2.68 -4.06,5.39 -6.13,8.03zm1.75 -272.89c-1.8,5.86 -2.66,8.74 -3.49,11.6 -4.16,-3.18 -8.4,-6.23 -12.36,-9.78 -0.23,-0.17 2.04,-6.91 2.66,-6.77 4.4,1.08 8.66,3.13 13.19,4.95zm-38.67 -460.74c-2.24,-0.76 -4.36,-2.44 -6.53,-3.76 0.94,-1.16 2.15,-3.58 2.78,-3.33 2.29,0.81 4.41,2.51 6.6,3.86 -0.96,1.13 -2.14,3.48 -2.85,3.23zm2.68 393.32c14.87,-7.07 27.05,-10.96 31.34,10.9 1.01,5.15 -5.45,17.92 -9.41,18.68 -13.71,2.59 -23.66,-4.33 -21.93,-29.58zm-45.76 -179.25c-13.38,1.8 -17.23,-9.7 -18.25,-24.37 13.35,-12.46 20.95,-5.49 24.84,10.02 0.93,3.67 -3.92,13.98 -6.59,14.35zm-43.48 966.07c1.43,-1.99 4.19,-2.31 6.4,-3.35 0.54,2.54 2.12,6.38 1.4,7.31 -1.47,2.05 -4.18,2.59 -6.32,3.72 -0.59,-2.66 -2.22,-6.64 -1.48,-7.68zm17.4 134.7c-6.59,13.15 -19.17,22.7 -31.51,9.8 -11.27,-11.76 -11.46,-28.67 -1.97,-41.92 7.71,-10.76 6.35,-20.63 6.16,-33.33 -0.17,-9.65 6.79,-19.45 13.27,-36.06 9.55,24.36 19.08,40.41 21.88,58.31 2.1,13.39 -1.94,31.26 -7.83,43.2zm178.31 -1213.59l0.96 3.22 -2.39 -0.34 1.43 -2.88zm23.83 -202.77c1.01,-14.65 1.73,-27.45 3.23,-40.06 0.09,-0.64 9.72,-0.81 9.91,0.23 2.12,12.72 3.53,25.77 4.68,38.72 0.42,4.99 -0.25,10.17 -0.44,15.43 -11.62,2.89 -21.32,25.11 -37.74,1.73 8.49,-6.7 15.48,-12.19 20.36,-16.05zm-1745.07 2619.18c17.48,-24.47 24.25,-15.46 32.6,0l-32.6 0zm64.7 57.26l-1.43 2.74 -1.01 -3.79 2.44 1.05zm78.16 -66.42c0.25,0 0.37,2.84 0.59,4.31 -2.04,0.17 -4.01,0.57 -5.98,0.37 -0.27,0 -0.39,-2.78 -0.6,-4.28 1.95,-0.2 4.02,-0.57 5.99,-0.4zm-102.53 296.37c1.28,-0.16 2.63,-0.02 3.94,0.3 0.19,0.05 0.17,1.75 0.24,2.66 -2.61,-0.49 -5.17,-0.96 -7.72,-1.48 1.15,-0.46 2.31,-1.23 3.54,-1.48zm79.46 -2.01c1.33,2.56 3.74,5.19 3.57,7.65 -0.12,2.69 -2.58,5.14 -4.01,7.73 -1.25,-2.73 -3.49,-5.56 -3.49,-8.37 -0.03,-2.31 2.53,-4.65 3.93,-7.01zm102.9 -66.57c1.68,0.34 2.91,4.08 4.34,6.32 -1.9,1.93 -4.95,5.91 -5.39,5.45 -2.35,-2.42 -4.06,-5.96 -5.94,-9.14 2.34,-1 4.85,-3.17 6.99,-2.63zm81.42 -17.43l2.36 1.95 -2.68 1.08 0.32 -3.03zm469.4 337.09l-0.73 -2.78 2.01 0.39 -1.28 2.39zm848.47 3690.45c7.44,-0.69 14.62,0.83 21.74,3.12 19.92,-3.2 39.8,-6.25 59.6,-9.89 -17.72,-13.57 -36.83,-18.54 -57.63,-17.16 -6.48,0.42 -13.1,8.02 -19.13,7.04 -6.52,-1.11 -12.43,-8.44 -18.61,-13.03 5.02,-6.47 9.5,-14.1 15.29,-19 2.41,-2.07 7.19,0.61 11.1,1.55 0.1,-1.33 0.3,-2.71 -0.03,-3.84 -15.11,-57.38 -10.44,-93.13 52.88,-93.45 -12.13,-7.92 -22.33,-14.59 -32.44,-21.2 1.99,-16.02 3.69,-29.29 5.36,-42.56 -0.42,0.12 -0.53,0.22 -0.95,0.35 0.19,-0.4 0.39,-0.79 0.61,-1.21 -14.16,-2.19 -15.56,-15.34 -15.07,-30.18 -0.24,0.03 -0.49,0.03 -0.74,0.03 -3.41,-4.02 -6.84,-7.96 -10.29,-11.97 -0.02,-1.23 -0.05,-2.44 -0.07,-3.64 -1.38,-4.88 -2.78,-9.73 -4.16,-14.63 1.26,-0.29 2.54,-0.63 3.79,-0.96 0.13,5.17 0.25,10.37 0.37,15.59 0.27,0.96 0.57,1.94 0.84,2.93 3.42,3.93 6.85,7.9 10.26,11.81 -0.02,0.29 0.03,0.55 0,0.84 10.24,-0.37 20.44,-0.66 30.63,-0.99 0.2,-0.39 0.39,-0.78 0.59,-1.2l1.03 1.16c0.67,-8.92 1.33,-17.78 2.19,-28.81 -8.83,-2.41 -17.65,-4.87 -28.85,-7.95 4.09,-8.49 5.49,-15.26 8.35,-16.59 32.64,-15.46 42.51,-47.76 36.9,-89.29 -1.99,-14.47 1.79,-21.12 7.58,-32.2 22.65,-43.37 17.01,-71.29 -16.99,-107.33 -6.67,-7.09 -9.79,-19.75 -16.09,-27.79 -5.59,-7.2 -13.3,-11.57 -19.89,-17.01 -21.75,20.09 -0.55,34.14 3.44,53.66 -6.05,10.9 -13.09,23.41 -21.79,38.94 18.56,48.38 17.16,104.48 19.9,164.13 -30.92,-7.01 -58.59,29.12 -88.65,5.44 1.11,-29.86 21.22,-20.95 31.61,-34.44 0,-38.28 -24.59,-54.06 -46.9,-86.87 0.99,20.6 0,30.3 2.04,38.75 9.01,37.58 3.27,47.58 -31.23,47.8 -4.36,-33.48 -15.47,-66.3 -7.81,-102.51 -31.07,-48.3 -45.44,-102.36 -28.24,-166.51 2.02,-7.58 1.13,-16.69 1.18,-25.13 0.15,-25.83 0.05,-51.63 0.05,-86.68 -2.98,-3.3 -11.32,-12.39 -19.84,-21.72 0,-5.29 -0.39,-10.46 0.1,-15.45 0.98,-10 4.14,-20.09 3.42,-29.77 -2.09,-27.5 -8.19,-54.75 -8.17,-82.09 0.08,-75.33 -8.05,-151.08 4.75,-226.17 1.9,-11.13 -1.85,-23.98 -2.76,-36.04 -1.03,-14.01 -3.67,-28.41 -2.21,-42.02 1.89,-17.75 0.59,-33.04 -2.36,-51.04 -4.98,-30.25 -2.03,-63.24 -0.1,-94.82 1.23,-20.73 5.27,-41.63 10.24,-61.54 5.44,-21.89 6.08,-39.93 -6.5,-59.18 -5.12,-7.83 -3.77,-24.11 -3.59,-36.47 0.88,-61.98 6.17,-124.36 2.51,-185.76 -3.21,-53.05 2.53,-104.7 3.34,-157.03 0.87,-58.64 6.8,-117.18 7.49,-175.82 0.47,-38.83 -5.22,-77.72 -6.62,-116.69 -0.7,-19.25 2.06,-38.72 3.3,-58.04 0.93,-15.44 1.59,-30.92 3.02,-46.29 1.23,-13.39 3.25,-26.66 5.12,-39.95 1.95,-13.81 6.97,-28.07 5.67,-41.28 -3.26,-33.09 1.62,-64.06 7.28,-95.77 2.56,-14.5 -0.19,-30.8 -1.38,-46.16 -0.76,-10.34 -6.59,-22.86 -3.84,-30.32 17.04,-45.77 4.73,-95.38 12.44,-142.02 0.86,-5.2 1.62,-11.25 0.36,-16.01 -15.73,-60.01 -1.65,-119.64 1.43,-179.31 0.84,-16.03 3.45,-32.15 2.58,-47.95 -4.23,-78.39 1.85,-156.25 4.78,-234.39 4.68,-125.32 4.87,-250.95 8.49,-376.33 2.89,-100.21 8.06,-200.36 12.12,-300.48 0.26,-6.82 0.05,-13.71 0.05,-27.01 -29.97,7.34 -57.76,12.29 -84.82,21.08 -79.97,25.89 -159.71,52.95 -239.4,80.42 -14.92,5.2 -26.61,4.98 -33.53,-15.8 -10.68,10.09 -20.43,21.05 -31.31,29.32 -15.48,11.74 -24.49,0.71 -30.01,-24.94 -7.98,44.14 -27.67,52.31 -54.92,50 -15.16,-1.28 -30.79,7.34 -46.65,11.57 -1.82,-13.42 -2.91,-21.62 -3.77,-27.74 -23.36,7.77 -45.74,15.23 -69.07,23.04 2.06,9.23 3.88,17.37 7.45,33.26 -16.04,-8.59 -26.71,-14.26 -39.88,-21.25 -11.66,9.36 -24.34,34.76 -42.51,8.52 -1.46,-2.07 -5.34,-2.51 -7.78,-1.87 -23.86,6.17 -47.59,12.78 -71.98,19.35 -7.34,-7.44 -15.36,-15.51 -23.36,-23.59 -0.25,0 -0.5,0.03 -0.72,0.03 1.63,9.28 6.35,22.45 3.59,26.22 -11.76,16.15 -23.3,4.3 -35.88,-6.62 2.83,-6.7 5.54,-13.13 8.19,-19.55 -0.27,0 -0.54,0 -0.81,0 0.29,-0.57 0.59,-0.64 0.91,-1.14 -6.45,-1.32 -12.87,-2.66 -20.09,-4.16 -1.6,-20.4 -3.84,-39.19 -4.04,-57.97 -0.07,-5.07 6.01,-10.22 9.28,-15.39l-0.26 0.72c21.43,-18.54 58.29,-27.99 83.52,-17.72 -20.75,10.36 -37.24,18.61 -55.66,27.78 4.04,20.93 19.58,21.52 28.78,33.37 15.93,-19.85 30.45,-37.94 45.12,-56.16 -1.92,-8.62 -3.64,-16.45 -6.22,-28.31 14.82,4.58 27.55,8.49 40.15,12.33 7.83,-9.23 5.8,-33.87 24.72,-24.49 3.93,1.95 10.75,-6.55 16.32,-9.8 5.53,-3.15 12.5,-10.07 16.58,-7.9 18.15,9.4 33.68,2.34 51.16,-4.56 16.13,-6.35 34.49,-2.7 51.84,-3.41 0,0.19 0,0.37 0,0.53 3.4,-7.25 6.28,-19.77 10.32,-20.48 28.29,-4.9 55.42,-25.13 85.23,-12.78 4.92,2.02 12.99,5.45 15.11,2.54 23.29,-32 56.74,-10.19 82.1,-28.14 5.4,-3.81 8.45,-13.49 13.17,-21.46 43.21,7.04 82.67,-0.37 110.31,-56.08 -28.75,-21.72 -53.96,-3.01 -74.09,11.54 -40.6,29.42 -86.09,22.48 -127.84,40.08 -4.9,2.07 -10.74,-0.2 -15.88,1.18 -73.91,20.09 -147.69,40.77 -221.66,60.59 -19,5.06 -38.42,7.51 -65.12,12.6 -13.78,24.64 -43.34,27.35 -71.24,32.2 -27.79,4.8 -56.1,4.06 -84.11,6.84 -6.48,0.65 -12.66,5.69 -18.96,8.67l0.19 0.57c-3.17,-0.03 -6.37,-0.05 -9.49,-0.08l0.19 -0.76c-6.75,5.02 -13.58,9.89 -20.21,15.16 -6.67,5.25 -13.29,15.89 -19.67,15.56 -47.98,-2.44 -94.11,21.15 -141.6,17.8 -25.62,-1.77 -40.35,8.84 -46.89,44.16 -14.8,-9.42 -26.37,-16.81 -39.14,-24.96 -21.3,14.41 -35.85,50.02 -65.66,41.43l0.81 1.06c-1.13,0.1 -1.97,0.2 -2.76,0.25 -0.02,0.03 -0.02,0.03 -0.02,0.03 0.07,0 -0.03,0 0.05,0 -2.09,1.37 -1.36,0.88 -0.05,0 -1.8,0.14 -1.28,0.09 0.02,-0.03 0.55,-0.37 1.06,-0.71 1.72,-1.16 -14.69,-18.05 -31.68,-12.53 -48.59,-7.34 -42.22,13.01 -84.26,27.06 -126.68,38.48 -14.03,3.79 -29.52,3.82 -43.6,0.34 -27.62,-6.83 -54.46,-19 -82.12,-25.6 -15.44,-3.69 -31.83,-0.68 -49.04,-0.68 -2.74,-7.71 -4.33,-14.36 -7.24,-19.92 -36.41,-70.36 -3,-119.81 44.34,-150.85 27.4,-17.98 57.33,-29.08 88.82,-44.61 -1.38,-9.24 -4.07,-18.89 -4.02,-28.56 0.08,-16.71 7.22,-28.73 20.29,-25.7 13.12,3.08 17.53,15.34 10.17,32.2 -1.28,2.88 -1.16,6.81 -2.64,16.51 56.74,-26.9 111.25,-52.4 165.48,-78.89 5.74,-2.86 9.95,-11.2 14.7,-17.24 7.71,-9.82 14.75,-20.65 23.04,-29.46 14.33,-15.34 31.69,-26.81 43.53,-44.81 10.85,-16.59 16.1,-39.6 26.04,-65.55 8.69,13.86 14.89,23.66 22.45,35.65 8.64,-5.89 17.95,-12.29 30.77,-21.08 -8.81,-8.07 -14.94,-13.68 -21.09,-19.3l-0.27 3.2 0.12 -1.97c-2.29,-5.91 -4.6,-11.79 -6.92,-17.75 -10.98,-4.82 -21.86,-9.97 -32.99,-14.2 -8.32,-3.2 -16.93,-5.1 -32.98,-9.82 10.16,21.09 16.07,33.35 22.3,46.16 -24.94,11.91 -33.11,8.68 -75.01,-30.39 0.91,19.7 1.58,34.45 2.26,49.14 0.27,-0.22 0.62,-0.39 0.89,-0.61 0.62,0.98 1.2,1.97 1.8,2.98 4.06,2.87 8.15,5.78 12.23,8.64 -1.21,1.94 -2.39,3.89 -3.59,5.83 -2.86,-4.8 -5.76,-9.65 -8.64,-14.47 -0.89,-0.64 -1.77,-1.26 -2.69,-1.9 0,-0.14 0,-0.32 0,-0.47 -4.97,3.77 -11,6.43 -14.05,11.96 -19.6,35.53 -25.58,38.14 -54.9,20.14 -16.47,56.82 -57.46,64.28 -94.16,79.76 -5.74,2.37 -13.84,-0.48 -19.7,-4.03 -24.25,-14.72 -46.82,-5.12 -70.82,2.66 -21.62,7.03 -45.84,11.91 -67.06,6.08 -26.54,-7.34 -33.31,-17.68 -23.11,-53.84 36.73,-19.33 71.43,-37.67 108.22,-57.07 -17.76,-18.9 -32.55,-34.66 -49.24,-52.45 9.57,-10.96 16.29,-18.59 22.92,-26.12 0,0 0,0 0,0 -0.2,-1.19 -0.4,-2.35 -0.59,-3.5 -0.98,-1.43 -2.02,-2.83 -2.83,-4.38 -0.2,-0.32 1.01,-1.97 1.57,-3.03 0.42,2.47 0.84,4.95 1.26,7.41 0.54,0.79 1,1.62 1.55,2.41 -0.32,0.35 -0.64,0.74 -0.96,1.09 4.45,11.83 8.93,23.65 14.75,39.16 12.01,-14 21.61,-25.28 31.18,-36.53 12.54,-14.62 19.3,-38.67 40.9,-38.99 4.3,-0.1 8.49,-15.91 14.61,-28.27 16.23,20.21 32.55,15.24 50.92,6.19 24.62,-12.15 50.76,-18.96 76.23,-28.05 23.35,-8.32 26.49,-13.61 25.78,-43.94 -32.13,15.76 -64.23,31.56 -98.24,48.3 -20.56,-7.43 -7.59,-35.47 -14.6,-55.29 -27.65,-7.06 -53.94,-2.93 -85.3,18.22 15.16,14.37 26.09,24.71 37.07,35.08 -18.91,22.6 -38.6,14.55 -61.5,1.45 3.82,-11.86 7.66,-23.71 11.45,-35.55 -37.15,-7.09 -71.51,0.64 -102.78,39.56 -7.09,-19.55 -14.45,-42.73 -31.55,-28.43 -20.93,17.5 -2.2,36.71 1.3,58.51l39.09 0c0.42,-0.39 0.86,-0.69 1.28,-1.08 0.32,0.32 0.64,0.5 0.93,0.81 11.16,-8.37 22.33,-24.29 36.74,0.62 -14.9,15.17 -25.98,10.12 -36.74,-0.62 -0.09,0.08 -0.21,0.2 -0.34,0.27l-1.87 0c-21.66,19.87 -43.97,34.55 -71.91,36.83 -25.25,2.07 -50.32,12.64 -74.96,21.86 -7.83,2.96 -14.2,12.68 -21.12,19.8 0.24,0.53 0.49,1.08 0.74,1.62 2.66,0.94 5.32,1.89 7.97,2.81 -1.22,2.16 -2.48,4.33 -3.69,6.52 -1.43,-3.12 -2.85,-6.23 -4.28,-9.33 -0.55,-0.2 -1.13,-0.39 -1.68,-0.59l0.87 -1.21c-16.47,-0.86 -34.32,-13.81 -48.08,8.87 0.05,-0.03 0.1,-0.05 0.15,-0.07 -0.02,0.63 -0.05,1.27 -0.05,1.91 6.89,7.44 9.38,14.6 -0.55,21 -0.02,0.66 -0.02,1.33 -0.05,2 -1.22,0.47 -2.45,0.95 -3.69,1.42 -5.75,5.4 -11.52,10.78 -17.23,16.2 -0.98,-2.78 -1.89,-5.56 -2.88,-8.37 6.72,-2.61 13.42,-5.22 20.11,-7.83 0.92,-0.86 1.82,-1.69 2.74,-2.56 0.47,-0.26 0.56,-0.56 1,-0.86 0.18,-6.99 0.37,-14 0.55,-21 -0.3,-0.32 -0.45,-0.61 -0.76,-0.93 0.21,-0.37 0.46,-0.57 0.66,-0.91 -30.65,16.22 -61.3,32.42 -92.88,49.14 -10.15,-14.83 -27.52,-20.46 -22.11,-46.46l-0.69 0.32c0.02,-4.21 0.05,-8.47 0.05,-12.73l0.69 0.35c-13.81,-30.43 5.84,-52.19 17.82,-62.8 38.8,-34.37 77.35,-71.72 127.17,-77.23 26.96,-3.03 51.68,-16.93 76.37,-33.48 20.14,-13.57 45.61,-13.46 72.6,-20.4 -0.94,16.61 -1.63,28.84 -2.59,45.95 24.2,-13.85 45.77,-26.21 68.88,-39.43 -2.93,-12.66 -7.16,-26.42 -20.56,-17.8 -11.64,7.48 -17.5,3.57 -23.55,-12.95 7.43,-5 14.75,-9.9 21.91,-14.67 0.61,-21.35 -10.91,-28.78 -20.19,-38.4l-0.29 3.24 0.17 -2.01c-1.19,-18.64 7.36,-29.12 19.37,-26.03 31.81,8.25 54.65,-10.02 71.74,-38.6 28.36,5.3 15.51,29.99 17.25,50.69 10.56,3.59 21.47,7.31 30.97,10.57 14.04,-25.7 -6.65,-34.3 -9.2,-54.14 10.68,-16.23 22.23,-30.28 42.83,-27.2 8.62,1.28 18.02,-5.96 26.96,-9.6 5.04,-2.07 11.91,-8.79 14.62,-6.53 27.13,22.58 45.18,-3.77 66.19,-18.29 18.5,-12.75 35.8,-30.35 60.32,-23.28 8.91,2.61 20.58,-11.06 35.89,-20.24 18.07,5.76 44.63,34.12 59.99,-19.9 26.1,27.26 46.97,3.23 66.82,-6.05 19.08,-8.94 34.61,-31.24 55.58,-51.45 7.49,4.55 13.15,27.62 34.12,23.58 14.88,-2.88 26,-7.95 39.52,-15.85 26.39,-15.31 56.15,-20.53 84.46,-30.13 19.25,-6.55 40.96,-0.76 57.24,-22.6 3.78,-5.04 12.89,-5.81 19.09,-4.58 20.07,4.13 40.67,14.18 53.18,-18.78 0.88,-2.24 4.83,-3.06 7.46,-3.45 49.29,-7.95 98.5,-19.57 147.98,-22.23 34.37,-1.87 66.88,-11 99.87,-20.48 19.67,-5.66 39.73,-9.43 59.8,-11.79 5.14,-0.57 10.9,7.4 16.61,11.67 -4.67,9.08 -7.97,15.55 -17.16,33.5 22.26,-12.78 35.75,-20.51 49.24,-28.28 -6.25,-19.06 -11.05,-33.71 -15.9,-48.35 28.13,18.8 51.96,6.15 78.06,-0.1 65.38,-15.73 131.7,-24.89 197.83,-34.81 18.9,-2.86 38.3,0.64 63.09,1.4 23.86,-12.61 53.81,-28.4 87.49,-46.23 3.22,-33.7 6.92,-70.53 10.2,-107.43 11.94,-133.43 24.19,-266.78 35.22,-400.26 2.09,-25.43 -0.82,-51.55 -1.7,-88.69 20.65,-28.39 22.01,-76.69 23.56,-124.81 0.72,-21.25 -1.01,-42.43 13.44,-59.19 4.26,-4.99 3.77,-18.36 3.94,-27.92 1.13,-64.07 17.19,-121.77 42.47,-175.64l-0.82 1.13 0 -4.28c-2.06,-7.95 -4.11,-15.91 -6.2,-23.85 2.07,-0.45 4.14,-0.89 6.2,-1.31l0 25.16c0.2,0.81 0.42,1.6 0.62,2.41 15.38,-45.47 15.75,-49.9 8.57,-90.89 -20.66,25.63 -40.16,7.44 -61.17,-6.35 14.94,-4.87 29.85,-9.8 47.97,-15.76 0,-11.1 3.2,-26.43 -0.61,-30.64 -12.54,-13.69 -5.94,-28.71 -5.35,-43.48 0.79,-19.54 3.23,-39.26 1.85,-58.54 -0.74,-9.94 -8.22,-19.03 -13.54,-30.38 14.85,-34.66 31.41,-75 32.2,-121.63 0.71,-44.04 -0.89,-86.95 8.94,-131.04 8.98,-40.35 6.84,-84.88 10.41,-127.44 1.74,-20.83 0.81,-43.38 17.65,-57.17 2.66,-2.19 1.06,-13.61 1.14,-20.77 0.09,-4.71 -1.66,-10.37 -0.21,-13.97 14.58,-36.23 13.55,-46.34 8.91,-81.82 -3.27,-25.67 -2.24,-53.67 1.66,-79.39 7.63,-50.74 10.54,-101.01 8.34,-152.73 -1.11,-25.97 5.89,-52.63 9.85,-78.77 2.76,-18.45 -3.08,-29.52 -19.11,-37.62 16.45,-9.21 25.85,-18.81 22.61,-44.11 -2.69,-20.96 2.93,-44.1 6.17,-65.91 5.47,-36.53 11.94,-72.76 18.15,-109.03 1.48,-8.72 6.57,-18.61 4.75,-25.6 -10.86,-42.1 6.65,-77.01 14.42,-114.55 3.99,-19.13 4.68,-37.34 17.01,-54.4 3.58,-4.95 6.19,-10.71 7.56,-16.65 -1194.66,907.07 -1804.39,2121.18 -2053.55,2735.12 -26.41,65.09 -124.44,40.66 -116.61,-29.13 214.27,-1908.5 1820.76,-3573.38 2573.72,-4258.04 53.22,-48.4 -7.68,-132.42 -70.68,-97.69 -4194.63,2312.5 -5352.58,7621.21 -1992.47,8953.28 468.91,185.92 959.1,232.94 1424.1,161.99 0.42,-2.19 0.84,-4.19 1.23,-6.64z"/>
   <path class="fil0" d="M1941.93 5053.03c6.17,-1.74 12.23,-4.31 18.34,-6.67 -1.36,-4.26 -2.79,-8.49 -4.19,-12.8 -5.71,3.57 -11.45,7.09 -16.96,11.15 -0.17,0.18 2.31,8.45 2.81,8.32z"/>
   <path class="fil0" d="M1730.21 5430.86c0.47,-0.51 0.19,-2.17 0.22,-3.34 -0.94,-0.42 -1.9,-0.86 -2.88,-1.33 -0.05,1.92 -0.15,3.86 -0.25,5.78 0.99,-0.32 2.22,-0.32 2.91,-1.11z"/>
   <path class="fil0" d="M2023.75 5039.78c-1.13,-2.88 -1.96,-5.05 -2.82,-7.19 -0.42,1.53 -1.41,3.4 -1.04,4.51 0.39,1.1 2.04,1.47 3.86,2.68z"/>
   <path class="fil0" d="M2002.32 5044.11c0.86,-0.74 1.72,-1.45 2.56,-2.16 -0.44,-1.21 -0.69,-2.98 -1.38,-3.4 -0.86,-0.47 -2.09,0.27 -3.15,0.54 0.66,1.62 1.3,3.35 1.97,5.02z"/>
   <path class="fil0" d="M2085.45 4895.41c25.51,17.13 25.51,17.13 46.73,-7.66 -15.88,2.59 -29.86,4.85 -46.73,7.66z"/>
   <polygon class="fil0" points="3385.16,4254.74 3382.06,4254.74 3382.06,4281.42 3385.16,4281.42 "/>
   <path class="fil0" d="M2315.07 4903.04c1.84,-1.01 3.49,-2.71 5.19,-4.14 -0.78,-1.2 -1.6,-2.41 -2.44,-3.69 -1.69,1.55 -3.47,3.18 -5.17,4.73 0.84,1.08 2,3.34 2.42,3.1z"/>
   <path class="fil0" d="M2129.08 4961.22l2.56 1.14 -1.74 -2.36c-1.24,-0.35 -2.49,-0.65 -3.74,-0.99 0.95,0.74 1.94,1.47 2.92,2.21z"/>
   <path class="fil0" d="M3443.74 9114.36c0.99,0.08 2,-1.35 2.98,-2.16 -0.93,-0.89 -1.84,-2.42 -2.82,-2.51 -0.95,-0.08 -1.98,1.35 -2.96,2.14 0.93,0.88 1.82,2.43 2.8,2.53z"/>
   <path class="fil0" d="M1892.64 4776.6c2.93,4.21 5.83,8.35 8.74,12.53 0.86,0.35 1.7,0.67 2.54,1.01 -0.65,-0.64 -1.24,-1.31 -1.8,-1.95 -2.93,-4.21 -5.84,-8.39 -8.72,-12.62l-0.76 1.03z"/>
   <path class="fil0" d="M2723.35 5421.23c0.55,0.69 4.14,-2.66 7.32,-4.8 -2.54,-3.99 -4.51,-8.27 -7.39,-10.93 -0.91,-0.87 -4.09,2.51 -6.18,3.89 2,4.06 3.69,8.52 6.25,11.84z"/>
   <path class="fil0" d="M4229.83 3236.41c0,-0.05 0.03,-0.07 0.03,-0.12 -0.3,-0.25 -0.64,-0.46 -0.94,-0.71l0.91 0.83z"/>
   <path class="fil0" d="M4910.92 4563.44c0.84,-0.81 1.73,-1.6 2.61,-2.44 -1.22,-1.82 -2.28,-3.86 -3.66,-5.34 -0.32,-0.36 -1.82,1.28 -2.78,1.97 1.22,1.95 2.53,3.87 3.83,5.81z"/>
   <path class="fil0" d="M4843.49 4559.07c-6.75,-2.24 -10.37,-4.46 -10.98,-3.47 -2.41,4.01 -3.89,8.98 -5.69,13.59 4.48,-2.66 8.96,-5.42 16.67,-10.12z"/>
   <path class="fil0" d="M4530.6 3520.41c-0.97,0.32 -2.56,1.33 -2.76,0.93 -0.69,-1.26 -0.96,-3.03 -1.41,-4.58 1.61,-0.46 3.23,-0.93 4.8,-1.4 -0.19,1.68 -0.44,3.37 -0.63,5.05zm-111.7 178.97c-2.26,-0.49 -4.23,-2.84 -6.32,-4.44 0.91,-1.22 1.89,-3.49 2.81,-3.41 2.29,0.07 4.53,1.2 7.14,2.09 -1.31,2.16 -2.69,5.93 -3.63,5.76zm-14.35 -394.6c-0.89,-2.86 -1.94,-5.61 -2.46,-8.56 -0.12,-0.57 2.56,-2.84 2.83,-2.52 1.53,1.68 2.71,3.92 4.01,5.96 -1.45,1.67 -2.92,3.42 -4.38,5.12zm-23.9 -57.43c1.13,-2.86 2.29,-5.69 3.42,-8.52 2.07,1.65 4.11,3.25 7.7,6.13 -4.6,0.96 -7.87,1.65 -11.12,2.39zm-8.99 203.39c-5.51,-1.28 -11,-2.56 -16.49,-3.84 0.76,-3.28 1.84,-9.33 2.26,-9.26 5.4,1.06 10.71,2.96 16.03,4.68 -0.56,2.83 -1.18,5.64 -1.8,8.42zm-24.07 -53.74c-0.3,-1.11 3.54,-6.03 5.12,-5.71 2.9,0.51 5.54,3.62 10.63,7.33 -5.07,4.43 -8.15,9.14 -10.36,8.52 -2.36,-0.61 -4.38,-6.18 -5.39,-10.14zm-0.44 -123.06c2.11,0.07 4.21,0.61 6.32,0.98 -0.44,1.5 -0.84,3.06 -1.31,4.56 -1.87,-0.37 -3.71,-0.74 -5.61,-1.13 0.23,-1.53 0.42,-4.41 0.6,-4.41zm-13.84 -62.59c2.95,-17 2.66,-24.46 5.35,-28.84 3.71,-6.06 9.59,-9.85 17.55,-17.48 4.85,24.49 -4.56,31.9 -22.9,46.32zm-27.1 -77.68c-1.11,-3.11 -3.77,-7.93 -3.13,-8.96 2.32,-3.48 5.79,-5.72 8.79,-8.38 1.15,2.88 2.31,5.79 4.04,10.05 -3.23,2.39 -6.45,4.82 -9.7,7.29zm-20.14 252.03c-0.32,0.4 -0.64,0.77 -0.96,1.16l0.81 -1.16c0.05,0 0.1,0 0.15,0 0.64,-0.76 1.3,-1.5 1.92,-2.29 4.94,-6.03 6.67,-21.88 17.18,-10.73 2.02,2.19 1.26,8.94 1.75,13.61 -6.95,-0.19 -13.88,-0.37 -20.85,-0.59zm8.25 708.94c-2.52,-1.7 -3.42,-7.49 -5,-11.53 2.16,-1.5 4.63,-4.72 6.45,-4.08 2.78,0.81 5.07,4.28 9.7,8.61 -5.52,3.67 -9.41,8.13 -11.15,7zm-3.45 -927.18c1.5,-1.5 5.71,-1.15 7.14,0.57 11.32,13.56 2.29,23.46 -4.06,39.95 -10.83,-18.04 -14.14,-29.66 -3.08,-40.52zm-17.5 -108.43c-1.13,-2.91 4.97,-10.76 9.38,-19.43 5.33,6.43 11.96,11.03 11.74,14.87 -0.42,7.04 -4.9,13.68 -7.63,20.48 -4.71,-5.17 -10.88,-9.3 -13.49,-15.92zm-5.25 54.42c-2.48,0.42 -5.51,-5.19 -9.64,-9.59 4.3,-3.95 7.25,-8.72 10.04,-8.52 2.63,0.17 5.04,5.56 7.58,8.63 -2.64,3.43 -5.07,9.04 -7.98,9.48zm-24.79 -123.82c-1.97,-5.59 -5.39,-11.13 -5.49,-16.79 -0.1,-6.77 2.69,-13.69 4.19,-20.51 3.12,2.69 6.23,5.39 9.33,8.05 2.14,5.57 7.12,13.74 5.86,16.2 -3.08,5.78 -9.11,8.84 -13.89,13.05zm-1.23 46.43c-1.84,-0.49 -3.71,-1.01 -5.58,-1.53 1.3,-8.82 2.63,-17.62 3.93,-26.42 2.02,0.52 3.94,1.04 5.93,1.58 -1.45,8.82 -2.85,17.58 -4.28,26.37zm-29.61 -8.64c-1.14,-2.49 -1.9,-5.27 -2.79,-7.93 1.11,-0.5 2.2,-0.98 3.33,-1.5 0.91,2.71 1.85,5.36 2.78,8.07 -1.16,0.49 -3.22,1.7 -3.32,1.36zm40.22 -156.64l2 -0.1 -1.06 0.34c-0.05,0.71 -0.07,1.45 -0.13,2.19 2.17,6.33 4.31,12.73 6.46,19.05 -2.47,0.6 -4.95,1.19 -7.46,1.8 0.34,-6.99 0.69,-13.93 1,-20.85 -0.26,-0.81 -0.54,-1.65 -0.81,-2.43zm-74.12 -69.6l-0.15 -0.69c0.1,-1.06 0.23,-2.09 0.34,-3.15 0.18,-4.04 0.35,-8.08 0.57,-12.11l2.12 -1.14 -1.33 0.74c-0.47,4.16 -0.91,8.35 -1.36,12.51 -0.04,1.09 -0.09,2.14 -0.17,3.2 0.96,0.29 1.93,0.61 2.91,0.89 -0.98,-0.08 -1.97,-0.18 -2.93,-0.25zm-35.99 268.43c-1.36,-3.35 -0.25,-11.92 1.89,-13.74 17.11,-14.55 24.03,10.25 36.02,17.97 -13.86,6.33 -28.43,18.86 -37.91,-4.23zm-9.7 -73.39c-5.54,-0.64 -13.32,-10.95 -14.48,-18.58 -0.81,-5.44 7.61,-18.61 12.09,-18.78 5.71,-0.23 11.62,9.28 20.51,17.35 -7.8,9.18 -13.39,20.63 -18.12,20.01zm-32.35 -149.3c-3.4,-10.59 8.03,-25.51 17.04,-22.26 5.36,2 9.57,9.56 17.35,17.88 -8.56,8.27 -13.96,17.04 -20.16,18.24 -4.31,0.83 -12.16,-7.39 -14.23,-13.86zm74.1 -0.94c0.83,-0.34 4.48,4.58 4.23,6.35 -0.69,3.75 -3.03,7.09 -5.98,13.32 -3.08,-6.07 -4.82,-9.5 -6.52,-12.87 2.73,-2.41 5.29,-5.46 8.27,-6.8zm-76.51 337.36c-0.86,0.25 -4.16,-5.36 -3.69,-6.62 1.48,-3.99 4.18,-7.26 7.87,-13.1 2.22,6.33 5.42,11.46 4.51,13.79 -1.23,3.2 -5.49,4.95 -8.69,5.93zm458.42 301.92c-9.67,-8.45 -17.27,-22.65 -19.64,-38.41 -73.75,-144.33 -144.2,-290.02 -208.93,-437.77 -2.41,3.88 -5.71,7.23 -10.63,9.52 -2.63,1.28 -10.41,-5.96 -11.3,-10.73 -2.59,-13.52 1.87,-20.75 10.29,-25.26 -52.24,-120.79 -100.59,-242.98 -143.55,-367.05 -1.99,27.82 -3.96,55.61 -6,83.82 1.94,3.01 3.94,7.98 7.06,10.54 10.81,8.89 23.49,18.24 11.18,36.11 -2.81,4.14 -17.31,-5.7 -29.96,-10.43 -4.88,9.87 -12.02,24.45 -19.18,39.11 -38.45,4.04 -38.45,4.04 -36.97,-67.69 -23.51,19.62 -23.49,31.51 0.76,93.4 -13.35,12.5 -26.86,25.13 -40.32,37.81 0.98,2.88 1.89,5.76 2.85,8.69 7.85,-0.89 15.73,-1.73 26.2,-2.83 6.4,43.48 1.96,85.74 0.44,128.23 -1.46,40.13 -12.7,81.41 4.67,120.5 9.6,-3.05 19.25,-6.05 29.32,-9.2 0.47,6.5 1.8,10.46 0.79,12.5 -6.45,12.98 -11.47,29.4 -20.6,37.32 -14.48,12.58 -17.73,29.59 -19.72,49.14 -3.67,36.46 -7.39,72.89 -10.64,104.97 9.11,17.9 17.21,33.8 27.33,53.66 16.14,-34.26 39.41,-24.29 67.72,-11.49 -3.57,-35.48 -6.15,-64.42 -9.4,-93.23 -3.03,-26.88 6.08,-56.96 -11.69,-80.5 -0.35,-0.44 5.56,-9.06 8.93,-14.38 6.6,-22.99 10.66,-49.35 37.2,-43.52 3.05,0.66 9.25,-3.17 9.82,-6.27 4.92,-27.33 22.23,-17.21 37.02,-26.27l0 30.3c-8.27,-1.21 -15.23,-2.19 -24.44,-3.54 3.59,30.37 9.52,54.01 32,63.07 -5.76,26.95 -11.54,53.99 -17.31,80.91 5.3,4.63 12.68,8.23 14.55,14.63 21.11,70.73 34.6,142.38 12.22,217.64 -3.47,11.48 -7.95,26.34 -5.22,36.49 13.29,49.08 -2.24,95.39 -4.98,142.9 -1.45,24.62 -0.83,49.36 -2.71,73.93 -1.03,13.61 -2.11,30.47 -8.44,39.58 -30.35,43.87 -30.5,95 -20.85,149.87 3.99,-27.22 8,-54.5 11.99,-81.75 4.97,23.39 29.32,41.66 9.16,69.32 -2.44,3.33 2.48,15.68 3.54,23.93 3.72,27.7 8.94,55.93 -15.78,80.23 -4.68,-16.89 -8.44,-30.55 -12.62,-45.76 -3.95,2.48 -9.33,3.66 -10.15,6.79 -13.71,53.62 -12.48,108.91 -10.12,176.29 9.01,-18.76 13.92,-28.83 21.45,-44.51 7.6,16.59 14.18,30.82 21.64,47.07 19.91,2.82 42.21,-24.84 63.31,2.24 2.14,2.73 10.86,-0.55 15.11,-4.01 28.64,-23.2 58.1,-25.24 90.99,-16.84 18.47,4.72 39.12,-6.85 58.94,-9.93 7.93,-1.22 16.62,-1.43 24.24,1.38 21.25,7.73 41.78,25.6 63,-2.58 3.5,-4.61 16.2,-0.37 23.39,3.57 20.46,11.2 41.29,13.14 62.92,10.68 29.1,-3.3 58.32,-4.36 87.2,-9.58 7.31,-1.37 13.39,-14.89 21.76,-24.83 4.63,7.6 8.2,17.65 14.15,22.06 5.27,3.88 13.27,2.26 19.97,1.77 37.56,-3.03 75.13,-6.33 112.7,-9.75 -112.7,-206.22 -226.8,-412.74 -334.66,-621.86z"/>
   <polygon class="fil0" points="4937.35,4555.15 4934.99,4556.1 4937.06,4557.98 "/>
   <polygon class="fil0" points="4023.41,8145.26 4021.12,8145.04 4022.15,8148.46 "/>
   <path class="fil0" d="M5234.98 5075.32l-3.18 -2.17 3.55 -1.33 -0.37 3.5zm-29.37 -53.74c-3.25,0.05 -9.53,-8.47 -9.43,-13.05 0.29,-15.66 3.69,-30.53 18.66,-37.98 0.93,14.07 2.88,26.95 2.04,39.46 -0.34,4.63 -7.26,11.49 -11.27,11.57zm-91.66 152.26c-1.08,-2.61 -3.39,-7.07 -3.02,-7.56 2.22,-2.58 5.1,-4.24 7.76,-6.23 0.46,3.2 1.89,6.87 1.18,9.4 -0.7,2.15 -3.84,2.96 -5.92,4.39zm-156.98 939.13c9.24,-24.88 12.56,-47.31 31.34,-55.85 13.14,44.31 8.4,54.11 -31.34,55.85zm-437.47 -954.99l-1.36 -3.62 2.66 -0.05 -1.3 3.67zm-28.83 351.05c-5.91,-1.53 -13.4,-11.57 -14.97,-19.55 -3.25,-16.19 8.05,-33.4 24.03,-33.72 3.59,5.83 11.34,13.71 13.85,23.75 3.01,12.11 -12.28,32.23 -22.91,29.52zm-208.17 2842.69l-0.64 -3.82 2.37 0.94 -1.73 2.88zm-138.8 342.11c-9.15,-10.78 -15.63,-18.44 -22.1,-26.05 2.06,-4.28 4.16,-8.54 6.23,-12.82 8.56,1.25 17.13,2.51 29.22,4.28 -4.63,11.99 -7.8,20.29 -13.35,34.59zm-11.84 108.17c-0.79,0.34 -2.19,-1.6 -3.3,-2.49 1.46,-2.56 2.91,-5.09 4.34,-7.6 1.6,1.91 3.2,3.88 4.78,5.83 -1.9,1.45 -3.74,3.37 -5.82,4.26zm-76.8 -959.08c-5.02,7.09 4.08,29.99 4.55,45.72 0.59,21.12 -9.82,22.06 -21.98,16.91 -8.94,-98.77 -0.32,-176.38 31.21,-214.81 -1.69,25.55 -3.54,51.11 -5.02,76.65 -1.47,25.19 8.37,51.19 -8.76,75.53zm-29.4 828.23l0.27 -2.65 2.37 1.67 -2.64 0.98zm-8.29 99.14c-0.54,-1.23 -1.67,-2.7 -1.46,-3.59 0.32,-1.14 1.73,-1.75 2.64,-2.64 1.01,0.6 1.97,1.23 3,1.8 -1.4,1.47 -2.78,2.98 -4.18,4.43zm1338.99 -3724.66c0.35,-3.1 1.83,-6.13 3.3,-9.26 -15.55,-36.09 -31.55,-72.05 -47.85,-107.97 -55.98,6.82 -111.15,21.78 -167.35,23.26 -22.28,0.57 -25.45,22.68 -29.91,44.66 -21.59,-24.87 -21.64,-26.27 -50.34,-24.17 -34.2,2.43 -68.47,6.07 -102.34,12.23 -19.33,3.49 -40.91,6.47 -47.88,45.42 -10.56,-18.05 -17.48,-29.89 -25.8,-44.17 -8.47,4.26 -17.06,8.5 -26.64,13.3 -2.7,22.33 -5.39,44.48 -8.61,71.24 -11.74,-11.15 -20.16,-19.1 -28.56,-27.03 -3.32,-3.15 -8.83,-9.75 -9.65,-8.89 -34.24,37.67 -41.6,-32.81 -74.61,-25.45 -26.27,25.3 -62.98,38.74 -103.22,37.84 -14.78,-0.32 -30.02,2.66 -44.27,7.88 -23.66,8.78 -46.67,18.56 -71.24,5.66 -3.52,-1.83 -9.77,-2.89 -11.77,-0.25 -24.44,31.26 -53.67,10.31 -80.52,13.96 -26.96,3.64 -53.84,8.47 -80.53,14.77 -15.6,3.66 -30.7,11.4 -46.1,16.86 -32.6,11.55 -65.19,22.78 -97.76,34.07 -22.11,7.63 -44.22,15.19 -68.02,23.32 -1.72,18.29 -3.84,33.87 -4.6,49.58 -5.27,108.41 -9.65,216.85 -15.52,325.17 -3.81,71.12 -10.06,142.07 -14.25,213.13 -2.98,51.26 -10.83,102.74 0.6,153.94 0.39,1.73 1.37,4.02 0.9,5.15 -22.03,48.66 0.37,97.34 -0.04,145.98 -0.13,14.25 1.3,31.73 -4.19,41.9 -11.96,22.23 -12.75,48.2 -9.87,69.64 5.56,42.05 -12.26,79.1 -7.65,120.82 4.5,40.6 2.11,82.57 1.96,123.96 -0.17,47.45 -1.08,95.05 -1.96,142.5 -0.18,8.82 0.58,22.01 -3.23,25.61 -15.88,14.99 -5.07,28.13 -2.93,44.9 4.16,32.64 2.12,66.15 -15.14,95 -4.93,8.2 -7.95,30.5 -6.08,31.75 26.39,17.95 8.79,53.65 18.88,79.33 9.65,24.68 -7.11,46.6 -30.38,48.52l0 47.01c7.73,-7.23 13.66,-12.87 19.48,-18.36 15.08,16.47 4.27,30.77 2.87,45.69 -1.3,13.91 1.9,28.58 3.55,48.65 -9.18,-10.17 -15.83,-17.53 -24.89,-27.6 -11.82,46.82 -11.55,92.51 -2.19,138.7 0.15,-0.06 0.27,-0.11 0.44,-0.13 2.88,-23.29 5.74,-46.68 9.11,-73.98 14.75,9.11 23.81,14.41 22.01,35.82 -2.19,26.59 -14.43,34.79 -31.12,38.16 -0.07,0.54 -0.15,1.08 -0.22,1.63l-0.91 -1.29c-10.81,27.73 -13.05,56.53 -12.33,87.94 1.5,69.05 -1.06,138.23 -0.96,207.35 0,20.98 3.17,41.98 4.94,63.57 10.88,-1.53 18.81,-2.69 26.74,-3.75 -23.16,23.78 -25.97,58.89 -35.15,88.38 -5.1,16.3 -9.58,34.29 0.05,55.31 6.3,13.86 4.38,38.02 0.54,55.4 -7.83,35.32 -1.55,68.92 -0.77,103.59 0.67,29.59 4.85,62.6 -7.75,92.01 -3.77,8.67 -4.85,20.79 -4.19,30.92 3.26,47.94 7.49,95.75 11.4,143.57l0.59 2.15 0.18 -3.26c2.06,-11.12 4.08,-22.25 6.25,-33.42 2.34,-12.34 4.77,-24.65 7.16,-36.98 3.11,-0.29 6.15,-0.66 9.23,-0.98 3.82,11.81 10.96,23.7 10.83,35.47 -0.73,58.37 -3.47,116.76 -5.24,175.11 -0.39,13.49 1.06,27.1 0.22,40.47 -0.59,9.35 -1.8,24.32 -5.83,26.46 -10.39,5.42 -17.3,-3.49 -19.4,-18.39 -0.66,-4.68 -3.25,-8.96 -5.73,-15.46 -5.47,13.96 -10.05,25.77 -14.65,37.5l0.86 -1.43 -1.11 2.28c10.71,47.05 11.2,93.23 -6.89,137.82 -0.64,1.52 -1.8,2.87 -2.09,4.5 -2.96,19.15 -9.95,39.22 -7.83,57.41 5.49,47.26 -17.78,92.86 -1.23,141.18 7.67,22.38 16.79,49.65 2.02,75.3 14,44.29 -4.61,88.95 0.9,133.68 3.06,24.42 1.85,49.75 2.69,74.64 0.79,24.55 1.74,49.04 2.73,75.9 16.38,16.73 22.65,29.46 18.73,45.49 679.35,-281.38 1241.29,-834.88 1501.8,-1586.45 306.15,-883.36 155.02,-1636.07 -149.63,-2350.29 -4.08,-0.69 -12.38,-8.54 -12.04,-11.45z"/>
   <path class="fil0" d="M4686.53 4565.53c1.92,1.73 3.84,3.4 6.75,5.98 1.67,-4.13 3.64,-7.95 4.6,-12.2 0.2,-0.77 -4.9,-4.93 -5.27,-4.41 -2.39,3.05 -4.11,6.97 -6.08,10.63z"/>
   <path class="fil0" d="M4630.85 4612.43c0.94,0.44 1.89,0.96 2.86,1.45 0.66,-1.01 1.84,-1.96 1.87,-2.98 0.05,-1.06 -1.03,-2.19 -1.63,-3.27 -1.06,1.6 -2.04,3.18 -3.1,4.8z"/>
   <path class="fil0" d="M4656.67 4613.72c5.86,-2.31 11.72,-4.63 17.6,-6.97 -1.13,-4.23 -2.31,-8.46 -3.42,-12.7 -5.71,3.67 -11.42,7.36 -17.11,11.06 0.99,2.82 1.95,5.73 2.93,8.61z"/>
   <path class="fil0" d="M4007.13 8247.56c0.03,0.08 0.03,0.13 0.03,0.2 0.1,-0.25 0.2,-0.49 0.3,-0.71l-0.33 0.51z"/>
   <path class="fil0" d="M4711.83 4590.56c-0.34,1.35 2.93,4.38 4.88,7.16 6.57,-5.17 13.21,-10.42 17.13,-13.49 -1.13,-12.28 -1.95,-21.25 -2.79,-30.25 -0.24,0.34 -0.53,0.73 -0.78,1.08 -23.61,-4.16 -14.77,21.51 -18.44,35.5z"/>
   <path class="fil0" d="M4761.54 4588.85c2.12,1.04 4.49,3.35 6.31,2.76 1.28,-0.45 1.84,-4.75 2.73,-7.33 -2.1,-1.29 -4.13,-2.57 -6.23,-3.82 -0.93,2.8 -1.87,5.61 -2.81,8.39z"/>
   <path class="fil0" d="M4006.81 8248.69l0.39 -0.79c-0.02,-0.05 -0.02,-0.1 -0.02,-0.15 -0.13,0.32 -0.25,0.64 -0.37,0.94z"/>
   <path class="fil0" d="M4789.82 4582.22c5.19,-2.17 10.36,-4.32 15.56,-6.48 -1.4,-3.82 -2.83,-7.63 -4.19,-11.4 -4.58,3.47 -9.2,6.99 -13.79,10.49 0.84,2.44 1.61,4.87 2.42,7.39z"/>
   <path class="fil0" d="M4157.71 3141.44l-1.67 -0.52c-0.15,0.2 -0.32,0.49 -0.47,0.69 -0.05,0.17 -0.07,0.35 -0.12,0.52l2.26 -0.69z"/>
   <path class="fil0" d="M4063.52 2919.44c-0.57,1.36 -1.5,2.69 -1.62,4.17 -0.13,1.4 0.56,2.97 0.91,4.45 1.75,-1.11 3.49,-2.24 5.27,-3.37 -1.51,-1.77 -3.03,-3.48 -4.56,-5.25z"/>
   <path class="fil0" d="M3520.16 9012.77c-3.18,1.57 -6.35,3.13 -9.53,4.73l9.88 0c-0.08,-1.6 -0.22,-3.16 -0.35,-4.73z"/>
   <path class="fil0" d="M3479.53 8850.3c-2.86,-2.88 -5.74,-5.79 -9.5,-9.58 -2.79,4.63 -6.41,8.13 -6.65,11.99 -0.1,2.98 4.01,6.33 6.23,9.55 3.29,-3.99 6.62,-7.98 9.92,-11.96z"/>
   <path class="fil0" d="M3510.63 9017.49l-2.49 0c-0.49,0.69 -0.98,1.37 -1.45,2.07 0.78,-0.42 1.55,-0.86 2.34,-1.28 0.54,-0.27 1.05,-0.52 1.6,-0.79z"/>
   <path class="fil0" d="M3483.32 8992.49c0.79,1.25 1.63,3.54 2.27,3.46 2.16,-0.31 4.21,-1.52 6.32,-2.4 -0.74,-1.31 -1.6,-3.77 -2.16,-3.65 -2.17,0.42 -4.29,1.65 -6.43,2.59z"/>
   <path class="fil0" d="M4088.36 3654.59c0.22,-5.64 0.13,-11.23 0.13,-16.89 -1.95,0.27 -3.97,0.54 -5.91,0.81 0.83,5.77 1.67,11.5 2.54,17.24 1.13,-0.37 3.22,-0.74 3.24,-1.16z"/>
   <path class="fil0" d="M4085.49 5375.78c-1.95,0.42 -3.9,0.79 -5.85,1.18 0.42,12.31 0.84,24.67 1.24,37 3.18,-0.72 6.32,-1.48 9.5,-2.19 -1.65,-12.03 -3.28,-23.97 -4.89,-35.99z"/>
   <path class="fil0" d="M4094.77 5258.5c-2.26,-0.35 -4.55,-0.76 -6.82,-1.16 -1.52,10.44 -3.05,20.88 -4.55,31.32 3.15,0.37 6.27,0.69 9.4,0.98 0.69,-10.36 1.3,-20.75 1.97,-31.14z"/>
   <path class="fil0" d="M3467.93 8918.76c0.93,-3 2.96,-6.28 2.51,-8.89 -0.37,-2.45 -3.29,-4.26 -5.12,-6.37 -0.96,3.1 -1.97,6.18 -2.93,9.2 1.87,2.02 3.7,4.05 5.54,6.06z"/>
   <path class="fil0" d="M4602.89 5023.18c0.94,-0.66 1.92,-1.27 2.9,-1.87 -0.69,-1 -1.33,-2.65 -2.09,-2.85 -0.88,-0.17 -1.92,1.06 -2.88,1.67 0.69,1.04 1.35,2.02 2.07,3.05z"/>
   <polygon class="fil0" points="4061.03,5780.48 4063.2,5781.09 4062.54,5777.33 "/>
   <path class="fil0" d="M3985.11 2169.14c1.92,-25.73 -2.19,-29 -24.1,-29.47l0.19 0.61 -0.98 -0.48c-17.53,47.65 -16.91,98.05 -4.58,145.68 6.5,25.13 5.32,36.9 -8.91,54.62 -20.16,25.06 -21.56,71 -7.54,104.75 -9.3,12.61 -22.37,23.86 -5.41,43.03 2.88,3.35 4.14,16.42 1.92,19.21 -20.82,26.83 6.94,37.39 8.94,56.71 6.59,-18.16 13.81,-35.96 14.27,-54.08 1.09,-39.19 23,-77.62 3.28,-117.97 -1.68,-3.34 -0.69,-12.72 1.5,-14.84 17.14,-16.39 13.54,-34.54 6.87,-56.79 -3.47,-11.63 0.39,-27.45 1.94,-41.21 4.07,-36.61 9.9,-73.02 12.61,-109.77z"/>
   <path class="fil0" d="M4059.21 5881.29l0 -4.26c-1.18,-0.61 -2.42,-1.89 -3.3,-1.63 -0.84,0.3 -1.33,2.37 -1.94,3.63 1.72,0.76 3.46,1.5 5.24,2.26z"/>
   <path class="fil0" d="M3982.57 1883.05c-1.67,1.75 -3.24,3.81 -5.14,4.92 -0.64,0.42 -3.16,-1.97 -3.08,-2.34 0.64,-2.8 1.77,-5.49 2.74,-8.15 1.84,1.87 3.66,3.72 5.48,5.57zm-12.2 -223.58c-12.76,58.27 -33.07,114 -39.27,174.3 -3.59,34.93 -0.66,71.24 0.71,106.83 0.84,21.2 16.76,35.48 34.76,34.17 19.87,-1.48 25.36,-8.74 25.68,-36.8 0.32,-25.23 0.24,-50.81 0.17,-76.98 -8.45,-67.55 -14.67,-135.84 -18.76,-204.84 -1.57,0.93 -3,1.92 -3.29,3.32z"/>
   <path class="fil0" d="M4075.16 3420.83c13.74,-16.23 14.18,-31.59 0,-49.19l0 49.19z"/>
   <path class="fil0" d="M3506.69 9019.55c-5.92,3.17 -11.8,6.35 -17.68,9.55 1.63,2.83 3.27,5.66 4.9,8.47 4.28,-6.03 8.52,-12.04 12.78,-18.02z"/>
   <path class="fil0" d="M4109.78 3440.46c1.28,-2.47 2.56,-4.93 3.86,-7.41 -2.14,1.47 -4.28,2.93 -6.4,4.38 0.84,1.01 1.7,1.99 2.54,3.03z"/>
   <path class="fil0" d="M4113.64 3433.05c0.51,-0.34 1.03,-0.71 1.54,-1.05 2.74,-4.63 5.5,-9.26 8.25,-13.84 -0.19,-0.29 -0.37,-0.56 -0.56,-0.86 -2.78,4.65 -5.54,9.28 -8.3,13.96 -0.32,0.59 -0.61,1.21 -0.93,1.79z"/>
   <path class="fil0" d="M4411.71 4909.31c-1.06,0.76 -2.17,1.5 -3.25,2.31 1.11,0.82 2.19,1.63 3.25,2.47l0 -4.78z"/>
   <path class="fil0" d="M4108.76 3370.7c1.07,9.15 2.13,18.31 3.19,27.47 1.1,-9.04 2.21,-18.12 3.37,-27.18 -2.22,-0.07 -4.38,-0.2 -6.56,-0.29z"/>
   <path class="fil0" d="M4162.21 3407.66c2.07,-0.05 4.14,-0.13 6.23,-0.2l0 -36.68c-2.09,0.12 -4.16,0.27 -6.23,0.45l0 36.43z"/>
   <path class="fil0" d="M4340.85 4935.5c1.25,0.29 2.54,0.59 3.76,0.91 1.18,-0.5 2.37,-0.98 3.58,-1.51 -0.97,-0.88 -2.1,-2.63 -2.91,-2.4 -1.55,0.36 -2.93,1.94 -4.43,3z"/>
   <polygon class="fil0" points="4072.29,3722.9 4069.8,3722.48 4070.78,3726.52 "/>
   <path class="fil0" d="M4121.17 3765.38c0.12,-1.19 -0.74,-2.52 -1.21,-3.74 -0.2,2.28 -0.39,4.57 -0.59,6.88 0.62,-1.05 1.7,-2.03 1.8,-3.14z"/>
   <polygon class="fil0" points="4070.52,5592.72 4071.95,5589.82 4069.66,5589.43 "/>
   <path class="fil0" d="M4074.58 5473.9c-1.48,25.73 -2.96,51.5 -4.46,77.25 11.55,-24.64 18.02,-49.85 4.46,-77.25z"/>
   <path class="fil0" d="M4111.95 3398.18c-0.15,1.2 -0.3,2.44 -0.44,3.67 0.32,0.17 0.76,0.19 1.13,0.34 -0.07,-0.15 -0.17,-0.3 -0.27,-0.42 -0.15,-1.2 -0.27,-2.39 -0.42,-3.59z"/>
   <path class="fil0" d="M4112.64 3402.19c3.4,5.04 6.83,10.07 10.22,15.11 0.08,-0.12 0.15,-0.24 0.22,-0.37 3.6,-14.37 -4.85,-12.65 -10.44,-14.74z"/>
   <polygon class="fil1" points="882.79,10217.43 769.18,10217.43 769.18,9650.96 882.79,9650.96 "/>
   <path class="fil1" d="M1389.19 9821.41c-12.97,-23.78 -30.84,-41.91 -53.57,-54.36 -22.72,-12.46 -49.23,-18.68 -79.54,-18.68 -33.55,0 -63.29,7.57 -89.27,22.72 -25.94,15.16 -46.25,36.8 -60.85,64.94 -14.59,28.13 -21.91,60.58 -21.91,97.38 0,37.87 7.44,70.88 22.31,98.99 14.87,28.16 35.57,49.8 62.08,64.92 26.52,15.16 57.34,22.75 92.52,22.75 43.28,0 78.73,-11.5 106.32,-34.5 27.57,-22.99 45.71,-55.04 54.38,-96.18l-194.78 0 0 -86.82 306.77 0 0 99.01c-7.59,39.49 -23.84,76.02 -48.7,109.55 -24.89,33.55 -56.94,60.46 -96.18,80.74 -39.22,20.29 -83.18,30.43 -131.87,30.43 -54.66,0 -104.01,-12.28 -148.1,-36.9 -44.1,-24.61 -78.71,-58.84 -103.87,-102.68 -25.16,-43.82 -37.73,-93.6 -37.73,-149.31 0,-55.73 12.57,-105.63 37.73,-149.72 25.16,-44.12 59.77,-78.46 103.87,-103.08 44.09,-24.61 93.2,-36.92 147.28,-36.92 63.84,0 119.32,15.56 166.37,46.65 47.09,31.12 79.54,74.82 97.39,131.07l-130.65 0z"/>
   <path class="fil1" d="M1731.65 9911.5l94.95 0c30.85,0 53.82,-7.44 68.98,-22.33 15.14,-14.87 22.73,-35.54 22.73,-62.08 0,-25.98 -7.59,-46.11 -22.73,-60.46 -15.16,-14.33 -38.13,-21.49 -68.98,-21.49l-94.95 0 0 166.36zm178.55 305.95l-124.98 -220.75 -53.57 0 0 220.75 -113.6 0 0 -566.48 212.62 0c43.81,0 81.14,7.73 111.98,23.14 30.85,15.42 53.99,36.27 69.37,62.5 15.44,26.25 23.14,55.59 23.14,88.04 0,37.34 -10.83,71.02 -32.44,101.05 -21.67,30.01 -53.84,50.71 -96.58,62.07l135.53 229.68 -131.47 0z"/>
   <polygon class="fil1" points="2251.84,9742.69 2251.84,9884.71 2442.55,9884.71 2442.55,9974.78 2251.84,9974.78 2251.84,10124.92 2466.9,10124.92 2466.9,10217.44 2138.22,10217.44 2138.22,9650.18 2466.9,9650.18 2466.9,9742.69 "/>
   <path class="fil1" d="M2900.26 9650.98l0 397.64c0,55.2 -15.95,98.11 -47.88,128.66 -31.92,30.55 -74.67,45.83 -128.21,45.83 -54.13,0 -97.8,-15.68 -131.09,-47.06 -33.25,-31.36 -49.9,-75.19 -49.9,-131.46l113.62 0c0.53,24.35 6.35,43.3 17.45,56.79 11.08,13.54 27.18,20.29 48.27,20.29 20.56,0 36.26,-6.48 47.1,-19.45 10.8,-13 16.22,-30.85 16.22,-53.6l0 -397.64 114.42 0z"/>
   <polygon class="fil1" points="4315.57,9650.98 4107.82,10217.46 3969.86,10217.46 3762.09,9650.98 3883.83,9650.98 4039.66,10101.38 4194.65,9650.98 "/>
   <polygon class="fil1" points="2922.08,10216.23 3129.83,9649.76 3267.79,9649.76 3475.56,10216.23 3353.82,10216.23 3198,9765.83 3043,10216.23 "/>
   <polygon class="fil1" points="4973.64,10229.45 5181.39,9662.97 5319.34,9662.97 5527.11,10229.45 5405.39,10229.45 5249.56,9779.04 5094.56,10229.45 "/>
   <polygon class="fil1" points="4497.36,10217.43 4383.75,10217.43 4383.75,9650.96 4497.36,9650.96 "/>
   <polygon class="fil1" points="5118.19,9650.98 4910.44,10217.46 4772.48,10217.46 4564.71,9650.98 4686.45,9650.98 4842.27,10101.38 4997.27,9650.98 "/>
   <path class="fil1" d="M1548.91 10700.59l277.39 0c0.58,-3.26 0.77,-6.13 0.77,-8.82 0,-2.69 0,-5.18 0,-7.48 0,-25.71 -3.65,-49.88 -10.74,-72.52 -7.3,-22.44 -17.85,-42.2 -31.85,-58.89 -14,-16.69 -31.27,-29.73 -51.6,-39.51 -20.33,-9.79 -43.36,-14.58 -69.06,-14.58 -24.36,0 -46.62,4.79 -67.14,14.19 -20.53,9.4 -38.37,22.44 -53.14,38.94 -14.96,16.5 -26.66,35.88 -34.91,58.13 -8.26,22.44 -12.47,46.23 -12.47,71.55 0,27.05 4.6,51.8 13.81,74.25 9.2,22.63 21.67,42 37.6,57.93 15.73,16.11 34.14,28.58 55.44,37.21 21.29,8.82 43.74,13.24 67.72,13.24 33.37,0 61.38,-5.95 84.02,-18.03 22.44,-11.9 42.58,-27.82 60.04,-47.58l-32.42 -29.16c-14.39,14.97 -30.31,26.86 -47.77,35.87 -17.46,9.02 -38.17,13.63 -62.53,13.63 -15.35,0 -29.93,-2.69 -43.93,-7.87 -14.01,-5.18 -26.67,-12.85 -37.99,-23.02 -11.31,-10.17 -20.52,-22.44 -27.62,-37.21 -7.29,-14.58 -11.89,-31.27 -13.62,-50.27zm0 -38.55c1.73,-17.27 5.95,-33.19 12.28,-47.58 6.33,-14.39 14.39,-26.85 24.36,-37.4 9.78,-10.55 21.3,-19 34.34,-25.14 13.04,-5.94 27.24,-9.01 42.59,-9.01 17.65,0 33.19,3.26 46.42,9.78 13.23,6.52 24.55,15.16 33.95,25.9 9.21,10.93 16.5,23.6 21.68,37.98 5.18,14.39 8.25,29.54 9.59,45.47l-225.21 0zm646.86 -93.43c-9.4,-19.95 -23.4,-36.64 -42.01,-49.87 -18.61,-13.24 -42.01,-19.95 -70.4,-19.95 -14.77,0 -27.81,1.72 -39.13,5.37 -11.32,3.64 -21.49,8.63 -30.5,14.58 -9.02,6.13 -17.08,13.23 -23.99,21.29 -7.1,8.25 -13.42,16.5 -19.37,25.13l0 -58.89 -52.18 0 0 349.9 52.18 0 0 -199.69c0,-16.31 2.49,-31.09 7.48,-44.32 4.99,-13.23 11.89,-24.94 20.72,-34.92 8.63,-9.78 18.99,-17.45 30.69,-23.02 11.7,-5.36 24.56,-8.05 38.56,-8.05 28.01,0 50.07,9.21 65.99,27.43 15.92,18.22 23.98,43.93 23.98,76.92l0 205.65 51.41 0 0 -201.61c0,-17.08 2.69,-32.42 7.86,-46.05 5.19,-13.62 12.09,-24.94 20.92,-34.34 8.82,-9.2 19.18,-16.11 30.88,-20.9 11.7,-4.8 24.18,-7.1 37.22,-7.1 28.39,0 50.64,9.21 66.76,27.43 15.92,18.22 23.97,44.31 23.97,78.27l0 204.3 51.99 0 0 -216.58c0,-43.73 -11.51,-78.07 -34.53,-103.2 -23.02,-25.14 -54.87,-37.6 -95.34,-37.6 -15.34,0 -29.16,1.72 -41.63,5.37 -12.46,3.64 -23.59,8.63 -33.38,14.96 -9.97,6.33 -18.99,13.81 -26.86,22.45 -7.86,8.63 -14.96,17.64 -21.29,27.04zm869.59 228.09l-33.19 -31.27c-14.01,14.96 -29.54,27.43 -47,37.22 -17.46,9.98 -37.41,14.96 -60.05,14.96 -18.41,0 -35.48,-3.45 -51.02,-10.55 -15.54,-6.9 -29.16,-16.5 -40.48,-28.97 -11.51,-12.46 -20.53,-27.05 -27.05,-43.73 -6.71,-16.69 -9.97,-34.54 -9.97,-53.52 0,-19 3.26,-36.65 9.58,-53.14 6.34,-16.31 14.97,-30.69 26.29,-43.16 11.32,-12.47 24.55,-22.07 39.9,-29.16 15.35,-7.1 31.84,-10.56 49.49,-10.56 23.98,0 44.13,5.18 60.62,15.54 16.31,10.36 31.66,22.83 45.66,37.22l34.53 -36.45c-8.25,-8.63 -17.08,-16.69 -26.48,-24.36 -9.4,-7.67 -19.75,-14.39 -31.07,-19.95 -11.32,-5.57 -23.59,-9.98 -37.22,-13.24 -13.62,-3.26 -28.77,-4.79 -45.46,-4.79 -25.71,0 -49.49,4.79 -71.36,14.58 -21.87,9.78 -40.86,22.82 -56.79,39.51 -15.92,16.69 -28.38,36.26 -37.41,58.51 -9.01,22.45 -13.61,46.04 -13.61,70.79 0,24.75 4.6,48.34 13.61,70.4 9.03,22.06 21.49,41.44 37.41,57.93 15.93,16.5 34.92,29.55 56.79,39.14 21.87,9.78 45.65,14.58 71.36,14.58 32.99,0 60.62,-6.34 83.06,-18.99 22.26,-12.47 42.21,-28.78 59.86,-48.54zm117.01 -96.11l277.39 0c0.58,-3.26 0.76,-6.13 0.76,-8.82 0,-2.69 0,-5.18 0,-7.48 0,-25.71 -3.64,-49.88 -10.74,-72.52 -7.29,-22.44 -17.84,-42.2 -31.84,-58.89 -14,-16.69 -31.27,-29.73 -51.6,-39.51 -20.34,-9.79 -43.36,-14.58 -69.06,-14.58 -24.36,0 -46.62,4.79 -67.14,14.19 -20.53,9.4 -38.37,22.44 -53.14,38.94 -14.96,16.5 -26.66,35.88 -34.91,58.13 -8.26,22.44 -12.47,46.23 -12.47,71.55 0,27.05 4.6,51.8 13.81,74.25 9.2,22.63 21.67,42 37.6,57.93 15.72,16.11 34.14,28.58 55.44,37.21 21.29,8.82 43.74,13.24 67.71,13.24 33.38,0 61.39,-5.95 84.03,-18.03 22.44,-11.9 42.58,-27.82 60.04,-47.58l-32.42 -29.16c-14.39,14.97 -30.31,26.86 -47.77,35.87 -17.46,9.02 -38.17,13.63 -62.54,13.63 -15.34,0 -29.92,-2.69 -43.92,-7.87 -14.01,-5.18 -26.67,-12.85 -37.99,-23.02 -11.31,-10.17 -20.53,-22.44 -27.62,-37.21 -7.29,-14.58 -11.89,-31.27 -13.62,-50.27zm0 -38.55c1.73,-17.27 5.95,-33.19 12.28,-47.58 6.33,-14.39 14.39,-26.85 24.36,-37.4 9.78,-10.55 21.3,-19 34.34,-25.14 13.04,-5.94 27.24,-9.01 42.59,-9.01 17.64,0 33.18,3.26 46.42,9.78 13.23,6.52 24.55,15.16 33.95,25.9 9.21,10.93 16.5,23.6 21.68,37.98 5.18,14.39 8.25,29.54 9.59,45.47l-225.21 0zm124.5 -208.53l76.35 -73.09 -54.1 -25.12 -64.26 98.21 42.01 0zm301.75 402.66l0 -493.97 -52.17 0 0 493.97 52.17 0zm369.47 -149.63c0,16.31 -2.68,31.08 -8.05,44.7 -5.56,13.62 -12.86,25.13 -22.06,34.91 -9.21,9.78 -20.15,17.08 -33,22.26 -12.85,5.17 -26.85,7.86 -41.82,7.86 -31.07,0 -54.86,-9.4 -71.55,-28.39 -16.69,-18.99 -25.13,-44.7 -25.13,-77.12l0 -204.49 -52.18 0 0 217.34c0,20.72 3.07,39.72 9.2,56.78 5.96,17.08 14.78,31.85 26.29,44.32 11.51,12.47 25.51,22.06 42.01,28.77 16.5,6.72 35.3,10.17 56.59,10.17 30.12,0 54.67,-6.71 73.67,-19.95 18.98,-13.24 34.34,-29.54 46.03,-48.53l0 61 51.42 0 0 -349.9 -51.42 0 0 200.27zm225.4 149.63l0 -493.97 -52.17 0 0 493.97 52.17 0zm247.66 -308.66c32.99,0 58.7,8.06 76.93,23.98 18.22,16.12 27.23,39.9 27.23,71.55l0 12.09c-15.72,-4.41 -31.84,-8.05 -48.53,-10.74 -16.68,-2.69 -36.45,-4.03 -59.08,-4.03 -22.06,0 -42.21,2.49 -60.43,7.29 -18.22,4.99 -34.14,12.27 -47.38,21.67 -13.24,9.4 -23.6,21.3 -30.7,35.49 -7.28,14.39 -10.93,30.7 -10.93,49.12 0,18.6 3.65,34.52 11.13,48.15 7.48,13.62 17.26,24.93 29.73,34.14 12.47,9.21 26.47,16.11 42.01,20.72 15.54,4.41 31.47,6.71 47.77,6.71 31.08,0 56.97,-6.14 77.5,-18.41 20.53,-12.09 36.84,-26.1 48.91,-41.82l0 52.75 50.07 0 0 -213.9c0,-46.41 -12.84,-81.52 -38.55,-105.31 -25.71,-23.59 -62.54,-35.49 -110.31,-35.49 -25.7,0 -48.53,2.69 -68.29,7.87 -19.76,5.18 -39.52,12.27 -58.89,21.29l15.54 42.59c16.3,-7.68 32.8,-13.81 49.87,-18.61 16.88,-4.8 35.68,-7.1 56.4,-7.1zm2.12 131.41c21.67,0 40.85,1.53 57.93,4.6 16.88,3.26 31.84,6.52 44.88,10.17l0 33.95c0,14 -3.06,26.67 -9.01,38.18 -6.14,11.5 -14.58,21.48 -25.13,29.73 -10.55,8.44 -23.02,14.96 -37.22,19.76 -14.19,4.8 -29.35,7.1 -45.66,7.1 -11.7,0 -23.02,-1.53 -33.57,-4.8 -10.54,-3.26 -19.95,-7.87 -28,-14 -8.25,-5.95 -14.58,-13.24 -19.38,-21.87 -4.79,-8.63 -7.1,-18.41 -7.1,-29.73 0,-22.64 8.83,-40.48 26.48,-53.53 17.46,-13.04 42.78,-19.56 75.78,-19.56zm503.56 79.03l0 -1.34c0,-15.73 -3.26,-28.97 -9.79,-39.9 -6.71,-10.75 -15.34,-19.95 -26.09,-27.63 -10.93,-7.67 -23.02,-14 -36.25,-18.99 -13.24,-4.98 -26.67,-9.59 -40.29,-13.61 -11.7,-3.65 -23.02,-7.11 -33.76,-10.75 -10.94,-3.64 -20.53,-7.67 -28.77,-12.28 -8.25,-4.41 -14.97,-9.78 -19.95,-15.92 -4.99,-5.95 -7.49,-13.04 -7.49,-21.29l0 -1.35c0,-14.39 6.14,-26.47 18.22,-36.25 12.09,-9.59 28.59,-14.39 49.5,-14.39 17.07,0 34.53,3.07 52.37,9.02 17.84,6.14 34.72,14.39 51.03,24.74l23.79 -39.32c-18.04,-11.7 -38.18,-20.91 -60.24,-28.01 -22.06,-7.1 -43.93,-10.55 -65.61,-10.55 -17.07,0 -32.99,2.3 -47.76,7.1 -14.78,4.79 -27.25,11.51 -37.8,20.33 -10.54,8.83 -18.8,19.38 -24.74,31.85 -5.95,12.46 -8.82,26.08 -8.82,40.86l0 1.53c0,16.31 3.44,29.74 10.55,40.47 6.9,10.94 15.91,19.96 27.04,27.05 10.94,7.29 23.41,13.24 37.22,18.04 13.62,4.8 27.24,9.21 40.86,13.23 11.32,3.07 22.25,6.34 32.8,9.98 10.55,3.64 19.95,7.86 28.2,12.66 8.06,4.79 14.39,10.17 19.18,16.5 4.8,6.33 7.1,13.81 7.1,22.44l0 1.34c0,17.08 -6.71,30.7 -20.14,40.48 -13.62,9.98 -30.88,14.97 -52.17,14.97 -20.92,0 -41.44,-3.84 -61.97,-11.52 -20.52,-7.67 -40.29,-18.8 -59.27,-33.18l-26.28 37.22c19.75,15.91 42.58,28.38 68.28,37.59 25.71,9.21 51.22,13.81 76.55,13.81 17.45,0 33.95,-2.3 49.1,-7.09 15.16,-4.8 28.2,-11.71 39.14,-20.72 10.93,-9.02 19.76,-19.95 26.47,-32.81 6.53,-12.85 9.79,-27.62 9.79,-44.31z"/>
  </g>
 </g>
</svg>
